<ttFont>
    <TTGlyph name=".notdef" xMin="180" yMin="0" xMax="570" yMax="701">
      <contour>
        <pt x="234" y="651" on="1"/>
        <pt x="234" y="50" on="1"/>
        <pt x="516" y="50" on="1"/>
        <pt x="516" y="651" on="1"/>
      </contour>
      <contour>
        <pt x="180" y="0" on="1"/>
        <pt x="180" y="701" on="1"/>
        <pt x="570" y="701" on="1"/>
        <pt x="570" y="0" on="1"/>
      </contour>
    </TTGlyph>
    <TTGlyph name="A" xMin="43" yMin="16" xMax="562" yMax="730">
      <contour>
        <pt x="477" y="322" on="1"/>
        <pt x="499" y="16" on="0"/>
        <pt x="452" y="16" on="1"/>
        <pt x="435" y="16" on="0"/>
        <pt x="415" y="58" on="0"/>
        <pt x="409" y="110" on="1"/>
        <pt x="402" y="209" on="0"/>
        <pt x="394" y="300" on="1"/>
        <pt x="377" y="295" on="0"/>
        <pt x="344" y="286" on="1"/>
        <pt x="261" y="266" on="0"/>
        <pt x="201" y="247" on="1"/>
        <pt x="113" y="16" on="0"/>
        <pt x="95" y="16" on="1"/>
        <pt x="80" y="16" on="0"/>
        <pt x="43" y="55" on="0"/>
        <pt x="43" y="77" on="1"/>
        <pt x="43" y="87" on="0"/>
        <pt x="102" y="223" on="1"/>
        <pt x="82" y="224" on="0"/>
        <pt x="53" y="247" on="0"/>
        <pt x="53" y="287" on="0"/>
        <pt x="141" y="317" on="1"/>
        <pt x="156" y="351" on="0"/>
        <pt x="190" y="438" on="0"/>
        <pt x="272" y="636" on="0"/>
        <pt x="294" y="691" on="0"/>
        <pt x="349" y="730" on="0"/>
        <pt x="375" y="730" on="1"/>
        <pt x="405" y="730" on="0"/>
        <pt x="456" y="532" on="0"/>
        <pt x="471" y="389" on="1"/>
        <pt x="562" y="402" on="0"/>
        <pt x="562" y="367" on="1"/>
        <pt x="562" y="348" on="0"/>
      </contour>
      <contour>
        <pt x="238" y="345" on="1"/>
        <pt x="308" y="362" on="0"/>
        <pt x="387" y="377" on="1"/>
        <pt x="371" y="532" on="0"/>
        <pt x="352" y="631" on="1"/>
        <pt x="299" y="508" on="0"/>
      </contour>
    </TTGlyph>
    <TTGlyph name="AE" xMin="25" yMin="21" xMax="831" yMax="705">
      <contour>
        <pt x="665" y="407" on="1"/>
        <pt x="746" y="407" on="0"/>
        <pt x="744" y="375" on="1"/>
        <pt x="744" y="353" on="0"/>
        <pt x="526" y="325" on="1"/>
        <pt x="506" y="322" on="0"/>
        <pt x="496" y="321" on="1"/>
        <pt x="446" y="156" on="0"/>
        <pt x="446" y="134" on="1"/>
        <pt x="446" y="98" on="0"/>
        <pt x="472" y="98" on="1"/>
        <pt x="560" y="98" on="0"/>
        <pt x="762" y="146" on="0"/>
        <pt x="771" y="146" on="1"/>
        <pt x="786" y="146" on="0"/>
        <pt x="786" y="128" on="1"/>
        <pt x="786" y="95" on="0"/>
        <pt x="567" y="21" on="0"/>
        <pt x="468" y="21" on="1"/>
        <pt x="417" y="21" on="0"/>
        <pt x="354" y="71" on="0"/>
        <pt x="354" y="106" on="1"/>
        <pt x="354" y="158" on="0"/>
        <pt x="400" y="309" on="1"/>
        <pt x="362" y="304" on="0"/>
        <pt x="217" y="280" on="0"/>
        <pt x="197" y="278" on="1"/>
        <pt x="116" y="79" on="0"/>
        <pt x="81" y="22" on="0"/>
        <pt x="72" y="21" on="1"/>
        <pt x="56" y="21" on="0"/>
        <pt x="25" y="55" on="0"/>
        <pt x="25" y="85" on="0"/>
        <pt x="60" y="170" on="0"/>
        <pt x="125" y="320" on="0"/>
        <pt x="157" y="404" on="0"/>
        <pt x="184" y="472" on="1"/>
        <pt x="235" y="606" on="0"/>
        <pt x="258" y="646" on="1"/>
        <pt x="279" y="681" on="0"/>
        <pt x="410" y="705" on="0"/>
        <pt x="658" y="705" on="0"/>
        <pt x="791" y="694" on="0"/>
        <pt x="833" y="677" on="0"/>
        <pt x="831" y="665" on="1"/>
        <pt x="829" y="648" on="0"/>
        <pt x="780" y="640" on="1"/>
        <pt x="739" y="633" on="0"/>
        <pt x="549" y="630" on="1"/>
        <pt x="556" y="616" on="0"/>
        <pt x="556" y="604" on="1"/>
        <pt x="556" y="534" on="0"/>
        <pt x="518" y="396" on="1"/>
        <pt x="622" y="407" on="0"/>
      </contour>
      <contour>
        <pt x="422" y="385" on="1"/>
        <pt x="466" y="536" on="0"/>
        <pt x="470" y="627" on="1"/>
        <pt x="358" y="621" on="0"/>
        <pt x="342" y="607" on="1"/>
        <pt x="314" y="574" on="0"/>
        <pt x="228" y="355" on="1"/>
        <pt x="314" y="372" on="0"/>
      </contour>
    </TTGlyph>
    <TTGlyph name="Aacute" xMin="43" yMin="16" xMax="562" yMax="962">
      <contour>
        <pt x="477" y="322" on="1"/>
        <pt x="499" y="16" on="0"/>
        <pt x="452" y="16" on="1"/>
        <pt x="435" y="16" on="0"/>
        <pt x="415" y="58" on="0"/>
        <pt x="409" y="110" on="1"/>
        <pt x="402" y="209" on="0"/>
        <pt x="394" y="300" on="1"/>
        <pt x="377" y="295" on="0"/>
        <pt x="344" y="286" on="1"/>
        <pt x="261" y="266" on="0"/>
        <pt x="201" y="247" on="1"/>
        <pt x="113" y="16" on="0"/>
        <pt x="95" y="16" on="1"/>
        <pt x="80" y="16" on="0"/>
        <pt x="43" y="55" on="0"/>
        <pt x="43" y="77" on="1"/>
        <pt x="43" y="87" on="0"/>
        <pt x="102" y="223" on="1"/>
        <pt x="82" y="224" on="0"/>
        <pt x="53" y="247" on="0"/>
        <pt x="53" y="287" on="0"/>
        <pt x="141" y="317" on="1"/>
        <pt x="156" y="351" on="0"/>
        <pt x="190" y="438" on="0"/>
        <pt x="272" y="636" on="0"/>
        <pt x="294" y="691" on="0"/>
        <pt x="349" y="730" on="0"/>
        <pt x="375" y="730" on="1"/>
        <pt x="405" y="730" on="0"/>
        <pt x="456" y="532" on="0"/>
        <pt x="471" y="389" on="1"/>
        <pt x="562" y="402" on="0"/>
        <pt x="562" y="367" on="1"/>
        <pt x="562" y="348" on="0"/>
      </contour>
      <contour>
        <pt x="238" y="345" on="1"/>
        <pt x="308" y="362" on="0"/>
        <pt x="387" y="377" on="1"/>
        <pt x="371" y="532" on="0"/>
        <pt x="352" y="631" on="1"/>
        <pt x="299" y="508" on="0"/>
      </contour>
      <contour>
        <pt x="552" y="938" on="0"/>
        <pt x="552" y="893" on="0"/>
        <pt x="538" y="884" on="1"/>
        <pt x="404" y="790" on="0"/>
        <pt x="398" y="788" on="1"/>
        <pt x="383" y="783" on="0"/>
        <pt x="377" y="784" on="0"/>
        <pt x="373" y="784" on="1"/>
        <pt x="367" y="785" on="0"/>
        <pt x="350" y="807" on="0"/>
        <pt x="361" y="841" on="0"/>
        <pt x="377" y="857" on="1"/>
        <pt x="486" y="962" on="1"/>
        <pt x="513" y="986" on="0"/>
        <pt x="537" y="957" on="1"/>
      </contour>
    </TTGlyph>
    <TTGlyph name="Abreve" xMin="43" yMin="16" xMax="562" yMax="952">
      <contour>
        <pt x="477" y="322" on="1"/>
        <pt x="499" y="16" on="0"/>
        <pt x="452" y="16" on="1"/>
        <pt x="435" y="16" on="0"/>
        <pt x="415" y="58" on="0"/>
        <pt x="409" y="110" on="1"/>
        <pt x="402" y="209" on="0"/>
        <pt x="394" y="300" on="1"/>
        <pt x="377" y="295" on="0"/>
        <pt x="344" y="286" on="1"/>
        <pt x="261" y="266" on="0"/>
        <pt x="201" y="247" on="1"/>
        <pt x="113" y="16" on="0"/>
        <pt x="95" y="16" on="1"/>
        <pt x="80" y="16" on="0"/>
        <pt x="43" y="55" on="0"/>
        <pt x="43" y="77" on="1"/>
        <pt x="43" y="87" on="0"/>
        <pt x="102" y="223" on="1"/>
        <pt x="82" y="224" on="0"/>
        <pt x="53" y="247" on="0"/>
        <pt x="53" y="287" on="0"/>
        <pt x="141" y="317" on="1"/>
        <pt x="156" y="351" on="0"/>
        <pt x="190" y="438" on="0"/>
        <pt x="272" y="636" on="0"/>
        <pt x="294" y="691" on="0"/>
        <pt x="349" y="730" on="0"/>
        <pt x="375" y="730" on="1"/>
        <pt x="405" y="730" on="0"/>
        <pt x="456" y="532" on="0"/>
        <pt x="471" y="389" on="1"/>
        <pt x="562" y="402" on="0"/>
        <pt x="562" y="367" on="1"/>
        <pt x="562" y="348" on="0"/>
      </contour>
      <contour>
        <pt x="238" y="345" on="1"/>
        <pt x="308" y="362" on="0"/>
        <pt x="387" y="377" on="1"/>
        <pt x="371" y="532" on="0"/>
        <pt x="352" y="631" on="1"/>
        <pt x="299" y="508" on="0"/>
      </contour>
      <contour>
        <pt x="552" y="861" on="0"/>
        <pt x="451" y="788" on="0"/>
        <pt x="350" y="788" on="0"/>
        <pt x="268" y="860" on="0"/>
        <pt x="268" y="897" on="1"/>
        <pt x="268" y="922" on="0"/>
        <pt x="297" y="952" on="0"/>
        <pt x="322" y="952" on="0"/>
        <pt x="338" y="922" on="0"/>
        <pt x="352" y="886" on="0"/>
        <pt x="386" y="856" on="0"/>
        <pt x="439" y="856" on="0"/>
        <pt x="483" y="886" on="0"/>
        <pt x="516" y="917" on="0"/>
        <pt x="529" y="917" on="1"/>
        <pt x="552" y="917" on="0"/>
        <pt x="552" y="894" on="1"/>
      </contour>
    </TTGlyph>
    <TTGlyph name="Acircumflex" xMin="43" yMin="16" xMax="562" yMax="961">
      <contour>
        <pt x="477" y="322" on="1"/>
        <pt x="499" y="16" on="0"/>
        <pt x="452" y="16" on="1"/>
        <pt x="435" y="16" on="0"/>
        <pt x="415" y="58" on="0"/>
        <pt x="409" y="110" on="1"/>
        <pt x="402" y="209" on="0"/>
        <pt x="394" y="300" on="1"/>
        <pt x="377" y="295" on="0"/>
        <pt x="344" y="286" on="1"/>
        <pt x="261" y="266" on="0"/>
        <pt x="201" y="247" on="1"/>
        <pt x="113" y="16" on="0"/>
        <pt x="95" y="16" on="1"/>
        <pt x="80" y="16" on="0"/>
        <pt x="43" y="55" on="0"/>
        <pt x="43" y="77" on="1"/>
        <pt x="43" y="87" on="0"/>
        <pt x="102" y="223" on="1"/>
        <pt x="82" y="224" on="0"/>
        <pt x="53" y="247" on="0"/>
        <pt x="53" y="287" on="0"/>
        <pt x="141" y="317" on="1"/>
        <pt x="156" y="351" on="0"/>
        <pt x="190" y="438" on="0"/>
        <pt x="272" y="636" on="0"/>
        <pt x="294" y="691" on="0"/>
        <pt x="349" y="730" on="0"/>
        <pt x="375" y="730" on="1"/>
        <pt x="405" y="730" on="0"/>
        <pt x="456" y="532" on="0"/>
        <pt x="471" y="389" on="1"/>
        <pt x="562" y="402" on="0"/>
        <pt x="562" y="367" on="1"/>
        <pt x="562" y="348" on="0"/>
      </contour>
      <contour>
        <pt x="238" y="345" on="1"/>
        <pt x="308" y="362" on="0"/>
        <pt x="387" y="377" on="1"/>
        <pt x="371" y="532" on="0"/>
        <pt x="352" y="631" on="1"/>
        <pt x="299" y="508" on="0"/>
      </contour>
      <contour>
        <pt x="304" y="822" on="0"/>
        <pt x="264" y="794" on="0"/>
        <pt x="237" y="794" on="0"/>
        <pt x="218" y="812" on="0"/>
        <pt x="218" y="830" on="1"/>
        <pt x="218" y="866" on="0"/>
        <pt x="287" y="905" on="1"/>
        <pt x="298" y="911" on="0"/>
        <pt x="330" y="931" on="0"/>
        <pt x="350" y="943" on="0"/>
        <pt x="362" y="949" on="1"/>
        <pt x="384" y="961" on="0"/>
        <pt x="404" y="961" on="0"/>
        <pt x="421" y="951" on="0"/>
        <pt x="431" y="939" on="0"/>
        <pt x="454" y="910" on="0"/>
        <pt x="466" y="896" on="0"/>
        <pt x="495" y="864" on="0"/>
        <pt x="507" y="849" on="0"/>
        <pt x="516" y="838" on="1"/>
        <pt x="532" y="817" on="0"/>
        <pt x="532" y="793" on="0"/>
        <pt x="517" y="781" on="0"/>
        <pt x="491" y="781" on="0"/>
        <pt x="445" y="819" on="0"/>
        <pt x="419" y="851" on="0"/>
        <pt x="393" y="884" on="1"/>
        <pt x="365" y="870" on="0"/>
      </contour>
    </TTGlyph>
    <TTGlyph name="Adieresis" xMin="43" yMin="16" xMax="562" yMax="925">
      <contour>
        <pt x="477" y="322" on="1"/>
        <pt x="499" y="16" on="0"/>
        <pt x="452" y="16" on="1"/>
        <pt x="435" y="16" on="0"/>
        <pt x="415" y="58" on="0"/>
        <pt x="409" y="110" on="1"/>
        <pt x="402" y="209" on="0"/>
        <pt x="394" y="300" on="1"/>
        <pt x="377" y="295" on="0"/>
        <pt x="344" y="286" on="1"/>
        <pt x="261" y="266" on="0"/>
        <pt x="201" y="247" on="1"/>
        <pt x="113" y="16" on="0"/>
        <pt x="95" y="16" on="1"/>
        <pt x="80" y="16" on="0"/>
        <pt x="43" y="55" on="0"/>
        <pt x="43" y="77" on="1"/>
        <pt x="43" y="87" on="0"/>
        <pt x="102" y="223" on="1"/>
        <pt x="82" y="224" on="0"/>
        <pt x="53" y="247" on="0"/>
        <pt x="53" y="287" on="0"/>
        <pt x="141" y="317" on="1"/>
        <pt x="156" y="351" on="0"/>
        <pt x="190" y="438" on="0"/>
        <pt x="272" y="636" on="0"/>
        <pt x="294" y="691" on="0"/>
        <pt x="349" y="730" on="0"/>
        <pt x="375" y="730" on="1"/>
        <pt x="405" y="730" on="0"/>
        <pt x="456" y="532" on="0"/>
        <pt x="471" y="389" on="1"/>
        <pt x="562" y="402" on="0"/>
        <pt x="562" y="367" on="1"/>
        <pt x="562" y="348" on="0"/>
      </contour>
      <contour>
        <pt x="238" y="345" on="1"/>
        <pt x="308" y="362" on="0"/>
        <pt x="387" y="377" on="1"/>
        <pt x="371" y="532" on="0"/>
        <pt x="352" y="631" on="1"/>
        <pt x="299" y="508" on="0"/>
      </contour>
      <contour>
        <pt x="333" y="799" on="1"/>
        <pt x="310" y="799" on="0"/>
        <pt x="257" y="852" on="0"/>
        <pt x="257" y="890" on="0"/>
        <pt x="286" y="925" on="0"/>
        <pt x="317" y="925" on="0"/>
        <pt x="359" y="847" on="0"/>
        <pt x="359" y="817" on="0"/>
        <pt x="342" y="799" on="0"/>
      </contour>
      <contour>
        <pt x="483" y="799" on="1"/>
        <pt x="461" y="799" on="0"/>
        <pt x="407" y="852" on="0"/>
        <pt x="407" y="890" on="0"/>
        <pt x="437" y="925" on="0"/>
        <pt x="468" y="925" on="0"/>
        <pt x="510" y="847" on="0"/>
        <pt x="510" y="816" on="0"/>
        <pt x="492" y="799" on="0"/>
      </contour>
    </TTGlyph>
    <TTGlyph name="Agrave" xMin="43" yMin="16" xMax="562" yMax="958">
      <contour>
        <pt x="477" y="322" on="1"/>
        <pt x="499" y="16" on="0"/>
        <pt x="452" y="16" on="1"/>
        <pt x="435" y="16" on="0"/>
        <pt x="415" y="58" on="0"/>
        <pt x="409" y="110" on="1"/>
        <pt x="402" y="209" on="0"/>
        <pt x="394" y="300" on="1"/>
        <pt x="377" y="295" on="0"/>
        <pt x="344" y="286" on="1"/>
        <pt x="261" y="266" on="0"/>
        <pt x="201" y="247" on="1"/>
        <pt x="113" y="16" on="0"/>
        <pt x="95" y="16" on="1"/>
        <pt x="80" y="16" on="0"/>
        <pt x="43" y="55" on="0"/>
        <pt x="43" y="77" on="1"/>
        <pt x="43" y="87" on="0"/>
        <pt x="102" y="223" on="1"/>
        <pt x="82" y="224" on="0"/>
        <pt x="53" y="247" on="0"/>
        <pt x="53" y="287" on="0"/>
        <pt x="141" y="317" on="1"/>
        <pt x="156" y="351" on="0"/>
        <pt x="190" y="438" on="0"/>
        <pt x="272" y="636" on="0"/>
        <pt x="294" y="691" on="0"/>
        <pt x="349" y="730" on="0"/>
        <pt x="375" y="730" on="1"/>
        <pt x="405" y="730" on="0"/>
        <pt x="456" y="532" on="0"/>
        <pt x="471" y="389" on="1"/>
        <pt x="562" y="402" on="0"/>
        <pt x="562" y="367" on="1"/>
        <pt x="562" y="348" on="0"/>
      </contour>
      <contour>
        <pt x="238" y="345" on="1"/>
        <pt x="308" y="362" on="0"/>
        <pt x="387" y="377" on="1"/>
        <pt x="371" y="532" on="0"/>
        <pt x="352" y="631" on="1"/>
        <pt x="299" y="508" on="0"/>
      </contour>
      <contour>
        <pt x="246" y="896" on="0"/>
        <pt x="246" y="937" on="0"/>
        <pt x="263" y="953" on="1"/>
        <pt x="291" y="984" on="0"/>
        <pt x="317" y="958" on="1"/>
        <pt x="418" y="851" on="1"/>
        <pt x="453" y="816" on="0"/>
        <pt x="432" y="793" on="1"/>
        <pt x="414" y="772" on="0"/>
        <pt x="386" y="795" on="1"/>
        <pt x="375" y="803" on="0"/>
        <pt x="260" y="887" on="1"/>
      </contour>
    </TTGlyph>
    <TTGlyph name="Amacron" xMin="43" yMin="16" xMax="562" yMax="875">
      <contour>
        <pt x="477" y="322" on="1"/>
        <pt x="499" y="16" on="0"/>
        <pt x="452" y="16" on="1"/>
        <pt x="435" y="16" on="0"/>
        <pt x="415" y="58" on="0"/>
        <pt x="409" y="110" on="1"/>
        <pt x="402" y="209" on="0"/>
        <pt x="394" y="300" on="1"/>
        <pt x="377" y="295" on="0"/>
        <pt x="344" y="286" on="1"/>
        <pt x="261" y="266" on="0"/>
        <pt x="201" y="247" on="1"/>
        <pt x="113" y="16" on="0"/>
        <pt x="95" y="16" on="1"/>
        <pt x="80" y="16" on="0"/>
        <pt x="43" y="55" on="0"/>
        <pt x="43" y="77" on="1"/>
        <pt x="43" y="87" on="0"/>
        <pt x="102" y="223" on="1"/>
        <pt x="82" y="224" on="0"/>
        <pt x="53" y="247" on="0"/>
        <pt x="53" y="287" on="0"/>
        <pt x="141" y="317" on="1"/>
        <pt x="156" y="351" on="0"/>
        <pt x="190" y="438" on="0"/>
        <pt x="272" y="636" on="0"/>
        <pt x="294" y="691" on="0"/>
        <pt x="349" y="730" on="0"/>
        <pt x="375" y="730" on="1"/>
        <pt x="405" y="730" on="0"/>
        <pt x="456" y="532" on="0"/>
        <pt x="471" y="389" on="1"/>
        <pt x="562" y="402" on="0"/>
        <pt x="562" y="367" on="1"/>
        <pt x="562" y="348" on="0"/>
      </contour>
      <contour>
        <pt x="238" y="345" on="1"/>
        <pt x="308" y="362" on="0"/>
        <pt x="387" y="377" on="1"/>
        <pt x="371" y="532" on="0"/>
        <pt x="352" y="631" on="1"/>
        <pt x="299" y="508" on="0"/>
      </contour>
      <contour>
        <pt x="255" y="799" on="1"/>
        <pt x="236" y="799" on="0"/>
        <pt x="201" y="833" on="0"/>
        <pt x="202" y="867" on="0"/>
        <pt x="346" y="877" on="0"/>
        <pt x="484" y="875" on="1"/>
        <pt x="547" y="874" on="0"/>
        <pt x="547" y="852" on="1"/>
        <pt x="546" y="838" on="0"/>
        <pt x="487" y="825" on="0"/>
        <pt x="258" y="799" on="0"/>
      </contour>
    </TTGlyph>
    <TTGlyph name="Aogonek" xMin="43" yMin="-182" xMax="562" yMax="730">
      <contour>
        <pt x="477" y="322" on="1"/>
        <pt x="494" y="90" on="0"/>
        <pt x="471" y="33" on="1"/>
        <pt x="476" y="7" on="0"/>
        <pt x="442" y="-20" on="1"/>
        <pt x="377" y="-71" on="0"/>
        <pt x="377" y="-97" on="1"/>
        <pt x="377" y="-115" on="0"/>
        <pt x="411" y="-115" on="1"/>
        <pt x="422" y="-115" on="0"/>
        <pt x="454" y="-105" on="0"/>
        <pt x="459" y="-105" on="1"/>
        <pt x="487" y="-100" on="0"/>
        <pt x="495" y="-128" on="1"/>
        <pt x="498" y="-140" on="0"/>
        <pt x="476" y="-164" on="0"/>
        <pt x="414" y="-182" on="0"/>
        <pt x="348" y="-182" on="0"/>
        <pt x="296" y="-144" on="0"/>
        <pt x="296" y="-79" on="0"/>
        <pt x="365" y="11" on="0"/>
        <pt x="408" y="44" on="1"/>
        <pt x="414" y="48" on="0"/>
        <pt x="420" y="50" on="1"/>
        <pt x="414" y="69" on="0"/>
        <pt x="409" y="110" on="1"/>
        <pt x="402" y="209" on="0"/>
        <pt x="394" y="300" on="1"/>
        <pt x="377" y="295" on="0"/>
        <pt x="344" y="286" on="1"/>
        <pt x="261" y="266" on="0"/>
        <pt x="201" y="247" on="1"/>
        <pt x="113" y="16" on="0"/>
        <pt x="95" y="16" on="1"/>
        <pt x="80" y="16" on="0"/>
        <pt x="43" y="55" on="0"/>
        <pt x="43" y="77" on="1"/>
        <pt x="43" y="87" on="0"/>
        <pt x="102" y="223" on="1"/>
        <pt x="82" y="224" on="0"/>
        <pt x="53" y="247" on="0"/>
        <pt x="53" y="287" on="0"/>
        <pt x="141" y="317" on="1"/>
        <pt x="156" y="351" on="0"/>
        <pt x="190" y="438" on="0"/>
        <pt x="272" y="636" on="0"/>
        <pt x="294" y="691" on="0"/>
        <pt x="349" y="730" on="0"/>
        <pt x="375" y="730" on="1"/>
        <pt x="405" y="730" on="0"/>
        <pt x="456" y="532" on="0"/>
        <pt x="471" y="389" on="1"/>
        <pt x="562" y="402" on="0"/>
        <pt x="562" y="367" on="1"/>
        <pt x="562" y="348" on="0"/>
      </contour>
      <contour>
        <pt x="238" y="345" on="1"/>
        <pt x="308" y="362" on="0"/>
        <pt x="387" y="377" on="1"/>
        <pt x="371" y="532" on="0"/>
        <pt x="352" y="631" on="1"/>
        <pt x="299" y="508" on="0"/>
      </contour>
    </TTGlyph>
    <TTGlyph name="Aring" xMin="43" yMin="16" xMax="562" yMax="967">
      <contour>
        <pt x="477" y="322" on="1"/>
        <pt x="499" y="16" on="0"/>
        <pt x="452" y="16" on="1"/>
        <pt x="435" y="16" on="0"/>
        <pt x="415" y="58" on="0"/>
        <pt x="409" y="110" on="1"/>
        <pt x="402" y="209" on="0"/>
        <pt x="394" y="300" on="1"/>
        <pt x="377" y="295" on="0"/>
        <pt x="344" y="286" on="1"/>
        <pt x="261" y="266" on="0"/>
        <pt x="201" y="247" on="1"/>
        <pt x="113" y="16" on="0"/>
        <pt x="95" y="16" on="1"/>
        <pt x="80" y="16" on="0"/>
        <pt x="43" y="55" on="0"/>
        <pt x="43" y="77" on="1"/>
        <pt x="43" y="87" on="0"/>
        <pt x="102" y="223" on="1"/>
        <pt x="82" y="224" on="0"/>
        <pt x="53" y="247" on="0"/>
        <pt x="53" y="287" on="0"/>
        <pt x="141" y="317" on="1"/>
        <pt x="156" y="351" on="0"/>
        <pt x="190" y="438" on="0"/>
        <pt x="272" y="636" on="0"/>
        <pt x="294" y="691" on="0"/>
        <pt x="349" y="730" on="0"/>
        <pt x="375" y="730" on="1"/>
        <pt x="405" y="730" on="0"/>
        <pt x="456" y="532" on="0"/>
        <pt x="471" y="389" on="1"/>
        <pt x="562" y="402" on="0"/>
        <pt x="562" y="367" on="1"/>
        <pt x="562" y="348" on="0"/>
      </contour>
      <contour>
        <pt x="238" y="345" on="1"/>
        <pt x="308" y="362" on="0"/>
        <pt x="387" y="377" on="1"/>
        <pt x="371" y="532" on="0"/>
        <pt x="352" y="631" on="1"/>
        <pt x="299" y="508" on="0"/>
      </contour>
      <contour>
        <pt x="481" y="829" on="0"/>
        <pt x="424" y="772" on="0"/>
        <pt x="351" y="772" on="0"/>
        <pt x="305" y="829" on="0"/>
        <pt x="315" y="910" on="0"/>
        <pt x="372" y="967" on="0"/>
        <pt x="445" y="967" on="0"/>
        <pt x="491" y="910" on="0"/>
      </contour>
      <contour>
        <pt x="381" y="825" on="0"/>
        <pt x="407" y="825" on="0"/>
        <pt x="426" y="850" on="0"/>
        <pt x="430" y="885" on="0"/>
        <pt x="414" y="911" on="0"/>
        <pt x="390" y="911" on="0"/>
        <pt x="369" y="885" on="0"/>
        <pt x="366" y="850" on="0"/>
      </contour>
    </TTGlyph>
    <TTGlyph name="Atilde" xMin="43" yMin="16" xMax="562" yMax="935">
      <contour>
        <pt x="477" y="322" on="1"/>
        <pt x="499" y="16" on="0"/>
        <pt x="452" y="16" on="1"/>
        <pt x="435" y="16" on="0"/>
        <pt x="415" y="58" on="0"/>
        <pt x="409" y="110" on="1"/>
        <pt x="402" y="209" on="0"/>
        <pt x="394" y="300" on="1"/>
        <pt x="377" y="295" on="0"/>
        <pt x="344" y="286" on="1"/>
        <pt x="261" y="266" on="0"/>
        <pt x="201" y="247" on="1"/>
        <pt x="113" y="16" on="0"/>
        <pt x="95" y="16" on="1"/>
        <pt x="80" y="16" on="0"/>
        <pt x="43" y="55" on="0"/>
        <pt x="43" y="77" on="1"/>
        <pt x="43" y="87" on="0"/>
        <pt x="102" y="223" on="1"/>
        <pt x="82" y="224" on="0"/>
        <pt x="53" y="247" on="0"/>
        <pt x="53" y="287" on="0"/>
        <pt x="141" y="317" on="1"/>
        <pt x="156" y="351" on="0"/>
        <pt x="190" y="438" on="0"/>
        <pt x="272" y="636" on="0"/>
        <pt x="294" y="691" on="0"/>
        <pt x="349" y="730" on="0"/>
        <pt x="375" y="730" on="1"/>
        <pt x="405" y="730" on="0"/>
        <pt x="456" y="532" on="0"/>
        <pt x="471" y="389" on="1"/>
        <pt x="562" y="402" on="0"/>
        <pt x="562" y="367" on="1"/>
        <pt x="562" y="348" on="0"/>
      </contour>
      <contour>
        <pt x="238" y="345" on="1"/>
        <pt x="308" y="362" on="0"/>
        <pt x="387" y="377" on="1"/>
        <pt x="371" y="532" on="0"/>
        <pt x="352" y="631" on="1"/>
        <pt x="299" y="508" on="0"/>
      </contour>
      <contour>
        <pt x="269" y="787" on="0"/>
        <pt x="239" y="787" on="0"/>
        <pt x="221" y="803" on="0"/>
        <pt x="221" y="817" on="1"/>
        <pt x="222" y="855" on="0"/>
        <pt x="299" y="935" on="0"/>
        <pt x="339" y="935" on="1"/>
        <pt x="363" y="935" on="0"/>
        <pt x="400" y="911" on="0"/>
        <pt x="409" y="896" on="1"/>
        <pt x="434" y="856" on="0"/>
        <pt x="452" y="853" on="1"/>
        <pt x="469" y="856" on="0"/>
        <pt x="512" y="923" on="0"/>
        <pt x="531" y="923" on="1"/>
        <pt x="558" y="923" on="0"/>
        <pt x="555" y="853" on="0"/>
        <pt x="492" y="780" on="0"/>
        <pt x="455" y="780" on="1"/>
        <pt x="401" y="780" on="0"/>
        <pt x="343" y="868" on="1"/>
        <pt x="324" y="859" on="0"/>
        <pt x="293" y="817" on="0"/>
      </contour>
    </TTGlyph>
    <TTGlyph name="B" xMin="6" yMin="17" xMax="575" yMax="715">
      <contour>
        <pt x="198" y="614" on="1"/>
        <pt x="190" y="614" on="1"/>
        <pt x="172" y="614" on="0"/>
        <pt x="134" y="659" on="0"/>
        <pt x="134" y="673" on="1"/>
        <pt x="134" y="690" on="0"/>
        <pt x="219" y="715" on="0"/>
        <pt x="279" y="715" on="1"/>
        <pt x="419" y="715" on="0"/>
        <pt x="571" y="639" on="0"/>
        <pt x="571" y="567" on="1"/>
        <pt x="571" y="508" on="0"/>
        <pt x="472" y="411" on="0"/>
        <pt x="377" y="381" on="1"/>
        <pt x="467" y="375" on="0"/>
        <pt x="575" y="300" on="0"/>
        <pt x="575" y="254" on="1"/>
        <pt x="575" y="195" on="0"/>
        <pt x="453" y="84" on="0"/>
        <pt x="259" y="17" on="0"/>
        <pt x="158" y="17" on="1"/>
        <pt x="99" y="17" on="0"/>
        <pt x="6" y="83" on="0"/>
        <pt x="6" y="140" on="0"/>
        <pt x="23" y="140" on="1"/>
        <pt x="29" y="140" on="0"/>
        <pt x="44" y="129" on="1"/>
        <pt x="91" y="96" on="0"/>
        <pt x="141" y="96" on="1"/>
        <pt x="144" y="96" on="1"/>
        <pt x="128" y="104" on="0"/>
        <pt x="99" y="141" on="0"/>
        <pt x="98" y="175" on="0"/>
        <pt x="123" y="255" on="1"/>
        <pt x="198" y="495" on="0"/>
      </contour>
      <contour>
        <pt x="481" y="593" on="0"/>
        <pt x="414" y="631" on="0"/>
        <pt x="328" y="631" on="0"/>
        <pt x="251" y="620" on="1"/>
        <pt x="279" y="588" on="0"/>
        <pt x="279" y="535" on="0"/>
        <pt x="244" y="398" on="1"/>
        <pt x="252" y="403" on="0"/>
        <pt x="311" y="428" on="1"/>
        <pt x="431" y="470" on="0"/>
        <pt x="466" y="517" on="1"/>
        <pt x="481" y="538" on="0"/>
      </contour>
      <contour>
        <pt x="488" y="258" on="1"/>
        <pt x="488" y="288" on="0"/>
        <pt x="349" y="329" on="0"/>
        <pt x="280" y="329" on="1"/>
        <pt x="253" y="329" on="0"/>
        <pt x="234" y="357" on="1"/>
        <pt x="233" y="351" on="0"/>
        <pt x="166" y="104" on="0"/>
        <pt x="160" y="96" on="1"/>
        <pt x="271" y="102" on="0"/>
        <pt x="488" y="203" on="0"/>
      </contour>
    </TTGlyph>
    <TTGlyph name="C" xMin="65" yMin="21" xMax="551" yMax="718">
      <contour>
        <pt x="496" y="718" on="0"/>
        <pt x="551" y="652" on="0"/>
        <pt x="551" y="609" on="0"/>
        <pt x="536" y="609" on="0"/>
        <pt x="494" y="624" on="0"/>
        <pt x="477" y="624" on="1"/>
        <pt x="438" y="624" on="0"/>
        <pt x="327" y="544" on="0"/>
        <pt x="228" y="426" on="0"/>
        <pt x="158" y="275" on="0"/>
        <pt x="158" y="165" on="0"/>
        <pt x="215" y="114" on="0"/>
        <pt x="307" y="114" on="0"/>
        <pt x="405" y="141" on="0"/>
        <pt x="436" y="158" on="1"/>
        <pt x="516" y="201" on="0"/>
        <pt x="524" y="201" on="1"/>
        <pt x="541" y="201" on="0"/>
        <pt x="541" y="156" on="0"/>
        <pt x="449" y="81" on="0"/>
        <pt x="313" y="21" on="0"/>
        <pt x="259" y="21" on="1"/>
        <pt x="189" y="21" on="0"/>
        <pt x="65" y="142" on="0"/>
        <pt x="65" y="215" on="1"/>
        <pt x="65" y="309" on="0"/>
        <pt x="188" y="546" on="0"/>
        <pt x="381" y="718" on="0"/>
        <pt x="470" y="718" on="1"/>
      </contour>
    </TTGlyph>
    <TTGlyph name="Cacute" xMin="66" yMin="21" xMax="681" yMax="962">
      <contour>
        <pt x="497" y="718" on="0"/>
        <pt x="552" y="652" on="0"/>
        <pt x="552" y="609" on="0"/>
        <pt x="537" y="609" on="0"/>
        <pt x="495" y="624" on="0"/>
        <pt x="478" y="624" on="1"/>
        <pt x="439" y="624" on="0"/>
        <pt x="328" y="544" on="0"/>
        <pt x="229" y="426" on="0"/>
        <pt x="159" y="275" on="0"/>
        <pt x="159" y="165" on="0"/>
        <pt x="216" y="114" on="0"/>
        <pt x="308" y="114" on="0"/>
        <pt x="406" y="141" on="0"/>
        <pt x="436" y="158" on="1"/>
        <pt x="517" y="201" on="0"/>
        <pt x="525" y="201" on="1"/>
        <pt x="542" y="201" on="0"/>
        <pt x="542" y="156" on="0"/>
        <pt x="450" y="81" on="0"/>
        <pt x="314" y="21" on="0"/>
        <pt x="260" y="21" on="1"/>
        <pt x="190" y="21" on="0"/>
        <pt x="66" y="142" on="0"/>
        <pt x="66" y="215" on="1"/>
        <pt x="66" y="309" on="0"/>
        <pt x="189" y="546" on="0"/>
        <pt x="382" y="718" on="0"/>
        <pt x="471" y="718" on="1"/>
      </contour>
      <contour>
        <pt x="681" y="938" on="0"/>
        <pt x="681" y="893" on="0"/>
        <pt x="667" y="884" on="1"/>
        <pt x="533" y="790" on="0"/>
        <pt x="527" y="788" on="1"/>
        <pt x="512" y="783" on="0"/>
        <pt x="506" y="784" on="0"/>
        <pt x="502" y="784" on="1"/>
        <pt x="496" y="785" on="0"/>
        <pt x="479" y="807" on="0"/>
        <pt x="490" y="841" on="0"/>
        <pt x="506" y="857" on="1"/>
        <pt x="615" y="962" on="1"/>
        <pt x="642" y="986" on="0"/>
        <pt x="666" y="957" on="1"/>
      </contour>
    </TTGlyph>
    <TTGlyph name="Ccaron" xMin="66" yMin="21" xMax="676" yMax="977">
      <contour>
        <pt x="497" y="718" on="0"/>
        <pt x="552" y="652" on="0"/>
        <pt x="552" y="609" on="0"/>
        <pt x="537" y="609" on="0"/>
        <pt x="495" y="624" on="0"/>
        <pt x="478" y="624" on="1"/>
        <pt x="439" y="624" on="0"/>
        <pt x="328" y="544" on="0"/>
        <pt x="229" y="426" on="0"/>
        <pt x="159" y="275" on="0"/>
        <pt x="159" y="165" on="0"/>
        <pt x="216" y="114" on="0"/>
        <pt x="308" y="114" on="0"/>
        <pt x="406" y="141" on="0"/>
        <pt x="436" y="158" on="1"/>
        <pt x="517" y="201" on="0"/>
        <pt x="525" y="201" on="1"/>
        <pt x="542" y="201" on="0"/>
        <pt x="542" y="156" on="0"/>
        <pt x="450" y="81" on="0"/>
        <pt x="314" y="21" on="0"/>
        <pt x="260" y="21" on="1"/>
        <pt x="190" y="21" on="0"/>
        <pt x="66" y="142" on="0"/>
        <pt x="66" y="215" on="1"/>
        <pt x="66" y="309" on="0"/>
        <pt x="189" y="546" on="0"/>
        <pt x="382" y="718" on="0"/>
        <pt x="471" y="718" on="1"/>
      </contour>
      <contour>
        <pt x="647" y="943" on="1"/>
        <pt x="676" y="943" on="0"/>
        <pt x="676" y="917" on="1"/>
        <pt x="676" y="903" on="0"/>
        <pt x="653" y="880" on="0"/>
        <pt x="595" y="844" on="0"/>
        <pt x="571" y="826" on="0"/>
        <pt x="531" y="791" on="0"/>
        <pt x="507" y="774" on="0"/>
        <pt x="497" y="774" on="1"/>
        <pt x="477" y="774" on="0"/>
        <pt x="347" y="903" on="0"/>
        <pt x="347" y="940" on="1"/>
        <pt x="347" y="956" on="0"/>
        <pt x="365" y="977" on="0"/>
        <pt x="393" y="977" on="0"/>
        <pt x="422" y="943" on="0"/>
        <pt x="472" y="878" on="0"/>
        <pt x="504" y="853" on="1"/>
        <pt x="554" y="899" on="0"/>
        <pt x="631" y="943" on="0"/>
      </contour>
    </TTGlyph>
    <TTGlyph name="Ccedilla" xMin="66" yMin="-187" xMax="552" yMax="718">
      <contour>
        <pt x="471" y="718" on="1"/>
        <pt x="497" y="718" on="0"/>
        <pt x="552" y="652" on="0"/>
        <pt x="552" y="609" on="0"/>
        <pt x="537" y="609" on="0"/>
        <pt x="495" y="624" on="0"/>
        <pt x="478" y="624" on="1"/>
        <pt x="439" y="624" on="0"/>
        <pt x="328" y="544" on="0"/>
        <pt x="229" y="426" on="0"/>
        <pt x="159" y="275" on="0"/>
        <pt x="159" y="165" on="0"/>
        <pt x="216" y="114" on="0"/>
        <pt x="308" y="114" on="0"/>
        <pt x="406" y="141" on="0"/>
        <pt x="436" y="158" on="1"/>
        <pt x="517" y="201" on="0"/>
        <pt x="525" y="201" on="1"/>
        <pt x="542" y="201" on="0"/>
        <pt x="542" y="157" on="0"/>
        <pt x="454" y="83" on="0"/>
        <pt x="321" y="23" on="0"/>
        <pt x="267" y="21" on="1"/>
        <pt x="255" y="-9" on="0"/>
        <pt x="240" y="-34" on="1"/>
        <pt x="279" y="-34" on="0"/>
        <pt x="336" y="-71" on="0"/>
        <pt x="337" y="-90" on="1"/>
        <pt x="337" y="-125" on="0"/>
        <pt x="240" y="-183" on="0"/>
        <pt x="164" y="-187" on="1"/>
        <pt x="107" y="-189" on="0"/>
        <pt x="105" y="-164" on="1"/>
        <pt x="105" y="-152" on="0"/>
        <pt x="161" y="-139" on="0"/>
        <pt x="234" y="-121" on="0"/>
        <pt x="249" y="-104" on="1"/>
        <pt x="242" y="-93" on="0"/>
        <pt x="180" y="-79" on="0"/>
        <pt x="169" y="-69" on="1"/>
        <pt x="164" y="-63" on="0"/>
        <pt x="172" y="-37" on="0"/>
        <pt x="198" y="17" on="0"/>
        <pt x="204" y="32" on="1"/>
        <pt x="148" y="54" on="0"/>
        <pt x="66" y="158" on="0"/>
        <pt x="66" y="215" on="1"/>
        <pt x="66" y="309" on="0"/>
        <pt x="189" y="546" on="0"/>
        <pt x="382" y="718" on="0"/>
      </contour>
    </TTGlyph>
    <TTGlyph name="D" xMin="80" yMin="14" xMax="612" yMax="721">
      <contour>
        <pt x="151" y="721" on="1"/>
        <pt x="245" y="721" on="0"/>
        <pt x="458" y="623" on="0"/>
        <pt x="612" y="450" on="0"/>
        <pt x="612" y="357" on="1"/>
        <pt x="612" y="296" on="0"/>
        <pt x="443" y="131" on="0"/>
        <pt x="221" y="14" on="0"/>
        <pt x="148" y="14" on="1"/>
        <pt x="129" y="14" on="0"/>
        <pt x="80" y="79" on="0"/>
        <pt x="80" y="145" on="0"/>
        <pt x="194" y="552" on="0"/>
        <pt x="200" y="628" on="1"/>
        <pt x="170" y="641" on="0"/>
        <pt x="131" y="684" on="0"/>
        <pt x="131" y="701" on="1"/>
        <pt x="131" y="721" on="0"/>
      </contour>
      <contour>
        <pt x="520" y="368" on="1"/>
        <pt x="520" y="430" on="0"/>
        <pt x="367" y="579" on="0"/>
        <pt x="273" y="608" on="1"/>
        <pt x="279" y="592" on="0"/>
        <pt x="279" y="540" on="0"/>
        <pt x="244" y="406" on="0"/>
        <pt x="198" y="249" on="1"/>
        <pt x="179" y="183" on="0"/>
        <pt x="167" y="104" on="1"/>
        <pt x="236" y="113" on="0"/>
        <pt x="407" y="216" on="0"/>
        <pt x="520" y="334" on="0"/>
      </contour>
    </TTGlyph>
    <TTGlyph name="Dcaron" xMin="80" yMin="14" xMax="633" yMax="924">
      <contour>
        <pt x="604" y="890" on="1"/>
        <pt x="633" y="890" on="0"/>
        <pt x="633" y="864" on="1"/>
        <pt x="633" y="850" on="0"/>
        <pt x="610" y="827" on="0"/>
        <pt x="552" y="791" on="0"/>
        <pt x="528" y="773" on="0"/>
        <pt x="488" y="738" on="0"/>
        <pt x="464" y="721" on="0"/>
        <pt x="454" y="721" on="1"/>
        <pt x="434" y="721" on="0"/>
        <pt x="304" y="850" on="0"/>
        <pt x="304" y="887" on="1"/>
        <pt x="304" y="903" on="0"/>
        <pt x="322" y="924" on="0"/>
        <pt x="350" y="924" on="0"/>
        <pt x="379" y="890" on="0"/>
        <pt x="429" y="825" on="0"/>
        <pt x="461" y="800" on="1"/>
        <pt x="511" y="846" on="0"/>
        <pt x="588" y="890" on="0"/>
      </contour>
      <contour>
        <pt x="151" y="721" on="1"/>
        <pt x="245" y="721" on="0"/>
        <pt x="458" y="623" on="0"/>
        <pt x="612" y="450" on="0"/>
        <pt x="612" y="357" on="1"/>
        <pt x="612" y="296" on="0"/>
        <pt x="443" y="131" on="0"/>
        <pt x="221" y="14" on="0"/>
        <pt x="148" y="14" on="1"/>
        <pt x="129" y="14" on="0"/>
        <pt x="80" y="79" on="0"/>
        <pt x="80" y="145" on="0"/>
        <pt x="194" y="552" on="0"/>
        <pt x="200" y="628" on="1"/>
        <pt x="170" y="641" on="0"/>
        <pt x="131" y="684" on="0"/>
        <pt x="131" y="701" on="1"/>
        <pt x="131" y="721" on="0"/>
      </contour>
      <contour>
        <pt x="520" y="368" on="1"/>
        <pt x="520" y="430" on="0"/>
        <pt x="367" y="579" on="0"/>
        <pt x="273" y="608" on="1"/>
        <pt x="279" y="592" on="0"/>
        <pt x="279" y="540" on="0"/>
        <pt x="244" y="406" on="0"/>
        <pt x="198" y="249" on="1"/>
        <pt x="179" y="183" on="0"/>
        <pt x="167" y="104" on="1"/>
        <pt x="236" y="113" on="0"/>
        <pt x="407" y="216" on="0"/>
        <pt x="520" y="334" on="0"/>
      </contour>
    </TTGlyph>
    <TTGlyph name="Dcroat" xMin="9" yMin="14" xMax="615" yMax="721">
      <contour>
        <pt x="154" y="721" on="1"/>
        <pt x="248" y="721" on="0"/>
        <pt x="461" y="623" on="0"/>
        <pt x="615" y="450" on="0"/>
        <pt x="615" y="357" on="1"/>
        <pt x="615" y="296" on="0"/>
        <pt x="446" y="131" on="0"/>
        <pt x="224" y="14" on="0"/>
        <pt x="151" y="14" on="1"/>
        <pt x="132" y="14" on="0"/>
        <pt x="83" y="79" on="0"/>
        <pt x="83" y="143" on="0"/>
        <pt x="119" y="274" on="1"/>
        <pt x="84" y="269" on="1"/>
        <pt x="52" y="265" on="0"/>
        <pt x="12" y="284" on="0"/>
        <pt x="7" y="317" on="0"/>
        <pt x="31" y="342" on="0"/>
        <pt x="98" y="350" on="0"/>
        <pt x="142" y="355" on="1"/>
        <pt x="198" y="551" on="0"/>
        <pt x="203" y="628" on="1"/>
        <pt x="173" y="641" on="0"/>
        <pt x="134" y="684" on="0"/>
        <pt x="134" y="701" on="1"/>
        <pt x="134" y="721" on="0"/>
      </contour>
      <contour>
        <pt x="523" y="368" on="1"/>
        <pt x="523" y="430" on="0"/>
        <pt x="370" y="579" on="0"/>
        <pt x="276" y="608" on="1"/>
        <pt x="282" y="592" on="0"/>
        <pt x="282" y="573" on="1"/>
        <pt x="282" y="526" on="0"/>
        <pt x="235" y="367" on="1"/>
        <pt x="252" y="369" on="1"/>
        <pt x="294" y="375" on="0"/>
        <pt x="355" y="353" on="0"/>
        <pt x="358" y="333" on="1"/>
        <pt x="360" y="320" on="0"/>
        <pt x="336" y="302" on="0"/>
        <pt x="264" y="293" on="0"/>
        <pt x="212" y="286" on="1"/>
        <pt x="183" y="187" on="0"/>
        <pt x="170" y="104" on="1"/>
        <pt x="239" y="113" on="0"/>
        <pt x="410" y="216" on="0"/>
        <pt x="523" y="334" on="0"/>
      </contour>
    </TTGlyph>
    <TTGlyph name="E" xMin="63" yMin="15" xMax="605" yMax="710">
      <contour>
        <pt x="208" y="333" on="1"/>
        <pt x="154" y="162" on="0"/>
        <pt x="154" y="126" on="1"/>
        <pt x="154" y="114" on="0"/>
        <pt x="169" y="99" on="0"/>
        <pt x="181" y="99" on="1"/>
        <pt x="296" y="99" on="0"/>
        <pt x="435" y="136" on="1"/>
        <pt x="480" y="148" on="0"/>
        <pt x="487" y="148" on="1"/>
        <pt x="502" y="148" on="0"/>
        <pt x="502" y="127" on="1"/>
        <pt x="502" y="91" on="0"/>
        <pt x="281" y="15" on="0"/>
        <pt x="178" y="15" on="1"/>
        <pt x="132" y="15" on="0"/>
        <pt x="63" y="69" on="0"/>
        <pt x="63" y="151" on="0"/>
        <pt x="122" y="349" on="0"/>
        <pt x="182" y="573" on="0"/>
        <pt x="182" y="650" on="1"/>
        <pt x="182" y="664" on="0"/>
        <pt x="186" y="671" on="1"/>
        <pt x="193" y="691" on="0"/>
        <pt x="290" y="710" on="0"/>
        <pt x="404" y="710" on="1"/>
        <pt x="605" y="710" on="0"/>
        <pt x="605" y="681" on="1"/>
        <pt x="605" y="661" on="0"/>
        <pt x="562" y="654" on="1"/>
        <pt x="526" y="647" on="0"/>
        <pt x="407" y="636" on="0"/>
        <pt x="359" y="631" on="0"/>
        <pt x="267" y="615" on="1"/>
        <pt x="267" y="612" on="1"/>
        <pt x="267" y="544" on="0"/>
        <pt x="230" y="407" on="1"/>
        <pt x="260" y="403" on="0"/>
        <pt x="433" y="416" on="0"/>
        <pt x="446" y="416" on="1"/>
        <pt x="480" y="416" on="0"/>
        <pt x="480" y="402" on="1"/>
        <pt x="480" y="367" on="0"/>
        <pt x="326" y="333" on="0"/>
      </contour>
    </TTGlyph>
    <TTGlyph name="Eacute" xMin="63" yMin="15" xMax="605" yMax="962">
      <contour>
        <pt x="208" y="333" on="1"/>
        <pt x="154" y="162" on="0"/>
        <pt x="154" y="126" on="1"/>
        <pt x="154" y="114" on="0"/>
        <pt x="169" y="99" on="0"/>
        <pt x="181" y="99" on="1"/>
        <pt x="296" y="99" on="0"/>
        <pt x="435" y="136" on="1"/>
        <pt x="480" y="148" on="0"/>
        <pt x="487" y="148" on="1"/>
        <pt x="502" y="148" on="0"/>
        <pt x="502" y="127" on="1"/>
        <pt x="502" y="91" on="0"/>
        <pt x="281" y="15" on="0"/>
        <pt x="178" y="15" on="1"/>
        <pt x="132" y="15" on="0"/>
        <pt x="63" y="69" on="0"/>
        <pt x="63" y="151" on="0"/>
        <pt x="122" y="349" on="0"/>
        <pt x="182" y="573" on="0"/>
        <pt x="182" y="650" on="1"/>
        <pt x="182" y="664" on="0"/>
        <pt x="186" y="671" on="1"/>
        <pt x="193" y="691" on="0"/>
        <pt x="290" y="710" on="0"/>
        <pt x="404" y="710" on="1"/>
        <pt x="605" y="710" on="0"/>
        <pt x="605" y="681" on="1"/>
        <pt x="605" y="661" on="0"/>
        <pt x="562" y="654" on="1"/>
        <pt x="526" y="647" on="0"/>
        <pt x="407" y="636" on="0"/>
        <pt x="359" y="631" on="0"/>
        <pt x="267" y="615" on="1"/>
        <pt x="267" y="612" on="1"/>
        <pt x="267" y="544" on="0"/>
        <pt x="230" y="407" on="1"/>
        <pt x="260" y="403" on="0"/>
        <pt x="433" y="416" on="0"/>
        <pt x="446" y="416" on="1"/>
        <pt x="480" y="416" on="0"/>
        <pt x="480" y="402" on="1"/>
        <pt x="480" y="367" on="0"/>
        <pt x="326" y="333" on="0"/>
      </contour>
      <contour>
        <pt x="590" y="938" on="0"/>
        <pt x="590" y="893" on="0"/>
        <pt x="576" y="884" on="1"/>
        <pt x="442" y="790" on="0"/>
        <pt x="430" y="786" on="0"/>
        <pt x="421" y="783" on="0"/>
        <pt x="415" y="784" on="0"/>
        <pt x="411" y="784" on="1"/>
        <pt x="405" y="785" on="0"/>
        <pt x="388" y="807" on="0"/>
        <pt x="399" y="841" on="0"/>
        <pt x="415" y="857" on="1"/>
        <pt x="524" y="962" on="1"/>
        <pt x="551" y="986" on="0"/>
        <pt x="575" y="957" on="1"/>
      </contour>
    </TTGlyph>
    <TTGlyph name="Ecaron" xMin="63" yMin="15" xMax="605" yMax="977">
      <contour>
        <pt x="208" y="333" on="1"/>
        <pt x="154" y="162" on="0"/>
        <pt x="154" y="126" on="1"/>
        <pt x="154" y="114" on="0"/>
        <pt x="169" y="99" on="0"/>
        <pt x="181" y="99" on="1"/>
        <pt x="296" y="99" on="0"/>
        <pt x="435" y="136" on="1"/>
        <pt x="480" y="148" on="0"/>
        <pt x="487" y="148" on="1"/>
        <pt x="502" y="148" on="0"/>
        <pt x="502" y="127" on="1"/>
        <pt x="502" y="91" on="0"/>
        <pt x="281" y="15" on="0"/>
        <pt x="178" y="15" on="1"/>
        <pt x="132" y="15" on="0"/>
        <pt x="63" y="69" on="0"/>
        <pt x="63" y="151" on="0"/>
        <pt x="122" y="349" on="0"/>
        <pt x="182" y="573" on="0"/>
        <pt x="182" y="650" on="1"/>
        <pt x="182" y="664" on="0"/>
        <pt x="186" y="671" on="1"/>
        <pt x="193" y="691" on="0"/>
        <pt x="290" y="710" on="0"/>
        <pt x="404" y="710" on="1"/>
        <pt x="605" y="710" on="0"/>
        <pt x="605" y="681" on="1"/>
        <pt x="605" y="661" on="0"/>
        <pt x="562" y="654" on="1"/>
        <pt x="526" y="647" on="0"/>
        <pt x="407" y="636" on="0"/>
        <pt x="359" y="631" on="0"/>
        <pt x="267" y="615" on="1"/>
        <pt x="267" y="612" on="1"/>
        <pt x="267" y="544" on="0"/>
        <pt x="230" y="407" on="1"/>
        <pt x="260" y="403" on="0"/>
        <pt x="433" y="416" on="0"/>
        <pt x="446" y="416" on="1"/>
        <pt x="480" y="416" on="0"/>
        <pt x="480" y="402" on="1"/>
        <pt x="480" y="367" on="0"/>
        <pt x="326" y="333" on="0"/>
      </contour>
      <contour>
        <pt x="406" y="774" on="1"/>
        <pt x="386" y="774" on="0"/>
        <pt x="256" y="903" on="0"/>
        <pt x="256" y="940" on="1"/>
        <pt x="256" y="956" on="0"/>
        <pt x="274" y="977" on="0"/>
        <pt x="302" y="977" on="0"/>
        <pt x="331" y="943" on="0"/>
        <pt x="381" y="878" on="0"/>
        <pt x="413" y="853" on="1"/>
        <pt x="463" y="899" on="0"/>
        <pt x="540" y="943" on="0"/>
        <pt x="556" y="943" on="1"/>
        <pt x="585" y="943" on="0"/>
        <pt x="585" y="917" on="1"/>
        <pt x="585" y="903" on="0"/>
        <pt x="562" y="880" on="0"/>
        <pt x="504" y="844" on="0"/>
        <pt x="480" y="826" on="0"/>
        <pt x="440" y="791" on="0"/>
        <pt x="416" y="774" on="0"/>
      </contour>
    </TTGlyph>
    <TTGlyph name="Ecircumflex" xMin="63" yMin="15" xMax="605" yMax="961">
      <contour>
        <pt x="208" y="333" on="1"/>
        <pt x="154" y="162" on="0"/>
        <pt x="154" y="126" on="1"/>
        <pt x="154" y="114" on="0"/>
        <pt x="169" y="99" on="0"/>
        <pt x="181" y="99" on="1"/>
        <pt x="296" y="99" on="0"/>
        <pt x="435" y="136" on="1"/>
        <pt x="480" y="148" on="0"/>
        <pt x="487" y="148" on="1"/>
        <pt x="502" y="148" on="0"/>
        <pt x="502" y="127" on="1"/>
        <pt x="502" y="91" on="0"/>
        <pt x="281" y="15" on="0"/>
        <pt x="178" y="15" on="1"/>
        <pt x="132" y="15" on="0"/>
        <pt x="63" y="69" on="0"/>
        <pt x="63" y="151" on="0"/>
        <pt x="122" y="349" on="0"/>
        <pt x="182" y="573" on="0"/>
        <pt x="182" y="650" on="1"/>
        <pt x="182" y="664" on="0"/>
        <pt x="186" y="671" on="1"/>
        <pt x="193" y="691" on="0"/>
        <pt x="290" y="710" on="0"/>
        <pt x="404" y="710" on="1"/>
        <pt x="605" y="710" on="0"/>
        <pt x="605" y="681" on="1"/>
        <pt x="605" y="661" on="0"/>
        <pt x="562" y="654" on="1"/>
        <pt x="526" y="647" on="0"/>
        <pt x="407" y="636" on="0"/>
        <pt x="359" y="631" on="0"/>
        <pt x="267" y="615" on="1"/>
        <pt x="267" y="612" on="1"/>
        <pt x="267" y="544" on="0"/>
        <pt x="230" y="407" on="1"/>
        <pt x="260" y="403" on="0"/>
        <pt x="433" y="416" on="0"/>
        <pt x="446" y="416" on="1"/>
        <pt x="480" y="416" on="0"/>
        <pt x="480" y="402" on="1"/>
        <pt x="480" y="367" on="0"/>
        <pt x="326" y="333" on="0"/>
      </contour>
      <contour>
        <pt x="342" y="822" on="0"/>
        <pt x="302" y="794" on="0"/>
        <pt x="275" y="794" on="0"/>
        <pt x="256" y="812" on="0"/>
        <pt x="256" y="830" on="1"/>
        <pt x="256" y="866" on="0"/>
        <pt x="325" y="905" on="1"/>
        <pt x="336" y="911" on="0"/>
        <pt x="368" y="931" on="0"/>
        <pt x="388" y="943" on="0"/>
        <pt x="400" y="949" on="1"/>
        <pt x="422" y="961" on="0"/>
        <pt x="442" y="961" on="0"/>
        <pt x="459" y="951" on="0"/>
        <pt x="469" y="939" on="0"/>
        <pt x="492" y="910" on="0"/>
        <pt x="504" y="896" on="0"/>
        <pt x="533" y="864" on="0"/>
        <pt x="545" y="849" on="0"/>
        <pt x="554" y="838" on="1"/>
        <pt x="570" y="817" on="0"/>
        <pt x="570" y="793" on="0"/>
        <pt x="555" y="781" on="0"/>
        <pt x="529" y="781" on="0"/>
        <pt x="483" y="819" on="0"/>
        <pt x="457" y="851" on="0"/>
        <pt x="431" y="884" on="1"/>
        <pt x="403" y="870" on="0"/>
      </contour>
    </TTGlyph>
    <TTGlyph name="Edieresis" xMin="63" yMin="15" xMax="605" yMax="925">
      <contour>
        <pt x="208" y="333" on="1"/>
        <pt x="154" y="162" on="0"/>
        <pt x="154" y="126" on="1"/>
        <pt x="154" y="114" on="0"/>
        <pt x="169" y="99" on="0"/>
        <pt x="181" y="99" on="1"/>
        <pt x="296" y="99" on="0"/>
        <pt x="435" y="136" on="1"/>
        <pt x="480" y="148" on="0"/>
        <pt x="487" y="148" on="1"/>
        <pt x="502" y="148" on="0"/>
        <pt x="502" y="127" on="1"/>
        <pt x="502" y="91" on="0"/>
        <pt x="281" y="15" on="0"/>
        <pt x="178" y="15" on="1"/>
        <pt x="132" y="15" on="0"/>
        <pt x="63" y="69" on="0"/>
        <pt x="63" y="151" on="0"/>
        <pt x="122" y="349" on="0"/>
        <pt x="182" y="573" on="0"/>
        <pt x="182" y="650" on="1"/>
        <pt x="182" y="664" on="0"/>
        <pt x="186" y="671" on="1"/>
        <pt x="193" y="691" on="0"/>
        <pt x="290" y="710" on="0"/>
        <pt x="404" y="710" on="1"/>
        <pt x="605" y="710" on="0"/>
        <pt x="605" y="681" on="1"/>
        <pt x="605" y="661" on="0"/>
        <pt x="562" y="654" on="1"/>
        <pt x="526" y="647" on="0"/>
        <pt x="407" y="636" on="0"/>
        <pt x="359" y="631" on="0"/>
        <pt x="267" y="615" on="1"/>
        <pt x="267" y="612" on="1"/>
        <pt x="267" y="544" on="0"/>
        <pt x="230" y="407" on="1"/>
        <pt x="260" y="403" on="0"/>
        <pt x="433" y="416" on="0"/>
        <pt x="446" y="416" on="1"/>
        <pt x="480" y="416" on="0"/>
        <pt x="480" y="402" on="1"/>
        <pt x="480" y="367" on="0"/>
        <pt x="326" y="333" on="0"/>
      </contour>
      <contour>
        <pt x="371" y="799" on="1"/>
        <pt x="348" y="799" on="0"/>
        <pt x="295" y="852" on="0"/>
        <pt x="295" y="890" on="0"/>
        <pt x="324" y="925" on="0"/>
        <pt x="355" y="925" on="0"/>
        <pt x="397" y="847" on="0"/>
        <pt x="397" y="817" on="0"/>
        <pt x="380" y="799" on="0"/>
      </contour>
      <contour>
        <pt x="521" y="799" on="1"/>
        <pt x="499" y="799" on="0"/>
        <pt x="445" y="852" on="0"/>
        <pt x="445" y="890" on="0"/>
        <pt x="475" y="925" on="0"/>
        <pt x="506" y="925" on="0"/>
        <pt x="548" y="847" on="0"/>
        <pt x="548" y="816" on="0"/>
        <pt x="530" y="799" on="0"/>
      </contour>
    </TTGlyph>
    <TTGlyph name="Edotaccent" xMin="63" yMin="15" xMax="605" yMax="919">
      <contour>
        <pt x="208" y="333" on="1"/>
        <pt x="154" y="162" on="0"/>
        <pt x="154" y="126" on="1"/>
        <pt x="154" y="114" on="0"/>
        <pt x="169" y="99" on="0"/>
        <pt x="181" y="99" on="1"/>
        <pt x="296" y="99" on="0"/>
        <pt x="435" y="136" on="1"/>
        <pt x="480" y="148" on="0"/>
        <pt x="487" y="148" on="1"/>
        <pt x="502" y="148" on="0"/>
        <pt x="502" y="127" on="1"/>
        <pt x="502" y="91" on="0"/>
        <pt x="281" y="15" on="0"/>
        <pt x="178" y="15" on="1"/>
        <pt x="132" y="15" on="0"/>
        <pt x="63" y="69" on="0"/>
        <pt x="63" y="151" on="0"/>
        <pt x="122" y="349" on="0"/>
        <pt x="182" y="573" on="0"/>
        <pt x="182" y="650" on="1"/>
        <pt x="182" y="664" on="0"/>
        <pt x="186" y="671" on="1"/>
        <pt x="193" y="691" on="0"/>
        <pt x="290" y="710" on="0"/>
        <pt x="404" y="710" on="1"/>
        <pt x="605" y="710" on="0"/>
        <pt x="605" y="681" on="1"/>
        <pt x="605" y="661" on="0"/>
        <pt x="562" y="654" on="1"/>
        <pt x="526" y="647" on="0"/>
        <pt x="407" y="636" on="0"/>
        <pt x="359" y="631" on="0"/>
        <pt x="267" y="615" on="1"/>
        <pt x="267" y="612" on="1"/>
        <pt x="267" y="544" on="0"/>
        <pt x="230" y="407" on="1"/>
        <pt x="260" y="403" on="0"/>
        <pt x="433" y="416" on="0"/>
        <pt x="446" y="416" on="1"/>
        <pt x="480" y="416" on="0"/>
        <pt x="480" y="402" on="1"/>
        <pt x="480" y="367" on="0"/>
        <pt x="326" y="333" on="0"/>
      </contour>
      <contour>
        <pt x="441" y="788" on="1"/>
        <pt x="420" y="788" on="0"/>
        <pt x="363" y="842" on="0"/>
        <pt x="363" y="881" on="0"/>
        <pt x="394" y="919" on="0"/>
        <pt x="427" y="919" on="0"/>
        <pt x="469" y="834" on="0"/>
        <pt x="469" y="812" on="1"/>
        <pt x="469" y="805" on="0"/>
        <pt x="450" y="788" on="0"/>
      </contour>
    </TTGlyph>
    <TTGlyph name="Egrave" xMin="63" yMin="15" xMax="605" yMax="958">
      <contour>
        <pt x="208" y="333" on="1"/>
        <pt x="154" y="162" on="0"/>
        <pt x="154" y="126" on="1"/>
        <pt x="154" y="114" on="0"/>
        <pt x="169" y="99" on="0"/>
        <pt x="181" y="99" on="1"/>
        <pt x="296" y="99" on="0"/>
        <pt x="435" y="136" on="1"/>
        <pt x="480" y="148" on="0"/>
        <pt x="487" y="148" on="1"/>
        <pt x="502" y="148" on="0"/>
        <pt x="502" y="127" on="1"/>
        <pt x="502" y="91" on="0"/>
        <pt x="281" y="15" on="0"/>
        <pt x="178" y="15" on="1"/>
        <pt x="132" y="15" on="0"/>
        <pt x="63" y="69" on="0"/>
        <pt x="63" y="151" on="0"/>
        <pt x="122" y="349" on="0"/>
        <pt x="182" y="573" on="0"/>
        <pt x="182" y="650" on="1"/>
        <pt x="182" y="664" on="0"/>
        <pt x="186" y="671" on="1"/>
        <pt x="193" y="691" on="0"/>
        <pt x="290" y="710" on="0"/>
        <pt x="404" y="710" on="1"/>
        <pt x="605" y="710" on="0"/>
        <pt x="605" y="681" on="1"/>
        <pt x="605" y="661" on="0"/>
        <pt x="562" y="654" on="1"/>
        <pt x="526" y="647" on="0"/>
        <pt x="407" y="636" on="0"/>
        <pt x="359" y="631" on="0"/>
        <pt x="267" y="615" on="1"/>
        <pt x="267" y="612" on="1"/>
        <pt x="267" y="544" on="0"/>
        <pt x="230" y="407" on="1"/>
        <pt x="260" y="403" on="0"/>
        <pt x="433" y="416" on="0"/>
        <pt x="446" y="416" on="1"/>
        <pt x="480" y="416" on="0"/>
        <pt x="480" y="402" on="1"/>
        <pt x="480" y="367" on="0"/>
        <pt x="326" y="333" on="0"/>
      </contour>
      <contour>
        <pt x="284" y="896" on="0"/>
        <pt x="284" y="937" on="0"/>
        <pt x="301" y="953" on="1"/>
        <pt x="329" y="984" on="0"/>
        <pt x="355" y="958" on="1"/>
        <pt x="456" y="851" on="1"/>
        <pt x="491" y="816" on="0"/>
        <pt x="470" y="793" on="1"/>
        <pt x="452" y="772" on="0"/>
        <pt x="424" y="795" on="1"/>
        <pt x="413" y="803" on="0"/>
        <pt x="298" y="887" on="1"/>
      </contour>
    </TTGlyph>
    <TTGlyph name="Emacron" xMin="63" yMin="15" xMax="605" yMax="875">
      <contour>
        <pt x="208" y="333" on="1"/>
        <pt x="154" y="162" on="0"/>
        <pt x="154" y="126" on="1"/>
        <pt x="154" y="114" on="0"/>
        <pt x="169" y="99" on="0"/>
        <pt x="181" y="99" on="1"/>
        <pt x="296" y="99" on="0"/>
        <pt x="435" y="136" on="1"/>
        <pt x="480" y="148" on="0"/>
        <pt x="487" y="148" on="1"/>
        <pt x="502" y="148" on="0"/>
        <pt x="502" y="127" on="1"/>
        <pt x="502" y="91" on="0"/>
        <pt x="281" y="15" on="0"/>
        <pt x="178" y="15" on="1"/>
        <pt x="132" y="15" on="0"/>
        <pt x="63" y="69" on="0"/>
        <pt x="63" y="151" on="0"/>
        <pt x="122" y="349" on="0"/>
        <pt x="182" y="573" on="0"/>
        <pt x="182" y="650" on="1"/>
        <pt x="182" y="664" on="0"/>
        <pt x="186" y="671" on="1"/>
        <pt x="193" y="691" on="0"/>
        <pt x="290" y="710" on="0"/>
        <pt x="404" y="710" on="1"/>
        <pt x="605" y="710" on="0"/>
        <pt x="605" y="681" on="1"/>
        <pt x="605" y="661" on="0"/>
        <pt x="562" y="654" on="1"/>
        <pt x="526" y="647" on="0"/>
        <pt x="407" y="636" on="0"/>
        <pt x="359" y="631" on="0"/>
        <pt x="267" y="615" on="1"/>
        <pt x="267" y="612" on="1"/>
        <pt x="267" y="544" on="0"/>
        <pt x="230" y="407" on="1"/>
        <pt x="260" y="403" on="0"/>
        <pt x="433" y="416" on="0"/>
        <pt x="446" y="416" on="1"/>
        <pt x="480" y="416" on="0"/>
        <pt x="480" y="402" on="1"/>
        <pt x="480" y="367" on="0"/>
        <pt x="326" y="333" on="0"/>
      </contour>
      <contour>
        <pt x="293" y="799" on="1"/>
        <pt x="274" y="799" on="0"/>
        <pt x="239" y="833" on="0"/>
        <pt x="240" y="867" on="0"/>
        <pt x="384" y="877" on="0"/>
        <pt x="522" y="875" on="1"/>
        <pt x="585" y="874" on="0"/>
        <pt x="585" y="852" on="1"/>
        <pt x="584" y="838" on="0"/>
        <pt x="525" y="825" on="0"/>
        <pt x="296" y="799" on="0"/>
      </contour>
    </TTGlyph>
    <TTGlyph name="Eogonek" xMin="63" yMin="-89" xMax="605" yMax="710">
      <contour>
        <pt x="208" y="333" on="1"/>
        <pt x="154" y="162" on="0"/>
        <pt x="154" y="126" on="1"/>
        <pt x="154" y="114" on="0"/>
        <pt x="169" y="99" on="0"/>
        <pt x="181" y="99" on="1"/>
        <pt x="296" y="99" on="0"/>
        <pt x="435" y="136" on="1"/>
        <pt x="480" y="148" on="0"/>
        <pt x="486" y="148" on="1"/>
        <pt x="501" y="148" on="0"/>
        <pt x="523" y="127" on="0"/>
        <pt x="511" y="90" on="0"/>
        <pt x="490" y="73" on="1"/>
        <pt x="425" y="22" on="0"/>
        <pt x="425" y="-4" on="1"/>
        <pt x="425" y="-22" on="0"/>
        <pt x="459" y="-22" on="1"/>
        <pt x="470" y="-22" on="0"/>
        <pt x="502" y="-12" on="0"/>
        <pt x="507" y="-12" on="1"/>
        <pt x="535" y="-7" on="0"/>
        <pt x="543" y="-35" on="1"/>
        <pt x="546" y="-47" on="0"/>
        <pt x="524" y="-71" on="0"/>
        <pt x="463" y="-89" on="0"/>
        <pt x="396" y="-89" on="0"/>
        <pt x="344" y="-51" on="0"/>
        <pt x="344" y="6" on="0"/>
        <pt x="369" y="46" on="1"/>
        <pt x="271" y="15" on="0"/>
        <pt x="178" y="15" on="1"/>
        <pt x="132" y="15" on="0"/>
        <pt x="63" y="69" on="0"/>
        <pt x="63" y="151" on="0"/>
        <pt x="122" y="349" on="0"/>
        <pt x="182" y="573" on="0"/>
        <pt x="182" y="650" on="1"/>
        <pt x="182" y="664" on="0"/>
        <pt x="186" y="671" on="1"/>
        <pt x="193" y="691" on="0"/>
        <pt x="290" y="710" on="0"/>
        <pt x="404" y="710" on="1"/>
        <pt x="605" y="710" on="0"/>
        <pt x="605" y="681" on="1"/>
        <pt x="605" y="661" on="0"/>
        <pt x="562" y="654" on="1"/>
        <pt x="526" y="647" on="0"/>
        <pt x="407" y="636" on="0"/>
        <pt x="359" y="631" on="0"/>
        <pt x="267" y="615" on="1"/>
        <pt x="267" y="612" on="1"/>
        <pt x="267" y="544" on="0"/>
        <pt x="230" y="407" on="1"/>
        <pt x="260" y="403" on="0"/>
        <pt x="433" y="416" on="0"/>
        <pt x="446" y="416" on="1"/>
        <pt x="480" y="416" on="0"/>
        <pt x="480" y="402" on="1"/>
        <pt x="480" y="367" on="0"/>
        <pt x="326" y="333" on="0"/>
      </contour>
    </TTGlyph>
    <TTGlyph name="Eth" xMin="31" yMin="-4" xMax="626" yMax="703">
      <contour>
        <pt x="165" y="703" on="1"/>
        <pt x="259" y="703" on="0"/>
        <pt x="472" y="605" on="0"/>
        <pt x="626" y="432" on="0"/>
        <pt x="626" y="339" on="1"/>
        <pt x="626" y="278" on="0"/>
        <pt x="457" y="113" on="0"/>
        <pt x="235" y="-4" on="0"/>
        <pt x="162" y="-4" on="1"/>
        <pt x="143" y="-4" on="0"/>
        <pt x="94" y="61" on="0"/>
        <pt x="94" y="124" on="0"/>
        <pt x="137" y="281" on="1"/>
        <pt x="67" y="275" on="0"/>
        <pt x="57" y="278" on="1"/>
        <pt x="37" y="280" on="0"/>
        <pt x="25" y="302" on="0"/>
        <pt x="35" y="315" on="1"/>
        <pt x="34" y="321" on="0"/>
        <pt x="58" y="330" on="1"/>
        <pt x="101" y="347" on="0"/>
        <pt x="158" y="356" on="1"/>
        <pt x="208" y="536" on="0"/>
        <pt x="214" y="610" on="1"/>
        <pt x="184" y="623" on="0"/>
        <pt x="145" y="666" on="0"/>
        <pt x="145" y="683" on="1"/>
        <pt x="145" y="703" on="0"/>
      </contour>
      <contour>
        <pt x="534" y="350" on="1"/>
        <pt x="534" y="412" on="0"/>
        <pt x="381" y="561" on="0"/>
        <pt x="287" y="590" on="1"/>
        <pt x="293" y="574" on="0"/>
        <pt x="293" y="555" on="1"/>
        <pt x="293" y="512" on="0"/>
        <pt x="250" y="361" on="1"/>
        <pt x="297" y="361" on="0"/>
        <pt x="297" y="357" on="1"/>
        <pt x="321" y="358" on="0"/>
        <pt x="347" y="339" on="0"/>
        <pt x="341" y="325" on="1"/>
        <pt x="343" y="313" on="0"/>
        <pt x="230" y="292" on="1"/>
        <pt x="212" y="231" on="1"/>
        <pt x="193" y="165" on="0"/>
        <pt x="181" y="86" on="1"/>
        <pt x="250" y="95" on="0"/>
        <pt x="421" y="198" on="0"/>
        <pt x="534" y="316" on="0"/>
      </contour>
    </TTGlyph>
    <TTGlyph name="Euro" xMin="15" yMin="15" xMax="565" yMax="677">
      <contour>
        <pt x="192" y="158" on="0"/>
        <pt x="248" y="102" on="0"/>
        <pt x="352" y="102" on="0"/>
        <pt x="457" y="137" on="0"/>
        <pt x="527" y="172" on="0"/>
        <pt x="538" y="172" on="1"/>
        <pt x="555" y="172" on="0"/>
        <pt x="555" y="128" on="0"/>
        <pt x="472" y="64" on="0"/>
        <pt x="346" y="15" on="0"/>
        <pt x="295" y="15" on="1"/>
        <pt x="209" y="15" on="0"/>
        <pt x="105" y="116" on="0"/>
        <pt x="100" y="193" on="1"/>
        <pt x="85" y="191" on="0"/>
        <pt x="56" y="191" on="1"/>
        <pt x="43" y="191" on="0"/>
        <pt x="15" y="231" on="0"/>
        <pt x="15" y="258" on="0"/>
        <pt x="107" y="274" on="1"/>
        <pt x="117" y="319" on="0"/>
        <pt x="132" y="357" on="1"/>
        <pt x="120" y="355" on="0"/>
        <pt x="96" y="355" on="1"/>
        <pt x="83" y="356" on="0"/>
        <pt x="55" y="396" on="0"/>
        <pt x="55" y="411" on="1"/>
        <pt x="56" y="432" on="0"/>
        <pt x="174" y="443" on="1"/>
        <pt x="233" y="544" on="0"/>
        <pt x="401" y="677" on="0"/>
        <pt x="486" y="677" on="1"/>
        <pt x="513" y="677" on="0"/>
        <pt x="565" y="615" on="0"/>
        <pt x="565" y="579" on="0"/>
        <pt x="551" y="558" on="0"/>
        <pt x="537" y="558" on="0"/>
        <pt x="502" y="588" on="0"/>
        <pt x="486" y="588" on="1"/>
        <pt x="443" y="588" on="0"/>
        <pt x="329" y="511" on="0"/>
        <pt x="280" y="450" on="1"/>
        <pt x="422" y="455" on="0"/>
        <pt x="497" y="445" on="0"/>
        <pt x="525" y="430" on="0"/>
        <pt x="524" y="417" on="1"/>
        <pt x="524" y="399" on="0"/>
        <pt x="393" y="380" on="0"/>
        <pt x="249" y="370" on="0"/>
        <pt x="231" y="369" on="0"/>
        <pt x="226" y="368" on="1"/>
        <pt x="204" y="328" on="0"/>
        <pt x="193" y="287" on="1"/>
        <pt x="331" y="306" on="0"/>
        <pt x="498" y="306" on="0"/>
        <pt x="498" y="281" on="1"/>
        <pt x="498" y="261" on="0"/>
        <pt x="362" y="231" on="0"/>
        <pt x="205" y="209" on="1"/>
        <pt x="186" y="206" on="1"/>
      </contour>
    </TTGlyph>
    <TTGlyph name="F" xMin="57" yMin="16" xMax="589" yMax="713">
      <contour>
        <pt x="197" y="313" on="1"/>
        <pt x="195" y="313" on="1"/>
        <pt x="181" y="243" on="0"/>
        <pt x="133" y="63" on="0"/>
        <pt x="128" y="46" on="1"/>
        <pt x="118" y="16" on="0"/>
        <pt x="111" y="16" on="1"/>
        <pt x="97" y="16" on="0"/>
        <pt x="55" y="74" on="0"/>
        <pt x="59" y="116" on="0"/>
        <pt x="172" y="571" on="0"/>
        <pt x="173" y="650" on="1"/>
        <pt x="173" y="662" on="0"/>
        <pt x="178" y="672" on="1"/>
        <pt x="193" y="713" on="0"/>
        <pt x="399" y="713" on="1"/>
        <pt x="480" y="713" on="0"/>
        <pt x="589" y="693" on="0"/>
        <pt x="589" y="675" on="1"/>
        <pt x="589" y="658" on="0"/>
        <pt x="546" y="651" on="1"/>
        <pt x="504" y="644" on="0"/>
        <pt x="398" y="635" on="0"/>
        <pt x="345" y="630" on="0"/>
        <pt x="262" y="619" on="0"/>
        <pt x="252" y="618" on="1"/>
        <pt x="253" y="615" on="0"/>
        <pt x="253" y="609" on="1"/>
        <pt x="253" y="563" on="0"/>
        <pt x="214" y="392" on="1"/>
        <pt x="260" y="388" on="0"/>
        <pt x="422" y="402" on="0"/>
        <pt x="435" y="402" on="1"/>
        <pt x="473" y="402" on="0"/>
        <pt x="473" y="386" on="1"/>
        <pt x="473" y="355" on="0"/>
        <pt x="300" y="313" on="0"/>
      </contour>
    </TTGlyph>
    <TTGlyph name="G" xMin="46" yMin="-89" xMax="536" yMax="717">
      <contour>
        <pt x="462" y="622" on="1"/>
        <pt x="403" y="622" on="0"/>
        <pt x="249" y="487" on="0"/>
        <pt x="137" y="281" on="0"/>
        <pt x="137" y="190" on="1"/>
        <pt x="137" y="154" on="0"/>
        <pt x="183" y="103" on="0"/>
        <pt x="214" y="103" on="1"/>
        <pt x="262" y="103" on="0"/>
        <pt x="391" y="208" on="0"/>
        <pt x="446" y="291" on="1"/>
        <pt x="355" y="261" on="0"/>
        <pt x="318" y="290" on="1"/>
        <pt x="298" y="305" on="0"/>
        <pt x="298" y="318" on="1"/>
        <pt x="298" y="334" on="0"/>
        <pt x="384" y="353" on="0"/>
        <pt x="449" y="353" on="1"/>
        <pt x="485" y="353" on="0"/>
        <pt x="530" y="292" on="0"/>
        <pt x="530" y="213" on="0"/>
        <pt x="429" y="-89" on="0"/>
        <pt x="406" y="-89" on="1"/>
        <pt x="379" y="-89" on="0"/>
        <pt x="379" y="-60" on="1"/>
        <pt x="379" y="-32" on="0"/>
        <pt x="408" y="64" on="0"/>
        <pt x="440" y="165" on="0"/>
        <pt x="450" y="197" on="1"/>
        <pt x="401" y="114" on="0"/>
        <pt x="277" y="17" on="0"/>
        <pt x="160" y="17" on="0"/>
        <pt x="46" y="126" on="0"/>
        <pt x="46" y="191" on="1"/>
        <pt x="46" y="292" on="0"/>
        <pt x="174" y="540" on="0"/>
        <pt x="368" y="717" on="0"/>
        <pt x="453" y="717" on="1"/>
        <pt x="481" y="717" on="0"/>
        <pt x="536" y="647" on="0"/>
        <pt x="536" y="606" on="0"/>
        <pt x="524" y="606" on="1"/>
        <pt x="519" y="606" on="0"/>
        <pt x="485" y="622" on="0"/>
      </contour>
    </TTGlyph>
    <TTGlyph name="Gbreve" xMin="46" yMin="-89" xMax="677" yMax="945">
      <contour>
        <pt x="654" y="910" on="1"/>
        <pt x="677" y="910" on="0"/>
        <pt x="677" y="887" on="1"/>
        <pt x="677" y="854" on="0"/>
        <pt x="576" y="781" on="0"/>
        <pt x="475" y="781" on="0"/>
        <pt x="393" y="853" on="0"/>
        <pt x="393" y="890" on="1"/>
        <pt x="393" y="915" on="0"/>
        <pt x="422" y="945" on="0"/>
        <pt x="447" y="945" on="0"/>
        <pt x="463" y="915" on="0"/>
        <pt x="477" y="879" on="0"/>
        <pt x="511" y="849" on="0"/>
        <pt x="564" y="849" on="0"/>
        <pt x="608" y="880" on="0"/>
        <pt x="641" y="910" on="0"/>
      </contour>
      <contour>
        <pt x="453" y="717" on="1"/>
        <pt x="481" y="717" on="0"/>
        <pt x="536" y="647" on="0"/>
        <pt x="536" y="606" on="0"/>
        <pt x="524" y="606" on="1"/>
        <pt x="519" y="606" on="0"/>
        <pt x="485" y="622" on="0"/>
        <pt x="462" y="622" on="1"/>
        <pt x="403" y="622" on="0"/>
        <pt x="249" y="487" on="0"/>
        <pt x="137" y="281" on="0"/>
        <pt x="137" y="190" on="1"/>
        <pt x="137" y="154" on="0"/>
        <pt x="183" y="103" on="0"/>
        <pt x="214" y="103" on="1"/>
        <pt x="262" y="103" on="0"/>
        <pt x="391" y="208" on="0"/>
        <pt x="446" y="291" on="1"/>
        <pt x="355" y="261" on="0"/>
        <pt x="318" y="290" on="1"/>
        <pt x="298" y="305" on="0"/>
        <pt x="298" y="318" on="1"/>
        <pt x="298" y="334" on="0"/>
        <pt x="384" y="353" on="0"/>
        <pt x="449" y="353" on="1"/>
        <pt x="485" y="353" on="0"/>
        <pt x="530" y="292" on="0"/>
        <pt x="530" y="213" on="0"/>
        <pt x="429" y="-89" on="0"/>
        <pt x="406" y="-89" on="1"/>
        <pt x="379" y="-89" on="0"/>
        <pt x="379" y="-60" on="1"/>
        <pt x="379" y="-32" on="0"/>
        <pt x="408" y="64" on="0"/>
        <pt x="440" y="165" on="0"/>
        <pt x="450" y="197" on="1"/>
        <pt x="401" y="114" on="0"/>
        <pt x="277" y="17" on="0"/>
        <pt x="160" y="17" on="0"/>
        <pt x="46" y="126" on="0"/>
        <pt x="46" y="191" on="1"/>
        <pt x="46" y="292" on="0"/>
        <pt x="174" y="540" on="0"/>
        <pt x="368" y="717" on="0"/>
      </contour>
    </TTGlyph>
    <TTGlyph name="H" xMin="66" yMin="17" xMax="623" yMax="720">
      <contour>
        <pt x="123" y="17" on="1"/>
        <pt x="109" y="17" on="0"/>
        <pt x="66" y="69" on="0"/>
        <pt x="66" y="118" on="0"/>
        <pt x="110" y="290" on="1"/>
        <pt x="97" y="295" on="0"/>
        <pt x="78" y="320" on="0"/>
        <pt x="78" y="336" on="1"/>
        <pt x="78" y="349" on="0"/>
        <pt x="130" y="365" on="1"/>
        <pt x="197" y="627" on="0"/>
        <pt x="197" y="690" on="1"/>
        <pt x="197" y="708" on="0"/>
        <pt x="205" y="720" on="0"/>
        <pt x="233" y="720" on="0"/>
        <pt x="278" y="658" on="0"/>
        <pt x="278" y="581" on="0"/>
        <pt x="229" y="388" on="1"/>
        <pt x="361" y="415" on="0"/>
        <pt x="488" y="423" on="1"/>
        <pt x="539" y="631" on="0"/>
        <pt x="539" y="690" on="1"/>
        <pt x="539" y="720" on="0"/>
        <pt x="559" y="720" on="1"/>
        <pt x="576" y="720" on="0"/>
        <pt x="622" y="658" on="0"/>
        <pt x="622" y="591" on="0"/>
        <pt x="577" y="421" on="1"/>
        <pt x="623" y="414" on="0"/>
        <pt x="623" y="373" on="0"/>
        <pt x="561" y="360" on="1"/>
        <pt x="529" y="242" on="0"/>
        <pt x="506" y="151" on="0"/>
        <pt x="491" y="97" on="0"/>
        <pt x="484" y="70" on="1"/>
        <pt x="469" y="17" on="0"/>
        <pt x="462" y="17" on="1"/>
        <pt x="446" y="17" on="0"/>
        <pt x="408" y="62" on="0"/>
        <pt x="408" y="114" on="0"/>
        <pt x="468" y="346" on="1"/>
        <pt x="322" y="326" on="0"/>
        <pt x="205" y="300" on="1"/>
        <pt x="185" y="227" on="0"/>
        <pt x="152" y="97" on="0"/>
        <pt x="144" y="70" on="1"/>
        <pt x="130" y="17" on="0"/>
      </contour>
    </TTGlyph>
    <TTGlyph name="I" xMin="67" yMin="18" xMax="274" yMax="718">
      <contour>
        <pt x="188" y="705" on="0"/>
        <pt x="197" y="718" on="0"/>
        <pt x="226" y="718" on="0"/>
        <pt x="274" y="656" on="0"/>
        <pt x="273" y="585" on="0"/>
        <pt x="201" y="292" on="1"/>
        <pt x="194" y="265" on="0"/>
        <pt x="170" y="164" on="0"/>
        <pt x="156" y="110" on="0"/>
        <pt x="148" y="78" on="1"/>
        <pt x="131" y="19" on="0"/>
        <pt x="107" y="19" on="0"/>
        <pt x="67" y="67" on="0"/>
        <pt x="68" y="107" on="0"/>
        <pt x="187" y="626" on="0"/>
        <pt x="188" y="688" on="1"/>
      </contour>
    </TTGlyph>
    <TTGlyph name="Iacute" xMin="67" yMin="18" xMax="441" yMax="962">
      <contour>
        <pt x="441" y="938" on="0"/>
        <pt x="441" y="893" on="0"/>
        <pt x="427" y="884" on="1"/>
        <pt x="293" y="790" on="0"/>
        <pt x="287" y="788" on="1"/>
        <pt x="272" y="783" on="0"/>
        <pt x="266" y="784" on="0"/>
        <pt x="262" y="784" on="1"/>
        <pt x="256" y="785" on="0"/>
        <pt x="239" y="807" on="0"/>
        <pt x="250" y="841" on="0"/>
        <pt x="266" y="857" on="1"/>
        <pt x="375" y="962" on="1"/>
        <pt x="402" y="986" on="0"/>
        <pt x="426" y="957" on="1"/>
      </contour>
      <contour>
        <pt x="188" y="705" on="0"/>
        <pt x="197" y="718" on="0"/>
        <pt x="226" y="718" on="0"/>
        <pt x="274" y="656" on="0"/>
        <pt x="273" y="585" on="0"/>
        <pt x="201" y="292" on="1"/>
        <pt x="194" y="265" on="0"/>
        <pt x="170" y="164" on="0"/>
        <pt x="156" y="110" on="0"/>
        <pt x="148" y="78" on="1"/>
        <pt x="131" y="19" on="0"/>
        <pt x="107" y="19" on="0"/>
        <pt x="67" y="67" on="0"/>
        <pt x="68" y="107" on="0"/>
        <pt x="187" y="626" on="0"/>
        <pt x="188" y="688" on="1"/>
      </contour>
    </TTGlyph>
    <TTGlyph name="Icircumflex" xMin="67" yMin="18" xMax="421" yMax="961">
      <contour>
        <pt x="414" y="826" on="0"/>
        <pt x="421" y="808" on="0"/>
        <pt x="421" y="793" on="0"/>
        <pt x="406" y="781" on="0"/>
        <pt x="380" y="781" on="0"/>
        <pt x="334" y="819" on="0"/>
        <pt x="308" y="851" on="0"/>
        <pt x="282" y="884" on="1"/>
        <pt x="254" y="870" on="0"/>
        <pt x="193" y="822" on="0"/>
        <pt x="153" y="794" on="0"/>
        <pt x="126" y="794" on="0"/>
        <pt x="107" y="812" on="0"/>
        <pt x="107" y="830" on="1"/>
        <pt x="107" y="866" on="0"/>
        <pt x="176" y="905" on="1"/>
        <pt x="187" y="911" on="0"/>
        <pt x="219" y="931" on="0"/>
        <pt x="239" y="943" on="0"/>
        <pt x="250" y="949" on="1"/>
        <pt x="273" y="961" on="0"/>
        <pt x="293" y="961" on="0"/>
        <pt x="310" y="951" on="0"/>
        <pt x="320" y="939" on="0"/>
        <pt x="343" y="910" on="0"/>
        <pt x="355" y="896" on="0"/>
        <pt x="384" y="864" on="0"/>
        <pt x="396" y="849" on="0"/>
      </contour>
      <contour>
        <pt x="188" y="705" on="0"/>
        <pt x="197" y="718" on="0"/>
        <pt x="226" y="718" on="0"/>
        <pt x="274" y="656" on="0"/>
        <pt x="273" y="585" on="0"/>
        <pt x="201" y="292" on="1"/>
        <pt x="194" y="265" on="0"/>
        <pt x="170" y="164" on="0"/>
        <pt x="156" y="110" on="0"/>
        <pt x="148" y="78" on="1"/>
        <pt x="131" y="19" on="0"/>
        <pt x="107" y="19" on="0"/>
        <pt x="67" y="67" on="0"/>
        <pt x="68" y="107" on="0"/>
        <pt x="187" y="626" on="0"/>
        <pt x="188" y="688" on="1"/>
      </contour>
    </TTGlyph>
    <TTGlyph name="Idieresis" xMin="67" yMin="18" xMax="399" yMax="925">
      <contour>
        <pt x="357" y="925" on="0"/>
        <pt x="399" y="847" on="0"/>
        <pt x="399" y="816" on="0"/>
        <pt x="382" y="799" on="0"/>
        <pt x="372" y="799" on="1"/>
        <pt x="350" y="799" on="0"/>
        <pt x="296" y="852" on="0"/>
        <pt x="296" y="890" on="0"/>
        <pt x="326" y="925" on="0"/>
      </contour>
      <contour>
        <pt x="206" y="925" on="0"/>
        <pt x="248" y="847" on="0"/>
        <pt x="248" y="817" on="0"/>
        <pt x="231" y="799" on="0"/>
        <pt x="222" y="799" on="1"/>
        <pt x="199" y="799" on="0"/>
        <pt x="146" y="852" on="0"/>
        <pt x="146" y="890" on="0"/>
        <pt x="175" y="925" on="0"/>
      </contour>
      <contour>
        <pt x="188" y="705" on="0"/>
        <pt x="197" y="718" on="0"/>
        <pt x="226" y="718" on="0"/>
        <pt x="274" y="656" on="0"/>
        <pt x="273" y="585" on="0"/>
        <pt x="201" y="292" on="1"/>
        <pt x="194" y="265" on="0"/>
        <pt x="170" y="164" on="0"/>
        <pt x="156" y="110" on="0"/>
        <pt x="148" y="78" on="1"/>
        <pt x="131" y="19" on="0"/>
        <pt x="107" y="19" on="0"/>
        <pt x="67" y="67" on="0"/>
        <pt x="68" y="107" on="0"/>
        <pt x="187" y="626" on="0"/>
        <pt x="188" y="688" on="1"/>
      </contour>
    </TTGlyph>
    <TTGlyph name="Idotaccent" xMin="67" yMin="18" xMax="320" yMax="919">
      <contour>
        <pt x="271" y="788" on="0"/>
        <pt x="214" y="842" on="0"/>
        <pt x="214" y="881" on="0"/>
        <pt x="245" y="919" on="0"/>
        <pt x="278" y="919" on="0"/>
        <pt x="320" y="834" on="0"/>
        <pt x="320" y="812" on="1"/>
        <pt x="320" y="805" on="0"/>
        <pt x="301" y="788" on="0"/>
        <pt x="292" y="788" on="1"/>
      </contour>
      <contour>
        <pt x="188" y="705" on="0"/>
        <pt x="197" y="718" on="0"/>
        <pt x="226" y="718" on="0"/>
        <pt x="274" y="656" on="0"/>
        <pt x="273" y="585" on="0"/>
        <pt x="201" y="292" on="1"/>
        <pt x="194" y="265" on="0"/>
        <pt x="170" y="164" on="0"/>
        <pt x="156" y="110" on="0"/>
        <pt x="148" y="78" on="1"/>
        <pt x="131" y="19" on="0"/>
        <pt x="107" y="19" on="0"/>
        <pt x="67" y="67" on="0"/>
        <pt x="68" y="107" on="0"/>
        <pt x="187" y="626" on="0"/>
        <pt x="188" y="688" on="1"/>
      </contour>
    </TTGlyph>
    <TTGlyph name="Igrave" xMin="67" yMin="18" xMax="321" yMax="958">
      <contour>
        <pt x="136" y="896" on="0"/>
        <pt x="136" y="937" on="0"/>
        <pt x="152" y="953" on="1"/>
        <pt x="180" y="984" on="0"/>
        <pt x="206" y="958" on="1"/>
        <pt x="307" y="851" on="1"/>
        <pt x="342" y="816" on="0"/>
        <pt x="321" y="793" on="1"/>
        <pt x="303" y="772" on="0"/>
        <pt x="274" y="795" on="1"/>
        <pt x="265" y="803" on="0"/>
        <pt x="149" y="887" on="1"/>
      </contour>
      <contour>
        <pt x="188" y="705" on="0"/>
        <pt x="197" y="718" on="0"/>
        <pt x="226" y="718" on="0"/>
        <pt x="274" y="656" on="0"/>
        <pt x="273" y="585" on="0"/>
        <pt x="201" y="292" on="1"/>
        <pt x="194" y="265" on="0"/>
        <pt x="170" y="164" on="0"/>
        <pt x="156" y="110" on="0"/>
        <pt x="148" y="78" on="1"/>
        <pt x="131" y="19" on="0"/>
        <pt x="107" y="19" on="0"/>
        <pt x="67" y="67" on="0"/>
        <pt x="68" y="107" on="0"/>
        <pt x="187" y="626" on="0"/>
        <pt x="188" y="688" on="1"/>
      </contour>
    </TTGlyph>
    <TTGlyph name="Imacron" xMin="67" yMin="18" xMax="436" yMax="875">
      <contour>
        <pt x="144" y="799" on="1"/>
        <pt x="125" y="799" on="0"/>
        <pt x="90" y="833" on="0"/>
        <pt x="91" y="867" on="0"/>
        <pt x="235" y="877" on="0"/>
        <pt x="373" y="875" on="1"/>
        <pt x="436" y="874" on="0"/>
        <pt x="436" y="852" on="1"/>
        <pt x="435" y="838" on="0"/>
        <pt x="376" y="825" on="0"/>
        <pt x="147" y="799" on="0"/>
      </contour>
      <contour>
        <pt x="188" y="705" on="0"/>
        <pt x="197" y="718" on="0"/>
        <pt x="226" y="718" on="0"/>
        <pt x="274" y="656" on="0"/>
        <pt x="273" y="585" on="0"/>
        <pt x="201" y="292" on="1"/>
        <pt x="194" y="265" on="0"/>
        <pt x="170" y="164" on="0"/>
        <pt x="156" y="110" on="0"/>
        <pt x="148" y="78" on="1"/>
        <pt x="131" y="19" on="0"/>
        <pt x="107" y="19" on="0"/>
        <pt x="67" y="67" on="0"/>
        <pt x="68" y="107" on="0"/>
        <pt x="187" y="626" on="0"/>
        <pt x="188" y="688" on="1"/>
      </contour>
    </TTGlyph>
    <TTGlyph name="Iogonek" xMin="-41" yMin="-163" xMax="274" yMax="718">
      <contour>
        <pt x="73" y="64" on="1"/>
        <pt x="68" y="77" on="0"/>
        <pt x="68" y="107" on="0"/>
        <pt x="187" y="626" on="0"/>
        <pt x="188" y="688" on="1"/>
        <pt x="188" y="705" on="0"/>
        <pt x="197" y="718" on="0"/>
        <pt x="226" y="718" on="0"/>
        <pt x="274" y="656" on="0"/>
        <pt x="273" y="585" on="0"/>
        <pt x="201" y="292" on="1"/>
        <pt x="194" y="264" on="0"/>
        <pt x="170" y="164" on="0"/>
        <pt x="163" y="136" on="1"/>
        <pt x="146" y="67" on="0"/>
        <pt x="132" y="34" on="1"/>
        <pt x="126" y="15" on="0"/>
        <pt x="105" y="-1" on="1"/>
        <pt x="40" y="-52" on="0"/>
        <pt x="40" y="-78" on="1"/>
        <pt x="40" y="-96" on="0"/>
        <pt x="74" y="-96" on="1"/>
        <pt x="85" y="-96" on="0"/>
        <pt x="117" y="-86" on="0"/>
        <pt x="122" y="-86" on="1"/>
        <pt x="150" y="-81" on="0"/>
        <pt x="158" y="-109" on="1"/>
        <pt x="161" y="-121" on="0"/>
        <pt x="139" y="-145" on="0"/>
        <pt x="78" y="-163" on="0"/>
        <pt x="11" y="-163" on="0"/>
        <pt x="-41" y="-125" on="0"/>
        <pt x="-41" y="-60" on="0"/>
        <pt x="28" y="30" on="0"/>
        <pt x="71" y="63" on="1"/>
      </contour>
    </TTGlyph>
    <TTGlyph name="J" xMin="8" yMin="13" xMax="497" yMax="724">
      <contour>
        <pt x="26" y="194" on="1"/>
        <pt x="37" y="194" on="0"/>
        <pt x="86" y="144" on="1"/>
        <pt x="105" y="126" on="0"/>
        <pt x="159" y="95" on="0"/>
        <pt x="185" y="95" on="1"/>
        <pt x="215" y="95" on="0"/>
        <pt x="273" y="230" on="0"/>
        <pt x="368" y="587" on="0"/>
        <pt x="401" y="640" on="1"/>
        <pt x="357" y="633" on="0"/>
        <pt x="198" y="595" on="0"/>
        <pt x="182" y="595" on="1"/>
        <pt x="145" y="595" on="0"/>
        <pt x="145" y="620" on="1"/>
        <pt x="145" y="654" on="0"/>
        <pt x="394" y="724" on="0"/>
        <pt x="452" y="724" on="1"/>
        <pt x="470" y="724" on="0"/>
        <pt x="497" y="708" on="0"/>
        <pt x="497" y="678" on="0"/>
        <pt x="470" y="598" on="0"/>
        <pt x="432" y="487" on="0"/>
        <pt x="423" y="457" on="1"/>
        <pt x="345" y="186" on="0"/>
        <pt x="325" y="133" on="1"/>
        <pt x="290" y="42" on="0"/>
        <pt x="246" y="22" on="1"/>
        <pt x="225" y="13" on="0"/>
        <pt x="197" y="13" on="1"/>
        <pt x="134" y="13" on="0"/>
        <pt x="8" y="125" on="0"/>
        <pt x="8" y="165" on="1"/>
        <pt x="8" y="194" on="0"/>
      </contour>
    </TTGlyph>
    <TTGlyph name="K" xMin="54" yMin="20" xMax="584" yMax="718">
      <contour>
        <pt x="105" y="20" on="1"/>
        <pt x="91" y="20" on="0"/>
        <pt x="54" y="67" on="0"/>
        <pt x="54" y="118" on="0"/>
        <pt x="184" y="622" on="0"/>
        <pt x="184" y="686" on="1"/>
        <pt x="184" y="705" on="0"/>
        <pt x="192" y="718" on="0"/>
        <pt x="220" y="718" on="0"/>
        <pt x="261" y="656" on="0"/>
        <pt x="261" y="580" on="0"/>
        <pt x="208" y="376" on="1"/>
        <pt x="299" y="503" on="0"/>
        <pt x="498" y="712" on="0"/>
        <pt x="529" y="712" on="1"/>
        <pt x="549" y="712" on="0"/>
        <pt x="584" y="686" on="0"/>
        <pt x="584" y="661" on="0"/>
        <pt x="489" y="574" on="0"/>
        <pt x="329" y="418" on="0"/>
        <pt x="272" y="340" on="1"/>
        <pt x="272" y="299" on="0"/>
        <pt x="294" y="251" on="1"/>
        <pt x="329" y="172" on="0"/>
        <pt x="438" y="118" on="1"/>
        <pt x="484" y="95" on="0"/>
        <pt x="538" y="63" on="0"/>
        <pt x="538" y="46" on="1"/>
        <pt x="538" y="20" on="0"/>
        <pt x="460" y="20" on="0"/>
        <pt x="374" y="53" on="0"/>
        <pt x="288" y="113" on="0"/>
        <pt x="217" y="212" on="0"/>
        <pt x="204" y="271" on="1"/>
        <pt x="174" y="218" on="0"/>
        <pt x="128" y="72" on="1"/>
        <pt x="115" y="20" on="0"/>
        <pt x="106" y="20" on="1"/>
      </contour>
    </TTGlyph>
    <TTGlyph name="L" xMin="62" yMin="17" xMax="492" yMax="725">
      <contour>
        <pt x="281" y="647" on="1"/>
        <pt x="281" y="577" on="0"/>
        <pt x="195" y="293" on="1"/>
        <pt x="152" y="155" on="0"/>
        <pt x="152" y="101" on="0"/>
        <pt x="178" y="101" on="1"/>
        <pt x="291" y="101" on="0"/>
        <pt x="426" y="138" on="1"/>
        <pt x="469" y="150" on="0"/>
        <pt x="486" y="150" on="0"/>
        <pt x="492" y="143" on="0"/>
        <pt x="492" y="133" on="1"/>
        <pt x="492" y="91" on="0"/>
        <pt x="287" y="17" on="0"/>
        <pt x="181" y="17" on="1"/>
        <pt x="133" y="17" on="0"/>
        <pt x="62" y="73" on="0"/>
        <pt x="62" y="150" on="0"/>
        <pt x="199" y="626" on="0"/>
        <pt x="199" y="695" on="1"/>
        <pt x="199" y="711" on="0"/>
        <pt x="208" y="725" on="0"/>
        <pt x="237" y="725" on="0"/>
        <pt x="281" y="675" on="0"/>
      </contour>
    </TTGlyph>
    <TTGlyph name="Lacute" xMin="62" yMin="17" xMax="501" yMax="962">
      <contour>
        <pt x="281" y="647" on="1"/>
        <pt x="281" y="577" on="0"/>
        <pt x="195" y="293" on="1"/>
        <pt x="152" y="155" on="0"/>
        <pt x="152" y="101" on="0"/>
        <pt x="178" y="101" on="1"/>
        <pt x="291" y="101" on="0"/>
        <pt x="426" y="138" on="1"/>
        <pt x="469" y="150" on="0"/>
        <pt x="486" y="150" on="0"/>
        <pt x="492" y="143" on="0"/>
        <pt x="492" y="133" on="1"/>
        <pt x="492" y="91" on="0"/>
        <pt x="287" y="17" on="0"/>
        <pt x="181" y="17" on="1"/>
        <pt x="133" y="17" on="0"/>
        <pt x="62" y="73" on="0"/>
        <pt x="62" y="150" on="0"/>
        <pt x="199" y="626" on="0"/>
        <pt x="199" y="695" on="1"/>
        <pt x="199" y="711" on="0"/>
        <pt x="208" y="725" on="0"/>
        <pt x="237" y="725" on="0"/>
        <pt x="281" y="675" on="0"/>
      </contour>
      <contour>
        <pt x="501" y="938" on="0"/>
        <pt x="501" y="893" on="0"/>
        <pt x="487" y="884" on="1"/>
        <pt x="353" y="790" on="0"/>
        <pt x="347" y="788" on="1"/>
        <pt x="332" y="783" on="0"/>
        <pt x="326" y="784" on="0"/>
        <pt x="322" y="784" on="1"/>
        <pt x="316" y="785" on="0"/>
        <pt x="299" y="807" on="0"/>
        <pt x="310" y="841" on="0"/>
        <pt x="326" y="857" on="1"/>
        <pt x="435" y="962" on="1"/>
        <pt x="462" y="986" on="0"/>
        <pt x="486" y="957" on="1"/>
      </contour>
    </TTGlyph>
    <TTGlyph name="Lcaron" xMin="62" yMin="17" xMax="496" yMax="725">
      <contour>
        <pt x="281" y="647" on="1"/>
        <pt x="281" y="577" on="0"/>
        <pt x="195" y="293" on="1"/>
        <pt x="152" y="155" on="0"/>
        <pt x="152" y="101" on="0"/>
        <pt x="178" y="101" on="1"/>
        <pt x="291" y="101" on="0"/>
        <pt x="426" y="138" on="1"/>
        <pt x="469" y="150" on="0"/>
        <pt x="486" y="150" on="0"/>
        <pt x="492" y="143" on="0"/>
        <pt x="492" y="133" on="1"/>
        <pt x="492" y="91" on="0"/>
        <pt x="287" y="17" on="0"/>
        <pt x="181" y="17" on="1"/>
        <pt x="133" y="17" on="0"/>
        <pt x="62" y="73" on="0"/>
        <pt x="62" y="150" on="0"/>
        <pt x="199" y="626" on="0"/>
        <pt x="199" y="695" on="1"/>
        <pt x="199" y="711" on="0"/>
        <pt x="208" y="725" on="0"/>
        <pt x="237" y="725" on="0"/>
        <pt x="281" y="675" on="0"/>
      </contour>
      <contour>
        <pt x="414" y="638" on="0"/>
        <pt x="369" y="661" on="0"/>
        <pt x="369" y="692" on="0"/>
        <pt x="402" y="720" on="0"/>
        <pt x="449" y="720" on="0"/>
        <pt x="496" y="677" on="0"/>
        <pt x="496" y="647" on="1"/>
        <pt x="496" y="596" on="0"/>
        <pt x="395" y="508" on="0"/>
        <pt x="356" y="508" on="1"/>
        <pt x="334" y="508" on="0"/>
        <pt x="334" y="526" on="1"/>
        <pt x="334" y="539" on="0"/>
        <pt x="415" y="604" on="0"/>
        <pt x="421" y="628" on="1"/>
      </contour>
    </TTGlyph>
    <TTGlyph name="Lslash" xMin="15" yMin="17" xMax="492" yMax="725">
      <contour>
        <pt x="195" y="293" on="1"/>
        <pt x="152" y="155" on="0"/>
        <pt x="152" y="101" on="0"/>
        <pt x="178" y="101" on="1"/>
        <pt x="291" y="101" on="0"/>
        <pt x="426" y="138" on="1"/>
        <pt x="469" y="150" on="0"/>
        <pt x="486" y="150" on="0"/>
        <pt x="492" y="143" on="0"/>
        <pt x="492" y="133" on="1"/>
        <pt x="492" y="91" on="0"/>
        <pt x="287" y="17" on="0"/>
        <pt x="181" y="17" on="1"/>
        <pt x="133" y="17" on="0"/>
        <pt x="62" y="73" on="0"/>
        <pt x="62" y="148" on="0"/>
        <pt x="117" y="340" on="1"/>
        <pt x="79" y="329" on="0"/>
        <pt x="77" y="329" on="1"/>
        <pt x="59" y="324" on="0"/>
        <pt x="17" y="350" on="0"/>
        <pt x="15" y="364" on="1"/>
        <pt x="9" y="387" on="0"/>
        <pt x="140" y="421" on="1"/>
        <pt x="199" y="627" on="0"/>
        <pt x="199" y="695" on="1"/>
        <pt x="199" y="711" on="0"/>
        <pt x="208" y="725" on="0"/>
        <pt x="237" y="725" on="0"/>
        <pt x="281" y="675" on="0"/>
        <pt x="281" y="647" on="1"/>
        <pt x="281" y="590" on="0"/>
        <pt x="240" y="445" on="1"/>
        <pt x="304" y="459" on="1"/>
        <pt x="366" y="472" on="0"/>
        <pt x="370" y="452" on="1"/>
        <pt x="373" y="437" on="0"/>
        <pt x="345" y="423" on="1"/>
        <pt x="323" y="412" on="0"/>
        <pt x="219" y="373" on="1"/>
      </contour>
    </TTGlyph>
    <TTGlyph name="M" xMin="56" yMin="19" xMax="783" yMax="718">
      <contour>
        <pt x="625" y="615" on="0"/>
        <pt x="707" y="707" on="0"/>
        <pt x="743" y="707" on="0"/>
        <pt x="783" y="667" on="0"/>
        <pt x="783" y="631" on="0"/>
        <pt x="775" y="585" on="0"/>
        <pt x="756" y="510" on="0"/>
        <pt x="741" y="455" on="0"/>
        <pt x="707" y="339" on="0"/>
        <pt x="689" y="270" on="0"/>
        <pt x="665" y="171" on="0"/>
        <pt x="650" y="108" on="0"/>
        <pt x="642" y="78" on="1"/>
        <pt x="627" y="20" on="0"/>
        <pt x="600" y="20" on="0"/>
        <pt x="574" y="68" on="0"/>
        <pt x="574" y="149" on="0"/>
        <pt x="643" y="439" on="0"/>
        <pt x="683" y="548" on="1"/>
        <pt x="499" y="318" on="0"/>
        <pt x="414" y="228" on="0"/>
        <pt x="359" y="228" on="0"/>
        <pt x="335" y="259" on="1"/>
        <pt x="299" y="311" on="0"/>
        <pt x="238" y="505" on="1"/>
        <pt x="219" y="383" on="0"/>
        <pt x="177" y="241" on="0"/>
        <pt x="152" y="149" on="0"/>
        <pt x="137" y="101" on="0"/>
        <pt x="128" y="73" on="1"/>
        <pt x="112" y="20" on="0"/>
        <pt x="104" y="20" on="1"/>
        <pt x="92" y="20" on="0"/>
        <pt x="56" y="72" on="0"/>
        <pt x="56" y="120" on="0"/>
        <pt x="185" y="624" on="0"/>
        <pt x="185" y="688" on="1"/>
        <pt x="185" y="705" on="0"/>
        <pt x="194" y="718" on="0"/>
        <pt x="219" y="718" on="0"/>
        <pt x="281" y="664" on="0"/>
        <pt x="283" y="643" on="1"/>
        <pt x="287" y="608" on="0"/>
        <pt x="356" y="423" on="0"/>
        <pt x="399" y="330" on="1"/>
        <pt x="455" y="396" on="0"/>
      </contour>
    </TTGlyph>
    <TTGlyph name="N" xMin="53" yMin="17" xMax="645" yMax="723">
      <contour>
        <pt x="471" y="17" on="1"/>
        <pt x="458" y="17" on="0"/>
        <pt x="425" y="43" on="0"/>
        <pt x="416" y="62" on="1"/>
        <pt x="386" y="132" on="0"/>
        <pt x="239" y="506" on="1"/>
        <pt x="213" y="404" on="0"/>
        <pt x="136" y="98" on="0"/>
        <pt x="112" y="17" on="0"/>
        <pt x="103" y="17" on="1"/>
        <pt x="90" y="17" on="0"/>
        <pt x="53" y="62" on="0"/>
        <pt x="53" y="110" on="0"/>
        <pt x="183" y="625" on="0"/>
        <pt x="185" y="689" on="1"/>
        <pt x="185" y="721" on="0"/>
        <pt x="202" y="721" on="1"/>
        <pt x="213" y="721" on="0"/>
        <pt x="252" y="684" on="0"/>
        <pt x="261" y="662" on="1"/>
        <pt x="422" y="244" on="0"/>
        <pt x="465" y="150" on="1"/>
        <pt x="507" y="269" on="0"/>
        <pt x="549" y="509" on="0"/>
        <pt x="560" y="686" on="0"/>
        <pt x="569" y="723" on="0"/>
        <pt x="601" y="723" on="0"/>
        <pt x="645" y="677" on="0"/>
        <pt x="645" y="659" on="1"/>
        <pt x="646" y="577" on="0"/>
        <pt x="594" y="275" on="0"/>
        <pt x="509" y="17" on="0"/>
      </contour>
    </TTGlyph>
    <TTGlyph name="Nacute" xMin="53" yMin="17" xMax="645" yMax="962">
      <contour>
        <pt x="471" y="17" on="1"/>
        <pt x="458" y="17" on="0"/>
        <pt x="425" y="43" on="0"/>
        <pt x="416" y="62" on="1"/>
        <pt x="386" y="132" on="0"/>
        <pt x="239" y="506" on="1"/>
        <pt x="213" y="404" on="0"/>
        <pt x="136" y="98" on="0"/>
        <pt x="112" y="17" on="0"/>
        <pt x="103" y="17" on="1"/>
        <pt x="90" y="17" on="0"/>
        <pt x="53" y="62" on="0"/>
        <pt x="53" y="110" on="0"/>
        <pt x="183" y="625" on="0"/>
        <pt x="185" y="689" on="1"/>
        <pt x="185" y="721" on="0"/>
        <pt x="202" y="721" on="1"/>
        <pt x="213" y="721" on="0"/>
        <pt x="252" y="684" on="0"/>
        <pt x="261" y="662" on="1"/>
        <pt x="422" y="244" on="0"/>
        <pt x="465" y="150" on="1"/>
        <pt x="507" y="269" on="0"/>
        <pt x="549" y="509" on="0"/>
        <pt x="560" y="686" on="0"/>
        <pt x="569" y="723" on="0"/>
        <pt x="601" y="723" on="0"/>
        <pt x="645" y="677" on="0"/>
        <pt x="645" y="659" on="1"/>
        <pt x="646" y="577" on="0"/>
        <pt x="594" y="275" on="0"/>
        <pt x="509" y="17" on="0"/>
      </contour>
      <contour>
        <pt x="599" y="938" on="0"/>
        <pt x="599" y="893" on="0"/>
        <pt x="585" y="884" on="1"/>
        <pt x="451" y="790" on="0"/>
        <pt x="439" y="786" on="0"/>
        <pt x="430" y="783" on="0"/>
        <pt x="424" y="784" on="0"/>
        <pt x="420" y="784" on="1"/>
        <pt x="414" y="785" on="0"/>
        <pt x="397" y="807" on="0"/>
        <pt x="408" y="841" on="0"/>
        <pt x="424" y="857" on="1"/>
        <pt x="533" y="962" on="1"/>
        <pt x="560" y="986" on="0"/>
        <pt x="584" y="957" on="1"/>
      </contour>
    </TTGlyph>
    <TTGlyph name="Ncaron" xMin="53" yMin="17" xMax="645" yMax="977">
      <contour>
        <pt x="471" y="17" on="1"/>
        <pt x="458" y="17" on="0"/>
        <pt x="425" y="43" on="0"/>
        <pt x="416" y="62" on="1"/>
        <pt x="386" y="132" on="0"/>
        <pt x="239" y="506" on="1"/>
        <pt x="213" y="404" on="0"/>
        <pt x="136" y="98" on="0"/>
        <pt x="112" y="17" on="0"/>
        <pt x="103" y="17" on="1"/>
        <pt x="90" y="17" on="0"/>
        <pt x="53" y="62" on="0"/>
        <pt x="53" y="110" on="0"/>
        <pt x="183" y="625" on="0"/>
        <pt x="185" y="689" on="1"/>
        <pt x="185" y="721" on="0"/>
        <pt x="202" y="721" on="1"/>
        <pt x="213" y="721" on="0"/>
        <pt x="252" y="684" on="0"/>
        <pt x="261" y="662" on="1"/>
        <pt x="422" y="244" on="0"/>
        <pt x="465" y="150" on="1"/>
        <pt x="507" y="269" on="0"/>
        <pt x="549" y="509" on="0"/>
        <pt x="560" y="686" on="0"/>
        <pt x="569" y="723" on="0"/>
        <pt x="601" y="723" on="0"/>
        <pt x="645" y="677" on="0"/>
        <pt x="645" y="659" on="1"/>
        <pt x="646" y="577" on="0"/>
        <pt x="594" y="275" on="0"/>
        <pt x="509" y="17" on="0"/>
      </contour>
      <contour>
        <pt x="565" y="943" on="1"/>
        <pt x="594" y="943" on="0"/>
        <pt x="594" y="917" on="1"/>
        <pt x="594" y="903" on="0"/>
        <pt x="571" y="880" on="0"/>
        <pt x="513" y="844" on="0"/>
        <pt x="489" y="826" on="0"/>
        <pt x="449" y="791" on="0"/>
        <pt x="425" y="774" on="0"/>
        <pt x="415" y="774" on="1"/>
        <pt x="395" y="774" on="0"/>
        <pt x="265" y="903" on="0"/>
        <pt x="265" y="940" on="1"/>
        <pt x="265" y="956" on="0"/>
        <pt x="283" y="977" on="0"/>
        <pt x="311" y="977" on="0"/>
        <pt x="340" y="943" on="0"/>
        <pt x="390" y="878" on="0"/>
        <pt x="422" y="853" on="1"/>
        <pt x="472" y="899" on="0"/>
        <pt x="549" y="943" on="0"/>
      </contour>
    </TTGlyph>
    <TTGlyph name="Ntilde" xMin="53" yMin="17" xMax="645" yMax="935">
      <contour>
        <pt x="386" y="935" on="1"/>
        <pt x="410" y="935" on="0"/>
        <pt x="447" y="911" on="0"/>
        <pt x="456" y="896" on="1"/>
        <pt x="481" y="856" on="0"/>
        <pt x="499" y="853" on="1"/>
        <pt x="516" y="856" on="0"/>
        <pt x="559" y="923" on="0"/>
        <pt x="578" y="923" on="1"/>
        <pt x="605" y="923" on="0"/>
        <pt x="602" y="853" on="0"/>
        <pt x="539" y="780" on="0"/>
        <pt x="502" y="780" on="1"/>
        <pt x="448" y="780" on="0"/>
        <pt x="390" y="868" on="1"/>
        <pt x="371" y="859" on="0"/>
        <pt x="340" y="817" on="0"/>
        <pt x="316" y="787" on="0"/>
        <pt x="286" y="787" on="0"/>
        <pt x="268" y="803" on="0"/>
        <pt x="268" y="817" on="1"/>
        <pt x="269" y="855" on="0"/>
        <pt x="346" y="935" on="0"/>
      </contour>
      <contour>
        <pt x="471" y="17" on="1"/>
        <pt x="458" y="17" on="0"/>
        <pt x="425" y="43" on="0"/>
        <pt x="416" y="62" on="1"/>
        <pt x="386" y="132" on="0"/>
        <pt x="239" y="506" on="1"/>
        <pt x="213" y="404" on="0"/>
        <pt x="136" y="98" on="0"/>
        <pt x="112" y="17" on="0"/>
        <pt x="103" y="17" on="1"/>
        <pt x="90" y="17" on="0"/>
        <pt x="53" y="62" on="0"/>
        <pt x="53" y="110" on="0"/>
        <pt x="183" y="625" on="0"/>
        <pt x="185" y="689" on="1"/>
        <pt x="185" y="721" on="0"/>
        <pt x="202" y="721" on="1"/>
        <pt x="213" y="721" on="0"/>
        <pt x="252" y="684" on="0"/>
        <pt x="261" y="662" on="1"/>
        <pt x="422" y="244" on="0"/>
        <pt x="465" y="150" on="1"/>
        <pt x="507" y="269" on="0"/>
        <pt x="549" y="509" on="0"/>
        <pt x="560" y="686" on="0"/>
        <pt x="569" y="723" on="0"/>
        <pt x="601" y="723" on="0"/>
        <pt x="645" y="677" on="0"/>
        <pt x="645" y="659" on="1"/>
        <pt x="646" y="577" on="0"/>
        <pt x="594" y="275" on="0"/>
        <pt x="509" y="17" on="0"/>
      </contour>
    </TTGlyph>
    <TTGlyph name="O" xMin="54" yMin="17" xMax="592" yMax="722">
      <contour>
        <pt x="500" y="541" on="0"/>
        <pt x="441" y="637" on="0"/>
        <pt x="361" y="637" on="0"/>
        <pt x="241" y="513" on="0"/>
        <pt x="145" y="312" on="0"/>
        <pt x="145" y="220" on="1"/>
        <pt x="145" y="165" on="0"/>
        <pt x="193" y="96" on="0"/>
        <pt x="225" y="96" on="1"/>
        <pt x="275" y="96" on="0"/>
        <pt x="406" y="214" on="0"/>
        <pt x="500" y="387" on="0"/>
      </contour>
      <contour>
        <pt x="54" y="214" on="1"/>
        <pt x="54" y="305" on="0"/>
        <pt x="121" y="493" on="0"/>
        <pt x="222" y="633" on="0"/>
        <pt x="344" y="722" on="0"/>
        <pt x="396" y="722" on="1"/>
        <pt x="480" y="722" on="0"/>
        <pt x="592" y="569" on="0"/>
        <pt x="592" y="377" on="0"/>
        <pt x="486" y="166" on="0"/>
        <pt x="309" y="17" on="0"/>
        <pt x="219" y="17" on="1"/>
        <pt x="153" y="17" on="0"/>
        <pt x="54" y="147" on="0"/>
      </contour>
    </TTGlyph>
    <TTGlyph name="OE" xMin="54" yMin="16" xMax="959" yMax="702">
      <contour>
        <pt x="549" y="326" on="1"/>
        <pt x="497" y="157" on="0"/>
        <pt x="497" y="123" on="1"/>
        <pt x="497" y="98" on="0"/>
        <pt x="524" y="98" on="1"/>
        <pt x="639" y="98" on="0"/>
        <pt x="784" y="134" on="1"/>
        <pt x="831" y="145" on="0"/>
        <pt x="838" y="145" on="1"/>
        <pt x="854" y="145" on="0"/>
        <pt x="854" y="125" on="1"/>
        <pt x="854" y="88" on="0"/>
        <pt x="627" y="16" on="0"/>
        <pt x="520" y="16" on="1"/>
        <pt x="473" y="16" on="0"/>
        <pt x="402" y="69" on="0"/>
        <pt x="402" y="103" on="1"/>
        <pt x="309" y="18" on="0"/>
        <pt x="213" y="18" on="1"/>
        <pt x="149" y="18" on="0"/>
        <pt x="54" y="142" on="0"/>
        <pt x="54" y="207" on="1"/>
        <pt x="54" y="328" on="0"/>
        <pt x="162" y="562" on="0"/>
        <pt x="317" y="702" on="0"/>
        <pt x="469" y="702" on="0"/>
        <pt x="522" y="624" on="1"/>
        <pt x="522" y="636" on="1"/>
        <pt x="522" y="654" on="0"/>
        <pt x="529" y="661" on="1"/>
        <pt x="549" y="696" on="0"/>
        <pt x="959" y="696" on="0"/>
        <pt x="959" y="667" on="1"/>
        <pt x="959" y="648" on="0"/>
        <pt x="914" y="641" on="1"/>
        <pt x="873" y="634" on="0"/>
        <pt x="755" y="625" on="0"/>
        <pt x="720" y="621" on="0"/>
        <pt x="606" y="603" on="1"/>
        <pt x="606" y="527" on="0"/>
        <pt x="570" y="399" on="1"/>
        <pt x="601" y="395" on="0"/>
        <pt x="780" y="408" on="0"/>
        <pt x="793" y="408" on="1"/>
        <pt x="830" y="408" on="0"/>
        <pt x="830" y="394" on="1"/>
        <pt x="830" y="361" on="0"/>
        <pt x="669" y="326" on="0"/>
        <pt x="550" y="326" on="1"/>
      </contour>
      <contour>
        <pt x="220" y="96" on="1"/>
        <pt x="270" y="96" on="0"/>
        <pt x="395" y="214" on="0"/>
        <pt x="481" y="380" on="0"/>
        <pt x="481" y="526" on="0"/>
        <pt x="429" y="617" on="0"/>
        <pt x="352" y="617" on="0"/>
        <pt x="236" y="499" on="0"/>
        <pt x="144" y="306" on="0"/>
        <pt x="144" y="218" on="1"/>
        <pt x="144" y="162" on="0"/>
        <pt x="188" y="96" on="0"/>
      </contour>
    </TTGlyph>
    <TTGlyph name="Oacute" xMin="54" yMin="17" xMax="654" yMax="962">
      <contour>
        <pt x="500" y="541" on="0"/>
        <pt x="441" y="637" on="0"/>
        <pt x="361" y="637" on="0"/>
        <pt x="241" y="513" on="0"/>
        <pt x="145" y="312" on="0"/>
        <pt x="145" y="220" on="1"/>
        <pt x="145" y="165" on="0"/>
        <pt x="193" y="96" on="0"/>
        <pt x="225" y="96" on="1"/>
        <pt x="275" y="96" on="0"/>
        <pt x="406" y="214" on="0"/>
        <pt x="500" y="387" on="0"/>
      </contour>
      <contour>
        <pt x="54" y="214" on="1"/>
        <pt x="54" y="305" on="0"/>
        <pt x="121" y="493" on="0"/>
        <pt x="222" y="633" on="0"/>
        <pt x="344" y="722" on="0"/>
        <pt x="396" y="722" on="1"/>
        <pt x="480" y="722" on="0"/>
        <pt x="592" y="569" on="0"/>
        <pt x="592" y="377" on="0"/>
        <pt x="486" y="166" on="0"/>
        <pt x="309" y="17" on="0"/>
        <pt x="219" y="17" on="1"/>
        <pt x="153" y="17" on="0"/>
        <pt x="54" y="147" on="0"/>
      </contour>
      <contour>
        <pt x="654" y="938" on="0"/>
        <pt x="654" y="893" on="0"/>
        <pt x="640" y="884" on="1"/>
        <pt x="522" y="801" on="0"/>
        <pt x="510" y="794" on="0"/>
        <pt x="500" y="788" on="0"/>
        <pt x="497" y="787" on="1"/>
        <pt x="485" y="783" on="0"/>
        <pt x="479" y="784" on="0"/>
        <pt x="475" y="784" on="1"/>
        <pt x="469" y="785" on="0"/>
        <pt x="452" y="807" on="0"/>
        <pt x="463" y="841" on="0"/>
        <pt x="479" y="857" on="1"/>
        <pt x="588" y="962" on="1"/>
        <pt x="615" y="986" on="0"/>
        <pt x="639" y="957" on="1"/>
      </contour>
    </TTGlyph>
    <TTGlyph name="Ocircumflex" xMin="54" yMin="17" xMax="634" yMax="961">
      <contour>
        <pt x="500" y="541" on="0"/>
        <pt x="441" y="637" on="0"/>
        <pt x="361" y="637" on="0"/>
        <pt x="241" y="513" on="0"/>
        <pt x="145" y="312" on="0"/>
        <pt x="145" y="220" on="1"/>
        <pt x="145" y="165" on="0"/>
        <pt x="193" y="96" on="0"/>
        <pt x="225" y="96" on="1"/>
        <pt x="275" y="96" on="0"/>
        <pt x="406" y="214" on="0"/>
        <pt x="500" y="387" on="0"/>
      </contour>
      <contour>
        <pt x="54" y="214" on="1"/>
        <pt x="54" y="305" on="0"/>
        <pt x="121" y="493" on="0"/>
        <pt x="222" y="633" on="0"/>
        <pt x="344" y="722" on="0"/>
        <pt x="396" y="722" on="1"/>
        <pt x="480" y="722" on="0"/>
        <pt x="592" y="569" on="0"/>
        <pt x="592" y="377" on="0"/>
        <pt x="486" y="166" on="0"/>
        <pt x="309" y="17" on="0"/>
        <pt x="219" y="17" on="1"/>
        <pt x="153" y="17" on="0"/>
        <pt x="54" y="147" on="0"/>
      </contour>
      <contour>
        <pt x="627" y="826" on="0"/>
        <pt x="634" y="808" on="0"/>
        <pt x="634" y="793" on="0"/>
        <pt x="619" y="781" on="0"/>
        <pt x="593" y="781" on="0"/>
        <pt x="547" y="819" on="0"/>
        <pt x="521" y="851" on="0"/>
        <pt x="495" y="884" on="1"/>
        <pt x="467" y="870" on="0"/>
        <pt x="406" y="822" on="0"/>
        <pt x="366" y="794" on="0"/>
        <pt x="339" y="794" on="0"/>
        <pt x="320" y="812" on="0"/>
        <pt x="320" y="830" on="1"/>
        <pt x="320" y="866" on="0"/>
        <pt x="389" y="905" on="1"/>
        <pt x="400" y="911" on="0"/>
        <pt x="432" y="931" on="0"/>
        <pt x="452" y="943" on="0"/>
        <pt x="464" y="949" on="1"/>
        <pt x="487" y="961" on="0"/>
        <pt x="506" y="961" on="0"/>
        <pt x="523" y="951" on="0"/>
        <pt x="533" y="939" on="0"/>
        <pt x="556" y="910" on="0"/>
        <pt x="568" y="896" on="0"/>
        <pt x="597" y="864" on="0"/>
        <pt x="609" y="849" on="0"/>
      </contour>
    </TTGlyph>
    <TTGlyph name="Odieresis" xMin="54" yMin="17" xMax="612" yMax="925">
      <contour>
        <pt x="500" y="541" on="0"/>
        <pt x="441" y="637" on="0"/>
        <pt x="361" y="637" on="0"/>
        <pt x="241" y="513" on="0"/>
        <pt x="145" y="312" on="0"/>
        <pt x="145" y="220" on="1"/>
        <pt x="145" y="165" on="0"/>
        <pt x="193" y="96" on="0"/>
        <pt x="225" y="96" on="1"/>
        <pt x="275" y="96" on="0"/>
        <pt x="406" y="214" on="0"/>
        <pt x="500" y="387" on="0"/>
      </contour>
      <contour>
        <pt x="54" y="214" on="1"/>
        <pt x="54" y="305" on="0"/>
        <pt x="121" y="493" on="0"/>
        <pt x="222" y="633" on="0"/>
        <pt x="344" y="722" on="0"/>
        <pt x="396" y="722" on="1"/>
        <pt x="480" y="722" on="0"/>
        <pt x="592" y="569" on="0"/>
        <pt x="592" y="377" on="0"/>
        <pt x="486" y="166" on="0"/>
        <pt x="309" y="17" on="0"/>
        <pt x="219" y="17" on="1"/>
        <pt x="153" y="17" on="0"/>
        <pt x="54" y="147" on="0"/>
      </contour>
      <contour>
        <pt x="570" y="925" on="0"/>
        <pt x="612" y="847" on="0"/>
        <pt x="612" y="816" on="0"/>
        <pt x="594" y="799" on="0"/>
        <pt x="585" y="799" on="1"/>
        <pt x="563" y="799" on="0"/>
        <pt x="509" y="852" on="0"/>
        <pt x="509" y="890" on="0"/>
        <pt x="539" y="925" on="0"/>
      </contour>
      <contour>
        <pt x="419" y="925" on="0"/>
        <pt x="461" y="847" on="0"/>
        <pt x="461" y="817" on="0"/>
        <pt x="444" y="799" on="0"/>
        <pt x="435" y="799" on="1"/>
        <pt x="412" y="799" on="0"/>
        <pt x="359" y="852" on="0"/>
        <pt x="359" y="890" on="0"/>
        <pt x="388" y="925" on="0"/>
      </contour>
    </TTGlyph>
    <TTGlyph name="Ograve" xMin="54" yMin="17" xMax="592" yMax="958">
      <contour>
        <pt x="348" y="896" on="0"/>
        <pt x="348" y="937" on="0"/>
        <pt x="365" y="953" on="1"/>
        <pt x="393" y="984" on="0"/>
        <pt x="419" y="958" on="1"/>
        <pt x="520" y="851" on="1"/>
        <pt x="555" y="816" on="0"/>
        <pt x="534" y="793" on="1"/>
        <pt x="516" y="772" on="0"/>
        <pt x="488" y="795" on="1"/>
        <pt x="478" y="803" on="0"/>
        <pt x="362" y="887" on="1"/>
      </contour>
      <contour>
        <pt x="500" y="541" on="0"/>
        <pt x="441" y="637" on="0"/>
        <pt x="361" y="637" on="0"/>
        <pt x="241" y="513" on="0"/>
        <pt x="145" y="312" on="0"/>
        <pt x="145" y="220" on="1"/>
        <pt x="145" y="165" on="0"/>
        <pt x="193" y="96" on="0"/>
        <pt x="225" y="96" on="1"/>
        <pt x="275" y="96" on="0"/>
        <pt x="406" y="214" on="0"/>
        <pt x="500" y="387" on="0"/>
      </contour>
      <contour>
        <pt x="54" y="214" on="1"/>
        <pt x="54" y="305" on="0"/>
        <pt x="121" y="493" on="0"/>
        <pt x="222" y="633" on="0"/>
        <pt x="344" y="722" on="0"/>
        <pt x="396" y="722" on="1"/>
        <pt x="480" y="722" on="0"/>
        <pt x="592" y="569" on="0"/>
        <pt x="592" y="377" on="0"/>
        <pt x="486" y="166" on="0"/>
        <pt x="309" y="17" on="0"/>
        <pt x="219" y="17" on="1"/>
        <pt x="153" y="17" on="0"/>
        <pt x="54" y="147" on="0"/>
      </contour>
    </TTGlyph>
    <TTGlyph name="Ohungarumlaut" xMin="54" yMin="17" xMax="683" yMax="996">
      <contour>
        <pt x="500" y="541" on="0"/>
        <pt x="441" y="637" on="0"/>
        <pt x="361" y="637" on="0"/>
        <pt x="241" y="513" on="0"/>
        <pt x="145" y="312" on="0"/>
        <pt x="145" y="220" on="1"/>
        <pt x="145" y="165" on="0"/>
        <pt x="193" y="96" on="0"/>
        <pt x="225" y="96" on="1"/>
        <pt x="275" y="96" on="0"/>
        <pt x="406" y="214" on="0"/>
        <pt x="500" y="387" on="0"/>
      </contour>
      <contour>
        <pt x="54" y="214" on="1"/>
        <pt x="54" y="305" on="0"/>
        <pt x="121" y="493" on="0"/>
        <pt x="222" y="633" on="0"/>
        <pt x="344" y="722" on="0"/>
        <pt x="396" y="722" on="1"/>
        <pt x="480" y="722" on="0"/>
        <pt x="592" y="569" on="0"/>
        <pt x="592" y="377" on="0"/>
        <pt x="486" y="166" on="0"/>
        <pt x="309" y="17" on="0"/>
        <pt x="219" y="17" on="1"/>
        <pt x="153" y="17" on="0"/>
        <pt x="54" y="147" on="0"/>
      </contour>
      <contour>
        <pt x="663" y="978" on="1"/>
        <pt x="680" y="964" on="0"/>
        <pt x="685" y="916" on="0"/>
        <pt x="673" y="905" on="1"/>
        <pt x="596" y="810" on="1"/>
        <pt x="559" y="770" on="0"/>
        <pt x="517" y="807" on="0"/>
        <pt x="543" y="852" on="1"/>
        <pt x="609" y="971" on="1"/>
        <pt x="631" y="1004" on="0"/>
      </contour>
      <contour>
        <pt x="503" y="989" on="1"/>
        <pt x="522" y="978" on="0"/>
        <pt x="531" y="929" on="0"/>
        <pt x="520" y="917" on="1"/>
        <pt x="454" y="815" on="1"/>
        <pt x="443" y="798" on="0"/>
        <pt x="412" y="777" on="0"/>
        <pt x="400" y="785" on="1"/>
        <pt x="375" y="802" on="0"/>
        <pt x="396" y="851" on="1"/>
        <pt x="451" y="976" on="1"/>
        <pt x="458" y="993" on="0"/>
        <pt x="488" y="999" on="0"/>
      </contour>
    </TTGlyph>
    <TTGlyph name="Omacron" xMin="54" yMin="17" xMax="649" yMax="875">
      <contour>
        <pt x="500" y="541" on="0"/>
        <pt x="441" y="637" on="0"/>
        <pt x="361" y="637" on="0"/>
        <pt x="241" y="513" on="0"/>
        <pt x="145" y="312" on="0"/>
        <pt x="145" y="220" on="1"/>
        <pt x="145" y="165" on="0"/>
        <pt x="193" y="96" on="0"/>
        <pt x="225" y="96" on="1"/>
        <pt x="275" y="96" on="0"/>
        <pt x="406" y="214" on="0"/>
        <pt x="500" y="387" on="0"/>
      </contour>
      <contour>
        <pt x="54" y="214" on="1"/>
        <pt x="54" y="305" on="0"/>
        <pt x="121" y="493" on="0"/>
        <pt x="222" y="633" on="0"/>
        <pt x="344" y="722" on="0"/>
        <pt x="396" y="722" on="1"/>
        <pt x="480" y="722" on="0"/>
        <pt x="592" y="569" on="0"/>
        <pt x="592" y="377" on="0"/>
        <pt x="486" y="166" on="0"/>
        <pt x="309" y="17" on="0"/>
        <pt x="219" y="17" on="1"/>
        <pt x="153" y="17" on="0"/>
        <pt x="54" y="147" on="0"/>
      </contour>
      <contour>
        <pt x="357" y="799" on="1"/>
        <pt x="338" y="799" on="0"/>
        <pt x="303" y="833" on="0"/>
        <pt x="304" y="867" on="0"/>
        <pt x="448" y="877" on="0"/>
        <pt x="586" y="875" on="1"/>
        <pt x="649" y="874" on="0"/>
        <pt x="649" y="852" on="1"/>
        <pt x="648" y="838" on="0"/>
        <pt x="589" y="825" on="0"/>
        <pt x="360" y="799" on="0"/>
      </contour>
    </TTGlyph>
    <TTGlyph name="Oslash" xMin="36" yMin="15" xMax="624" yMax="722">
      <contour>
        <pt x="566" y="602" on="1"/>
        <pt x="597" y="540" on="0"/>
        <pt x="597" y="377" on="0"/>
        <pt x="491" y="166" on="0"/>
        <pt x="315" y="17" on="0"/>
        <pt x="225" y="17" on="1"/>
        <pt x="168" y="17" on="0"/>
        <pt x="119" y="68" on="1"/>
        <pt x="75" y="15" on="0"/>
        <pt x="51" y="15" on="0"/>
        <pt x="36" y="32" on="0"/>
        <pt x="36" y="57" on="0"/>
        <pt x="81" y="119" on="1"/>
        <pt x="54" y="168" on="0"/>
        <pt x="54" y="214" on="1"/>
        <pt x="54" y="305" on="0"/>
        <pt x="121" y="493" on="0"/>
        <pt x="222" y="633" on="0"/>
        <pt x="344" y="722" on="0"/>
        <pt x="396" y="722" on="1"/>
        <pt x="471" y="722" on="0"/>
        <pt x="526" y="660" on="1"/>
        <pt x="579" y="715" on="0"/>
        <pt x="624" y="715" on="0"/>
        <pt x="624" y="666" on="0"/>
        <pt x="581" y="619" on="1"/>
      </contour>
      <contour>
        <pt x="146" y="200" on="1"/>
        <pt x="468" y="596" on="1"/>
        <pt x="439" y="637" on="0"/>
        <pt x="361" y="637" on="0"/>
        <pt x="241" y="513" on="0"/>
        <pt x="145" y="312" on="0"/>
        <pt x="145" y="220" on="1"/>
        <pt x="145" y="207" on="0"/>
      </contour>
      <contour>
        <pt x="505" y="458" on="1"/>
        <pt x="505" y="492" on="0"/>
        <pt x="498" y="525" on="1"/>
        <pt x="332" y="335" on="0"/>
        <pt x="171" y="132" on="1"/>
        <pt x="196" y="96" on="0"/>
        <pt x="230" y="96" on="1"/>
        <pt x="280" y="96" on="0"/>
        <pt x="411" y="214" on="0"/>
        <pt x="505" y="387" on="0"/>
      </contour>
    </TTGlyph>
    <TTGlyph name="Otilde" xMin="54" yMin="17" xMax="659" yMax="935">
      <contour>
        <pt x="441" y="935" on="1"/>
        <pt x="465" y="935" on="0"/>
        <pt x="502" y="911" on="0"/>
        <pt x="511" y="896" on="1"/>
        <pt x="536" y="856" on="0"/>
        <pt x="554" y="853" on="1"/>
        <pt x="571" y="856" on="0"/>
        <pt x="614" y="923" on="0"/>
        <pt x="633" y="923" on="1"/>
        <pt x="660" y="923" on="0"/>
        <pt x="657" y="853" on="0"/>
        <pt x="594" y="780" on="0"/>
        <pt x="557" y="780" on="1"/>
        <pt x="503" y="780" on="0"/>
        <pt x="445" y="868" on="1"/>
        <pt x="426" y="859" on="0"/>
        <pt x="395" y="817" on="0"/>
        <pt x="371" y="787" on="0"/>
        <pt x="341" y="787" on="0"/>
        <pt x="323" y="803" on="0"/>
        <pt x="323" y="817" on="1"/>
        <pt x="324" y="855" on="0"/>
        <pt x="401" y="935" on="0"/>
      </contour>
      <contour>
        <pt x="500" y="541" on="0"/>
        <pt x="441" y="637" on="0"/>
        <pt x="361" y="637" on="0"/>
        <pt x="241" y="513" on="0"/>
        <pt x="145" y="312" on="0"/>
        <pt x="145" y="220" on="1"/>
        <pt x="145" y="165" on="0"/>
        <pt x="193" y="96" on="0"/>
        <pt x="225" y="96" on="1"/>
        <pt x="275" y="96" on="0"/>
        <pt x="406" y="214" on="0"/>
        <pt x="500" y="387" on="0"/>
      </contour>
      <contour>
        <pt x="54" y="214" on="1"/>
        <pt x="54" y="305" on="0"/>
        <pt x="121" y="493" on="0"/>
        <pt x="222" y="633" on="0"/>
        <pt x="344" y="722" on="0"/>
        <pt x="396" y="722" on="1"/>
        <pt x="480" y="722" on="0"/>
        <pt x="592" y="569" on="0"/>
        <pt x="592" y="377" on="0"/>
        <pt x="486" y="166" on="0"/>
        <pt x="309" y="17" on="0"/>
        <pt x="219" y="17" on="1"/>
        <pt x="153" y="17" on="0"/>
        <pt x="54" y="147" on="0"/>
      </contour>
    </TTGlyph>
    <TTGlyph name="P" xMin="43" yMin="15" xMax="559" yMax="730">
      <contour>
        <pt x="559" y="553" on="1"/>
        <pt x="559" y="445" on="0"/>
        <pt x="352" y="295" on="0"/>
        <pt x="182" y="262" on="1"/>
        <pt x="109" y="15" on="0"/>
        <pt x="81" y="15" on="0"/>
        <pt x="43" y="60" on="0"/>
        <pt x="43" y="105" on="0"/>
        <pt x="72" y="202" on="1"/>
        <pt x="162" y="501" on="0"/>
        <pt x="166" y="619" on="1"/>
        <pt x="142" y="641" on="0"/>
        <pt x="142" y="659" on="1"/>
        <pt x="142" y="684" on="0"/>
        <pt x="278" y="730" on="0"/>
        <pt x="340" y="730" on="1"/>
        <pt x="436" y="730" on="0"/>
        <pt x="559" y="632" on="0"/>
      </contour>
      <contour>
        <pt x="471" y="547" on="1"/>
        <pt x="471" y="591" on="0"/>
        <pt x="404" y="648" on="0"/>
        <pt x="310" y="648" on="0"/>
        <pt x="243" y="618" on="1"/>
        <pt x="253" y="596" on="0"/>
        <pt x="253" y="577" on="1"/>
        <pt x="253" y="521" on="0"/>
        <pt x="204" y="340" on="1"/>
        <pt x="324" y="372" on="0"/>
        <pt x="471" y="485" on="0"/>
      </contour>
    </TTGlyph>
    <TTGlyph name="Q" xMin="57" yMin="-139" xMax="607" yMax="719">
      <contour>
        <pt x="480" y="719" on="0"/>
        <pt x="607" y="567" on="0"/>
        <pt x="607" y="376" on="0"/>
        <pt x="507" y="167" on="0"/>
        <pt x="429" y="98" on="1"/>
        <pt x="443" y="59" on="0"/>
        <pt x="485" y="-46" on="0"/>
        <pt x="505" y="-101" on="0"/>
        <pt x="505" y="-116" on="1"/>
        <pt x="505" y="-139" on="0"/>
        <pt x="480" y="-139" on="1"/>
        <pt x="435" y="-139" on="0"/>
        <pt x="362" y="52" on="1"/>
        <pt x="301" y="20" on="0"/>
        <pt x="173" y="20" on="0"/>
        <pt x="57" y="140" on="0"/>
        <pt x="57" y="214" on="1"/>
        <pt x="57" y="307" on="0"/>
        <pt x="123" y="495" on="0"/>
        <pt x="222" y="632" on="0"/>
        <pt x="343" y="719" on="0"/>
        <pt x="396" y="719" on="1"/>
      </contour>
      <contour>
        <pt x="449" y="251" on="0"/>
        <pt x="516" y="398" on="0"/>
        <pt x="516" y="540" on="0"/>
        <pt x="444" y="636" on="0"/>
        <pt x="403" y="636" on="1"/>
        <pt x="387" y="636" on="0"/>
        <pt x="368" y="628" on="1"/>
        <pt x="345" y="596" on="0"/>
        <pt x="345" y="531" on="1"/>
        <pt x="345" y="368" on="0"/>
        <pt x="398" y="191" on="1"/>
      </contour>
      <contour>
        <pt x="145" y="166" on="0"/>
        <pt x="210" y="96" on="0"/>
        <pt x="286" y="96" on="0"/>
        <pt x="334" y="131" on="1"/>
        <pt x="263" y="353" on="0"/>
        <pt x="263" y="477" on="1"/>
        <pt x="263" y="516" on="0"/>
        <pt x="270" y="545" on="1"/>
        <pt x="216" y="479" on="0"/>
        <pt x="145" y="303" on="0"/>
        <pt x="145" y="221" on="1"/>
      </contour>
    </TTGlyph>
    <TTGlyph name="R" xMin="47" yMin="16" xMax="554" yMax="721">
      <contour>
        <pt x="100" y="16" on="1"/>
        <pt x="85" y="16" on="0"/>
        <pt x="47" y="60" on="0"/>
        <pt x="47" y="105" on="0"/>
        <pt x="157" y="493" on="0"/>
        <pt x="165" y="594" on="1"/>
        <pt x="152" y="602" on="0"/>
        <pt x="132" y="636" on="0"/>
        <pt x="132" y="649" on="1"/>
        <pt x="132" y="672" on="0"/>
        <pt x="268" y="721" on="0"/>
        <pt x="433" y="721" on="0"/>
        <pt x="554" y="642" on="0"/>
        <pt x="554" y="570" on="1"/>
        <pt x="554" y="521" on="0"/>
        <pt x="499" y="436" on="0"/>
        <pt x="420" y="382" on="0"/>
        <pt x="342" y="340" on="0"/>
        <pt x="287" y="313" on="0"/>
        <pt x="287" y="307" on="1"/>
        <pt x="287" y="275" on="0"/>
        <pt x="416" y="159" on="1"/>
        <pt x="429" y="147" on="0"/>
        <pt x="470" y="113" on="0"/>
        <pt x="495" y="91" on="0"/>
        <pt x="508" y="78" on="1"/>
        <pt x="534" y="54" on="0"/>
        <pt x="534" y="41" on="1"/>
        <pt x="534" y="17" on="0"/>
        <pt x="501" y="17" on="1"/>
        <pt x="442" y="17" on="0"/>
        <pt x="219" y="226" on="0"/>
        <pt x="193" y="298" on="1"/>
        <pt x="166" y="206" on="0"/>
        <pt x="148" y="146" on="0"/>
        <pt x="133" y="94" on="0"/>
        <pt x="124" y="68" on="1"/>
        <pt x="108" y="16" on="0"/>
      </contour>
      <contour>
        <pt x="251" y="567" on="1"/>
        <pt x="251" y="502" on="0"/>
        <pt x="209" y="352" on="1"/>
        <pt x="226" y="365" on="0"/>
        <pt x="322" y="416" on="0"/>
        <pt x="399" y="458" on="0"/>
        <pt x="463" y="531" on="0"/>
        <pt x="463" y="570" on="1"/>
        <pt x="463" y="632" on="0"/>
        <pt x="355" y="632" on="1"/>
        <pt x="306" y="632" on="0"/>
        <pt x="241" y="607" on="1"/>
        <pt x="251" y="585" on="0"/>
      </contour>
    </TTGlyph>
    <TTGlyph name="Racute" xMin="42" yMin="16" xMax="565" yMax="962">
      <contour>
        <pt x="565" y="938" on="0"/>
        <pt x="565" y="893" on="0"/>
        <pt x="551" y="884" on="1"/>
        <pt x="417" y="790" on="0"/>
        <pt x="411" y="788" on="1"/>
        <pt x="396" y="783" on="0"/>
        <pt x="390" y="784" on="0"/>
        <pt x="386" y="784" on="1"/>
        <pt x="380" y="785" on="0"/>
        <pt x="363" y="807" on="0"/>
        <pt x="374" y="841" on="0"/>
        <pt x="390" y="857" on="1"/>
        <pt x="499" y="962" on="1"/>
        <pt x="526" y="986" on="0"/>
        <pt x="550" y="957" on="1"/>
      </contour>
      <contour>
        <pt x="95" y="16" on="1"/>
        <pt x="80" y="16" on="0"/>
        <pt x="42" y="60" on="0"/>
        <pt x="42" y="105" on="0"/>
        <pt x="152" y="493" on="0"/>
        <pt x="160" y="594" on="1"/>
        <pt x="147" y="602" on="0"/>
        <pt x="127" y="636" on="0"/>
        <pt x="127" y="649" on="1"/>
        <pt x="127" y="672" on="0"/>
        <pt x="263" y="721" on="0"/>
        <pt x="428" y="721" on="0"/>
        <pt x="549" y="642" on="0"/>
        <pt x="549" y="570" on="1"/>
        <pt x="549" y="521" on="0"/>
        <pt x="494" y="436" on="0"/>
        <pt x="416" y="382" on="0"/>
        <pt x="337" y="340" on="0"/>
        <pt x="282" y="313" on="0"/>
        <pt x="282" y="307" on="1"/>
        <pt x="282" y="275" on="0"/>
        <pt x="411" y="159" on="1"/>
        <pt x="424" y="147" on="0"/>
        <pt x="465" y="113" on="0"/>
        <pt x="490" y="91" on="0"/>
        <pt x="503" y="78" on="1"/>
        <pt x="529" y="54" on="0"/>
        <pt x="529" y="41" on="1"/>
        <pt x="529" y="17" on="0"/>
        <pt x="496" y="17" on="1"/>
        <pt x="437" y="17" on="0"/>
        <pt x="214" y="226" on="0"/>
        <pt x="188" y="298" on="1"/>
        <pt x="161" y="206" on="0"/>
        <pt x="143" y="146" on="0"/>
        <pt x="128" y="94" on="0"/>
        <pt x="120" y="68" on="1"/>
        <pt x="103" y="16" on="0"/>
      </contour>
      <contour>
        <pt x="458" y="570" on="1"/>
        <pt x="458" y="632" on="0"/>
        <pt x="350" y="632" on="1"/>
        <pt x="301" y="632" on="0"/>
        <pt x="236" y="607" on="1"/>
        <pt x="246" y="585" on="0"/>
        <pt x="246" y="567" on="1"/>
        <pt x="246" y="502" on="0"/>
        <pt x="204" y="352" on="1"/>
        <pt x="221" y="365" on="0"/>
        <pt x="317" y="416" on="0"/>
        <pt x="394" y="458" on="0"/>
        <pt x="458" y="531" on="0"/>
      </contour>
    </TTGlyph>
    <TTGlyph name="Rcaron" xMin="42" yMin="16" xMax="560" yMax="977">
      <contour>
        <pt x="95" y="16" on="1"/>
        <pt x="80" y="16" on="0"/>
        <pt x="42" y="60" on="0"/>
        <pt x="42" y="105" on="0"/>
        <pt x="152" y="493" on="0"/>
        <pt x="160" y="594" on="1"/>
        <pt x="147" y="602" on="0"/>
        <pt x="127" y="636" on="0"/>
        <pt x="127" y="649" on="1"/>
        <pt x="127" y="672" on="0"/>
        <pt x="263" y="721" on="0"/>
        <pt x="428" y="721" on="0"/>
        <pt x="549" y="642" on="0"/>
        <pt x="549" y="570" on="1"/>
        <pt x="549" y="521" on="0"/>
        <pt x="494" y="436" on="0"/>
        <pt x="416" y="382" on="0"/>
        <pt x="337" y="340" on="0"/>
        <pt x="282" y="313" on="0"/>
        <pt x="282" y="307" on="1"/>
        <pt x="282" y="275" on="0"/>
        <pt x="411" y="159" on="1"/>
        <pt x="424" y="147" on="0"/>
        <pt x="465" y="113" on="0"/>
        <pt x="490" y="91" on="0"/>
        <pt x="503" y="78" on="1"/>
        <pt x="529" y="54" on="0"/>
        <pt x="529" y="41" on="1"/>
        <pt x="529" y="17" on="0"/>
        <pt x="496" y="17" on="1"/>
        <pt x="437" y="17" on="0"/>
        <pt x="214" y="226" on="0"/>
        <pt x="188" y="298" on="1"/>
        <pt x="161" y="206" on="0"/>
        <pt x="143" y="146" on="0"/>
        <pt x="128" y="94" on="0"/>
        <pt x="120" y="68" on="1"/>
        <pt x="103" y="16" on="0"/>
      </contour>
      <contour>
        <pt x="458" y="570" on="1"/>
        <pt x="458" y="632" on="0"/>
        <pt x="350" y="632" on="1"/>
        <pt x="301" y="632" on="0"/>
        <pt x="236" y="607" on="1"/>
        <pt x="246" y="585" on="0"/>
        <pt x="246" y="567" on="1"/>
        <pt x="246" y="502" on="0"/>
        <pt x="204" y="352" on="1"/>
        <pt x="221" y="365" on="0"/>
        <pt x="317" y="416" on="0"/>
        <pt x="394" y="458" on="0"/>
        <pt x="458" y="531" on="0"/>
      </contour>
      <contour>
        <pt x="381" y="774" on="1"/>
        <pt x="361" y="774" on="0"/>
        <pt x="231" y="903" on="0"/>
        <pt x="231" y="940" on="1"/>
        <pt x="231" y="956" on="0"/>
        <pt x="249" y="977" on="0"/>
        <pt x="277" y="977" on="0"/>
        <pt x="306" y="943" on="0"/>
        <pt x="356" y="878" on="0"/>
        <pt x="388" y="853" on="1"/>
        <pt x="438" y="899" on="0"/>
        <pt x="515" y="943" on="0"/>
        <pt x="531" y="943" on="1"/>
        <pt x="560" y="943" on="0"/>
        <pt x="560" y="917" on="1"/>
        <pt x="560" y="903" on="0"/>
        <pt x="537" y="880" on="0"/>
        <pt x="479" y="844" on="0"/>
        <pt x="455" y="826" on="0"/>
        <pt x="415" y="791" on="0"/>
        <pt x="391" y="774" on="0"/>
      </contour>
    </TTGlyph>
    <TTGlyph name="S" xMin="5" yMin="21" xMax="508" yMax="719">
      <contour>
        <pt x="468" y="132" on="0"/>
        <pt x="320" y="21" on="0"/>
        <pt x="126" y="21" on="0"/>
        <pt x="5" y="120" on="0"/>
        <pt x="5" y="164" on="1"/>
        <pt x="5" y="194" on="0"/>
        <pt x="24" y="194" on="1"/>
        <pt x="40" y="194" on="0"/>
        <pt x="89" y="146" on="1"/>
        <pt x="107" y="129" on="0"/>
        <pt x="167" y="99" on="0"/>
        <pt x="199" y="99" on="1"/>
        <pt x="269" y="99" on="0"/>
        <pt x="378" y="171" on="0"/>
        <pt x="378" y="213" on="1"/>
        <pt x="378" y="240" on="0"/>
        <pt x="306" y="324" on="0"/>
        <pt x="219" y="399" on="0"/>
        <pt x="147" y="485" on="0"/>
        <pt x="147" y="535" on="0"/>
        <pt x="167" y="591" on="0"/>
        <pt x="179" y="604" on="1"/>
        <pt x="220" y="648" on="0"/>
        <pt x="381" y="719" on="0"/>
        <pt x="439" y="719" on="1"/>
        <pt x="468" y="719" on="0"/>
        <pt x="508" y="681" on="0"/>
        <pt x="508" y="660" on="1"/>
        <pt x="508" y="650" on="0"/>
        <pt x="466" y="638" on="0"/>
        <pt x="381" y="619" on="0"/>
        <pt x="348" y="606" on="1"/>
        <pt x="233" y="560" on="0"/>
        <pt x="233" y="521" on="1"/>
        <pt x="233" y="499" on="0"/>
        <pt x="350" y="398" on="1"/>
        <pt x="395" y="359" on="0"/>
        <pt x="468" y="256" on="0"/>
        <pt x="468" y="214" on="1"/>
      </contour>
    </TTGlyph>
    <TTGlyph name="Sacute" xMin="18" yMin="21" xMax="593" yMax="962">
      <contour>
        <pt x="481" y="132" on="0"/>
        <pt x="333" y="21" on="0"/>
        <pt x="139" y="21" on="0"/>
        <pt x="18" y="120" on="0"/>
        <pt x="18" y="164" on="1"/>
        <pt x="18" y="194" on="0"/>
        <pt x="37" y="194" on="1"/>
        <pt x="53" y="194" on="0"/>
        <pt x="102" y="146" on="1"/>
        <pt x="120" y="129" on="0"/>
        <pt x="180" y="99" on="0"/>
        <pt x="212" y="99" on="1"/>
        <pt x="282" y="99" on="0"/>
        <pt x="391" y="171" on="0"/>
        <pt x="391" y="213" on="1"/>
        <pt x="391" y="240" on="0"/>
        <pt x="319" y="324" on="0"/>
        <pt x="232" y="399" on="0"/>
        <pt x="160" y="485" on="0"/>
        <pt x="160" y="535" on="0"/>
        <pt x="180" y="591" on="0"/>
        <pt x="192" y="604" on="1"/>
        <pt x="233" y="648" on="0"/>
        <pt x="394" y="719" on="0"/>
        <pt x="452" y="719" on="1"/>
        <pt x="481" y="719" on="0"/>
        <pt x="521" y="681" on="0"/>
        <pt x="521" y="660" on="1"/>
        <pt x="521" y="650" on="0"/>
        <pt x="479" y="638" on="0"/>
        <pt x="394" y="619" on="0"/>
        <pt x="361" y="606" on="1"/>
        <pt x="246" y="560" on="0"/>
        <pt x="246" y="521" on="1"/>
        <pt x="246" y="499" on="0"/>
        <pt x="364" y="398" on="1"/>
        <pt x="408" y="359" on="0"/>
        <pt x="481" y="256" on="0"/>
        <pt x="481" y="214" on="1"/>
      </contour>
      <contour>
        <pt x="593" y="938" on="0"/>
        <pt x="593" y="893" on="0"/>
        <pt x="579" y="884" on="1"/>
        <pt x="445" y="790" on="0"/>
        <pt x="439" y="788" on="1"/>
        <pt x="424" y="783" on="0"/>
        <pt x="418" y="784" on="0"/>
        <pt x="414" y="784" on="1"/>
        <pt x="408" y="785" on="0"/>
        <pt x="391" y="807" on="0"/>
        <pt x="402" y="841" on="0"/>
        <pt x="418" y="857" on="1"/>
        <pt x="527" y="962" on="1"/>
        <pt x="554" y="986" on="0"/>
        <pt x="578" y="957" on="1"/>
      </contour>
    </TTGlyph>
    <TTGlyph name="Scaron" xMin="18" yMin="21" xMax="588" yMax="977">
      <contour>
        <pt x="481" y="132" on="0"/>
        <pt x="333" y="21" on="0"/>
        <pt x="139" y="21" on="0"/>
        <pt x="18" y="120" on="0"/>
        <pt x="18" y="164" on="1"/>
        <pt x="18" y="194" on="0"/>
        <pt x="37" y="194" on="1"/>
        <pt x="53" y="194" on="0"/>
        <pt x="102" y="146" on="1"/>
        <pt x="120" y="129" on="0"/>
        <pt x="180" y="99" on="0"/>
        <pt x="212" y="99" on="1"/>
        <pt x="282" y="99" on="0"/>
        <pt x="391" y="171" on="0"/>
        <pt x="391" y="213" on="1"/>
        <pt x="391" y="240" on="0"/>
        <pt x="319" y="324" on="0"/>
        <pt x="232" y="399" on="0"/>
        <pt x="160" y="485" on="0"/>
        <pt x="160" y="535" on="0"/>
        <pt x="180" y="591" on="0"/>
        <pt x="192" y="604" on="1"/>
        <pt x="233" y="648" on="0"/>
        <pt x="394" y="719" on="0"/>
        <pt x="452" y="719" on="1"/>
        <pt x="481" y="719" on="0"/>
        <pt x="521" y="681" on="0"/>
        <pt x="521" y="660" on="1"/>
        <pt x="521" y="650" on="0"/>
        <pt x="479" y="638" on="0"/>
        <pt x="394" y="619" on="0"/>
        <pt x="361" y="606" on="1"/>
        <pt x="246" y="560" on="0"/>
        <pt x="246" y="521" on="1"/>
        <pt x="246" y="499" on="0"/>
        <pt x="364" y="398" on="1"/>
        <pt x="408" y="359" on="0"/>
        <pt x="481" y="256" on="0"/>
        <pt x="481" y="214" on="1"/>
      </contour>
      <contour>
        <pt x="559" y="943" on="1"/>
        <pt x="588" y="943" on="0"/>
        <pt x="588" y="917" on="1"/>
        <pt x="588" y="903" on="0"/>
        <pt x="565" y="880" on="0"/>
        <pt x="507" y="844" on="0"/>
        <pt x="483" y="826" on="0"/>
        <pt x="443" y="791" on="0"/>
        <pt x="419" y="774" on="0"/>
        <pt x="409" y="774" on="1"/>
        <pt x="389" y="774" on="0"/>
        <pt x="259" y="903" on="0"/>
        <pt x="259" y="940" on="1"/>
        <pt x="259" y="956" on="0"/>
        <pt x="277" y="977" on="0"/>
        <pt x="305" y="977" on="0"/>
        <pt x="334" y="943" on="0"/>
        <pt x="384" y="878" on="0"/>
        <pt x="416" y="853" on="1"/>
        <pt x="466" y="899" on="0"/>
        <pt x="543" y="943" on="0"/>
      </contour>
    </TTGlyph>
    <TTGlyph name="T" xMin="63" yMin="19" xMax="605" yMax="714">
      <contour>
        <pt x="284" y="632" on="1"/>
        <pt x="113" y="624" on="1"/>
        <pt x="97" y="624" on="0"/>
        <pt x="63" y="666" on="0"/>
        <pt x="63" y="686" on="1"/>
        <pt x="63" y="704" on="0"/>
        <pt x="191" y="714" on="0"/>
        <pt x="389" y="714" on="1"/>
        <pt x="481" y="714" on="0"/>
        <pt x="605" y="669" on="0"/>
        <pt x="605" y="643" on="1"/>
        <pt x="605" y="624" on="0"/>
        <pt x="541" y="625" on="1"/>
        <pt x="512" y="626" on="0"/>
        <pt x="400" y="632" on="0"/>
        <pt x="367" y="633" on="1"/>
        <pt x="370" y="621" on="0"/>
        <pt x="370" y="611" on="1"/>
        <pt x="370" y="574" on="0"/>
        <pt x="240" y="56" on="0"/>
        <pt x="223" y="19" on="0"/>
        <pt x="219" y="19" on="1"/>
        <pt x="204" y="19" on="0"/>
        <pt x="167" y="64" on="0"/>
        <pt x="167" y="110" on="0"/>
        <pt x="275" y="537" on="0"/>
      </contour>
    </TTGlyph>
    <TTGlyph name="Tcaron" xMin="50" yMin="19" xMax="592" yMax="936">
      <contour>
        <pt x="271" y="632" on="1"/>
        <pt x="100" y="624" on="1"/>
        <pt x="84" y="624" on="0"/>
        <pt x="50" y="666" on="0"/>
        <pt x="50" y="686" on="1"/>
        <pt x="50" y="704" on="0"/>
        <pt x="178" y="714" on="0"/>
        <pt x="376" y="714" on="1"/>
        <pt x="468" y="714" on="0"/>
        <pt x="592" y="669" on="0"/>
        <pt x="592" y="643" on="1"/>
        <pt x="592" y="624" on="0"/>
        <pt x="528" y="625" on="1"/>
        <pt x="499" y="626" on="0"/>
        <pt x="387" y="632" on="0"/>
        <pt x="354" y="633" on="1"/>
        <pt x="357" y="621" on="0"/>
        <pt x="357" y="611" on="1"/>
        <pt x="357" y="574" on="0"/>
        <pt x="227" y="56" on="0"/>
        <pt x="210" y="19" on="0"/>
        <pt x="206" y="19" on="1"/>
        <pt x="191" y="19" on="0"/>
        <pt x="154" y="64" on="0"/>
        <pt x="154" y="110" on="0"/>
        <pt x="262" y="537" on="0"/>
      </contour>
      <contour>
        <pt x="311" y="733" on="1"/>
        <pt x="291" y="733" on="0"/>
        <pt x="161" y="862" on="0"/>
        <pt x="161" y="899" on="1"/>
        <pt x="161" y="915" on="0"/>
        <pt x="179" y="936" on="0"/>
        <pt x="207" y="936" on="0"/>
        <pt x="236" y="902" on="0"/>
        <pt x="286" y="837" on="0"/>
        <pt x="318" y="812" on="1"/>
        <pt x="368" y="858" on="0"/>
        <pt x="445" y="902" on="0"/>
        <pt x="461" y="902" on="1"/>
        <pt x="490" y="902" on="0"/>
        <pt x="490" y="876" on="1"/>
        <pt x="490" y="862" on="0"/>
        <pt x="467" y="839" on="0"/>
        <pt x="409" y="803" on="0"/>
        <pt x="385" y="785" on="0"/>
        <pt x="345" y="750" on="0"/>
        <pt x="321" y="733" on="0"/>
      </contour>
    </TTGlyph>
    <TTGlyph name="Thorn" xMin="51" yMin="15" xMax="471" yMax="681">
      <contour>
        <pt x="301" y="548" on="1"/>
        <pt x="361" y="548" on="0"/>
        <pt x="471" y="443" on="0"/>
        <pt x="471" y="386" on="1"/>
        <pt x="471" y="297" on="0"/>
        <pt x="282" y="179" on="0"/>
        <pt x="162" y="184" on="1"/>
        <pt x="123" y="42" on="0"/>
        <pt x="108" y="22" on="1"/>
        <pt x="103" y="15" on="0"/>
        <pt x="98" y="15" on="1"/>
        <pt x="83" y="15" on="0"/>
        <pt x="51" y="60" on="0"/>
        <pt x="51" y="102" on="0"/>
        <pt x="78" y="206" on="1"/>
        <pt x="158" y="524" on="0"/>
        <pt x="158" y="650" on="1"/>
        <pt x="158" y="667" on="0"/>
        <pt x="167" y="681" on="0"/>
        <pt x="200" y="681" on="0"/>
        <pt x="251" y="629" on="0"/>
        <pt x="251" y="592" on="1"/>
        <pt x="251" y="574" on="0"/>
        <pt x="245" y="540" on="1"/>
        <pt x="277" y="548" on="0"/>
      </contour>
      <contour>
        <pt x="387" y="385" on="1"/>
        <pt x="387" y="417" on="0"/>
        <pt x="331" y="458" on="0"/>
        <pt x="263" y="458" on="0"/>
        <pt x="226" y="442" on="1"/>
        <pt x="199" y="329" on="0"/>
        <pt x="182" y="262" on="1"/>
        <pt x="255" y="257" on="0"/>
        <pt x="387" y="333" on="0"/>
      </contour>
    </TTGlyph>
    <TTGlyph name="U" xMin="85" yMin="11" xMax="569" yMax="719">
      <contour>
        <pt x="206" y="719" on="0"/>
        <pt x="254" y="666" on="0"/>
        <pt x="254" y="595" on="0"/>
        <pt x="173" y="279" on="0"/>
        <pt x="173" y="166" on="0"/>
        <pt x="215" y="96" on="0"/>
        <pt x="281" y="96" on="0"/>
        <pt x="361" y="172" on="0"/>
        <pt x="430" y="295" on="0"/>
        <pt x="477" y="472" on="0"/>
        <pt x="477" y="562" on="1"/>
        <pt x="477" y="604" on="0"/>
        <pt x="468" y="688" on="0"/>
        <pt x="468" y="698" on="1"/>
        <pt x="468" y="719" on="0"/>
        <pt x="486" y="719" on="1"/>
        <pt x="507" y="719" on="0"/>
        <pt x="569" y="653" on="0"/>
        <pt x="569" y="613" on="1"/>
        <pt x="573" y="455" on="0"/>
        <pt x="482" y="175" on="0"/>
        <pt x="327" y="11" on="0"/>
        <pt x="241" y="11" on="1"/>
        <pt x="178" y="11" on="0"/>
        <pt x="85" y="133" on="0"/>
        <pt x="85" y="291" on="0"/>
        <pt x="169" y="630" on="0"/>
        <pt x="169" y="689" on="1"/>
        <pt x="169" y="706" on="0"/>
        <pt x="177" y="719" on="0"/>
      </contour>
    </TTGlyph>
    <TTGlyph name="Uacute" xMin="80" yMin="11" xMax="564" yMax="962">
      <contour>
        <pt x="201" y="719" on="0"/>
        <pt x="249" y="666" on="0"/>
        <pt x="249" y="595" on="0"/>
        <pt x="168" y="279" on="0"/>
        <pt x="168" y="166" on="0"/>
        <pt x="210" y="96" on="0"/>
        <pt x="276" y="96" on="0"/>
        <pt x="356" y="172" on="0"/>
        <pt x="425" y="295" on="0"/>
        <pt x="472" y="472" on="0"/>
        <pt x="472" y="562" on="1"/>
        <pt x="472" y="604" on="0"/>
        <pt x="463" y="688" on="0"/>
        <pt x="463" y="698" on="1"/>
        <pt x="463" y="719" on="0"/>
        <pt x="481" y="719" on="1"/>
        <pt x="502" y="719" on="0"/>
        <pt x="564" y="653" on="0"/>
        <pt x="564" y="613" on="1"/>
        <pt x="568" y="455" on="0"/>
        <pt x="477" y="175" on="0"/>
        <pt x="322" y="11" on="0"/>
        <pt x="236" y="11" on="1"/>
        <pt x="173" y="11" on="0"/>
        <pt x="80" y="133" on="0"/>
        <pt x="80" y="291" on="0"/>
        <pt x="164" y="630" on="0"/>
        <pt x="164" y="689" on="1"/>
        <pt x="164" y="706" on="0"/>
        <pt x="172" y="719" on="0"/>
      </contour>
      <contour>
        <pt x="534" y="938" on="0"/>
        <pt x="534" y="893" on="0"/>
        <pt x="520" y="884" on="1"/>
        <pt x="386" y="790" on="0"/>
        <pt x="374" y="786" on="0"/>
        <pt x="365" y="783" on="0"/>
        <pt x="359" y="784" on="0"/>
        <pt x="355" y="784" on="1"/>
        <pt x="349" y="785" on="0"/>
        <pt x="332" y="807" on="0"/>
        <pt x="343" y="841" on="0"/>
        <pt x="359" y="857" on="1"/>
        <pt x="468" y="962" on="1"/>
        <pt x="495" y="986" on="0"/>
        <pt x="519" y="957" on="1"/>
      </contour>
    </TTGlyph>
    <TTGlyph name="Ucircumflex" xMin="80" yMin="11" xMax="564" yMax="961">
      <contour>
        <pt x="201" y="719" on="0"/>
        <pt x="249" y="666" on="0"/>
        <pt x="249" y="595" on="0"/>
        <pt x="168" y="279" on="0"/>
        <pt x="168" y="166" on="0"/>
        <pt x="210" y="96" on="0"/>
        <pt x="276" y="96" on="0"/>
        <pt x="356" y="172" on="0"/>
        <pt x="425" y="295" on="0"/>
        <pt x="472" y="472" on="0"/>
        <pt x="472" y="562" on="1"/>
        <pt x="472" y="604" on="0"/>
        <pt x="463" y="688" on="0"/>
        <pt x="463" y="698" on="1"/>
        <pt x="463" y="719" on="0"/>
        <pt x="481" y="719" on="1"/>
        <pt x="502" y="719" on="0"/>
        <pt x="564" y="653" on="0"/>
        <pt x="564" y="613" on="1"/>
        <pt x="568" y="455" on="0"/>
        <pt x="477" y="175" on="0"/>
        <pt x="322" y="11" on="0"/>
        <pt x="236" y="11" on="1"/>
        <pt x="173" y="11" on="0"/>
        <pt x="80" y="133" on="0"/>
        <pt x="80" y="291" on="0"/>
        <pt x="164" y="630" on="0"/>
        <pt x="164" y="689" on="1"/>
        <pt x="164" y="706" on="0"/>
        <pt x="172" y="719" on="0"/>
      </contour>
      <contour>
        <pt x="507" y="826" on="0"/>
        <pt x="514" y="808" on="0"/>
        <pt x="514" y="793" on="0"/>
        <pt x="499" y="781" on="0"/>
        <pt x="473" y="781" on="0"/>
        <pt x="427" y="819" on="0"/>
        <pt x="401" y="851" on="0"/>
        <pt x="375" y="884" on="1"/>
        <pt x="347" y="870" on="0"/>
        <pt x="286" y="822" on="0"/>
        <pt x="246" y="794" on="0"/>
        <pt x="219" y="794" on="0"/>
        <pt x="200" y="812" on="0"/>
        <pt x="200" y="830" on="1"/>
        <pt x="200" y="866" on="0"/>
        <pt x="269" y="905" on="1"/>
        <pt x="280" y="911" on="0"/>
        <pt x="312" y="931" on="0"/>
        <pt x="332" y="943" on="0"/>
        <pt x="344" y="949" on="1"/>
        <pt x="366" y="961" on="0"/>
        <pt x="386" y="961" on="0"/>
        <pt x="403" y="951" on="0"/>
        <pt x="413" y="939" on="0"/>
        <pt x="436" y="910" on="0"/>
        <pt x="448" y="896" on="0"/>
        <pt x="477" y="864" on="0"/>
        <pt x="489" y="849" on="0"/>
      </contour>
    </TTGlyph>
    <TTGlyph name="Udieresis" xMin="80" yMin="11" xMax="564" yMax="925">
      <contour>
        <pt x="201" y="719" on="0"/>
        <pt x="249" y="666" on="0"/>
        <pt x="249" y="595" on="0"/>
        <pt x="168" y="279" on="0"/>
        <pt x="168" y="166" on="0"/>
        <pt x="210" y="96" on="0"/>
        <pt x="276" y="96" on="0"/>
        <pt x="356" y="172" on="0"/>
        <pt x="425" y="295" on="0"/>
        <pt x="472" y="472" on="0"/>
        <pt x="472" y="562" on="1"/>
        <pt x="472" y="604" on="0"/>
        <pt x="463" y="688" on="0"/>
        <pt x="463" y="698" on="1"/>
        <pt x="463" y="719" on="0"/>
        <pt x="481" y="719" on="1"/>
        <pt x="502" y="719" on="0"/>
        <pt x="564" y="653" on="0"/>
        <pt x="564" y="613" on="1"/>
        <pt x="568" y="455" on="0"/>
        <pt x="477" y="175" on="0"/>
        <pt x="322" y="11" on="0"/>
        <pt x="236" y="11" on="1"/>
        <pt x="173" y="11" on="0"/>
        <pt x="80" y="133" on="0"/>
        <pt x="80" y="291" on="0"/>
        <pt x="164" y="630" on="0"/>
        <pt x="164" y="689" on="1"/>
        <pt x="164" y="706" on="0"/>
        <pt x="172" y="719" on="0"/>
      </contour>
      <contour>
        <pt x="450" y="925" on="0"/>
        <pt x="492" y="847" on="0"/>
        <pt x="492" y="816" on="0"/>
        <pt x="474" y="799" on="0"/>
        <pt x="465" y="799" on="1"/>
        <pt x="443" y="799" on="0"/>
        <pt x="389" y="852" on="0"/>
        <pt x="389" y="890" on="0"/>
        <pt x="419" y="925" on="0"/>
      </contour>
      <contour>
        <pt x="299" y="925" on="0"/>
        <pt x="341" y="847" on="0"/>
        <pt x="341" y="817" on="0"/>
        <pt x="324" y="799" on="0"/>
        <pt x="315" y="799" on="1"/>
        <pt x="292" y="799" on="0"/>
        <pt x="239" y="852" on="0"/>
        <pt x="239" y="890" on="0"/>
        <pt x="268" y="925" on="0"/>
      </contour>
    </TTGlyph>
    <TTGlyph name="Ugrave" xMin="80" yMin="11" xMax="564" yMax="958">
      <contour>
        <pt x="228" y="896" on="0"/>
        <pt x="228" y="937" on="0"/>
        <pt x="245" y="953" on="1"/>
        <pt x="273" y="984" on="0"/>
        <pt x="299" y="958" on="1"/>
        <pt x="400" y="851" on="1"/>
        <pt x="435" y="816" on="0"/>
        <pt x="414" y="793" on="1"/>
        <pt x="396" y="772" on="0"/>
        <pt x="368" y="795" on="1"/>
        <pt x="357" y="803" on="0"/>
        <pt x="242" y="887" on="1"/>
      </contour>
      <contour>
        <pt x="201" y="719" on="0"/>
        <pt x="249" y="666" on="0"/>
        <pt x="249" y="595" on="0"/>
        <pt x="168" y="279" on="0"/>
        <pt x="168" y="166" on="0"/>
        <pt x="210" y="96" on="0"/>
        <pt x="276" y="96" on="0"/>
        <pt x="356" y="172" on="0"/>
        <pt x="425" y="295" on="0"/>
        <pt x="472" y="472" on="0"/>
        <pt x="472" y="562" on="1"/>
        <pt x="472" y="604" on="0"/>
        <pt x="463" y="688" on="0"/>
        <pt x="463" y="698" on="1"/>
        <pt x="463" y="719" on="0"/>
        <pt x="481" y="719" on="1"/>
        <pt x="502" y="719" on="0"/>
        <pt x="564" y="653" on="0"/>
        <pt x="564" y="613" on="1"/>
        <pt x="568" y="455" on="0"/>
        <pt x="477" y="175" on="0"/>
        <pt x="322" y="11" on="0"/>
        <pt x="236" y="11" on="1"/>
        <pt x="173" y="11" on="0"/>
        <pt x="80" y="133" on="0"/>
        <pt x="80" y="291" on="0"/>
        <pt x="164" y="630" on="0"/>
        <pt x="164" y="689" on="1"/>
        <pt x="164" y="706" on="0"/>
        <pt x="172" y="719" on="0"/>
      </contour>
    </TTGlyph>
    <TTGlyph name="Uhungarumlaut" xMin="80" yMin="11" xMax="564" yMax="996">
      <contour>
        <pt x="543" y="978" on="1"/>
        <pt x="560" y="964" on="0"/>
        <pt x="565" y="916" on="0"/>
        <pt x="553" y="905" on="1"/>
        <pt x="476" y="810" on="1"/>
        <pt x="439" y="770" on="0"/>
        <pt x="397" y="807" on="0"/>
        <pt x="423" y="852" on="1"/>
        <pt x="489" y="971" on="1"/>
        <pt x="511" y="1004" on="0"/>
      </contour>
      <contour>
        <pt x="383" y="989" on="1"/>
        <pt x="402" y="978" on="0"/>
        <pt x="411" y="929" on="0"/>
        <pt x="400" y="917" on="1"/>
        <pt x="334" y="815" on="1"/>
        <pt x="323" y="798" on="0"/>
        <pt x="292" y="777" on="0"/>
        <pt x="280" y="785" on="1"/>
        <pt x="255" y="802" on="0"/>
        <pt x="276" y="851" on="1"/>
        <pt x="331" y="976" on="1"/>
        <pt x="338" y="993" on="0"/>
        <pt x="368" y="999" on="0"/>
      </contour>
      <contour>
        <pt x="201" y="719" on="0"/>
        <pt x="249" y="666" on="0"/>
        <pt x="249" y="595" on="0"/>
        <pt x="168" y="279" on="0"/>
        <pt x="168" y="166" on="0"/>
        <pt x="210" y="96" on="0"/>
        <pt x="276" y="96" on="0"/>
        <pt x="356" y="172" on="0"/>
        <pt x="425" y="295" on="0"/>
        <pt x="472" y="472" on="0"/>
        <pt x="472" y="562" on="1"/>
        <pt x="472" y="604" on="0"/>
        <pt x="463" y="688" on="0"/>
        <pt x="463" y="698" on="1"/>
        <pt x="463" y="719" on="0"/>
        <pt x="481" y="719" on="1"/>
        <pt x="502" y="719" on="0"/>
        <pt x="564" y="653" on="0"/>
        <pt x="564" y="613" on="1"/>
        <pt x="568" y="455" on="0"/>
        <pt x="477" y="175" on="0"/>
        <pt x="322" y="11" on="0"/>
        <pt x="236" y="11" on="1"/>
        <pt x="173" y="11" on="0"/>
        <pt x="80" y="133" on="0"/>
        <pt x="80" y="291" on="0"/>
        <pt x="164" y="630" on="0"/>
        <pt x="164" y="689" on="1"/>
        <pt x="164" y="706" on="0"/>
        <pt x="172" y="719" on="0"/>
      </contour>
    </TTGlyph>
    <TTGlyph name="Umacron" xMin="80" yMin="11" xMax="564" yMax="875">
      <contour>
        <pt x="237" y="799" on="1"/>
        <pt x="218" y="799" on="0"/>
        <pt x="183" y="833" on="0"/>
        <pt x="184" y="867" on="0"/>
        <pt x="328" y="877" on="0"/>
        <pt x="466" y="875" on="1"/>
        <pt x="529" y="874" on="0"/>
        <pt x="529" y="852" on="1"/>
        <pt x="528" y="838" on="0"/>
        <pt x="469" y="825" on="0"/>
        <pt x="240" y="799" on="0"/>
      </contour>
      <contour>
        <pt x="201" y="719" on="0"/>
        <pt x="249" y="666" on="0"/>
        <pt x="249" y="595" on="0"/>
        <pt x="168" y="279" on="0"/>
        <pt x="168" y="166" on="0"/>
        <pt x="210" y="96" on="0"/>
        <pt x="276" y="96" on="0"/>
        <pt x="356" y="172" on="0"/>
        <pt x="425" y="295" on="0"/>
        <pt x="472" y="472" on="0"/>
        <pt x="472" y="562" on="1"/>
        <pt x="472" y="604" on="0"/>
        <pt x="463" y="688" on="0"/>
        <pt x="463" y="698" on="1"/>
        <pt x="463" y="719" on="0"/>
        <pt x="481" y="719" on="1"/>
        <pt x="502" y="719" on="0"/>
        <pt x="564" y="653" on="0"/>
        <pt x="564" y="613" on="1"/>
        <pt x="568" y="455" on="0"/>
        <pt x="477" y="175" on="0"/>
        <pt x="322" y="11" on="0"/>
        <pt x="236" y="11" on="1"/>
        <pt x="173" y="11" on="0"/>
        <pt x="80" y="133" on="0"/>
        <pt x="80" y="291" on="0"/>
        <pt x="164" y="630" on="0"/>
        <pt x="164" y="689" on="1"/>
        <pt x="164" y="706" on="0"/>
        <pt x="172" y="719" on="0"/>
      </contour>
    </TTGlyph>
    <TTGlyph name="Uogonek" xMin="80" yMin="-164" xMax="564" yMax="719">
      <contour>
        <pt x="196" y="-79" on="1"/>
        <pt x="196" y="-97" on="0"/>
        <pt x="230" y="-97" on="1"/>
        <pt x="241" y="-97" on="0"/>
        <pt x="273" y="-87" on="0"/>
        <pt x="278" y="-87" on="1"/>
        <pt x="306" y="-82" on="0"/>
        <pt x="314" y="-110" on="1"/>
        <pt x="317" y="-122" on="0"/>
        <pt x="295" y="-146" on="0"/>
        <pt x="233" y="-164" on="0"/>
        <pt x="167" y="-164" on="0"/>
        <pt x="115" y="-126" on="0"/>
        <pt x="115" y="-100" on="1"/>
        <pt x="115" y="-47" on="0"/>
        <pt x="184" y="24" on="1"/>
        <pt x="139" y="46" on="0"/>
        <pt x="80" y="150" on="0"/>
        <pt x="80" y="206" on="1"/>
        <pt x="80" y="291" on="0"/>
        <pt x="164" y="630" on="0"/>
        <pt x="164" y="689" on="1"/>
        <pt x="164" y="706" on="0"/>
        <pt x="172" y="719" on="0"/>
        <pt x="201" y="719" on="0"/>
        <pt x="249" y="666" on="0"/>
        <pt x="249" y="595" on="0"/>
        <pt x="168" y="279" on="0"/>
        <pt x="168" y="166" on="0"/>
        <pt x="210" y="96" on="0"/>
        <pt x="276" y="96" on="0"/>
        <pt x="356" y="172" on="0"/>
        <pt x="425" y="295" on="0"/>
        <pt x="472" y="472" on="0"/>
        <pt x="472" y="562" on="1"/>
        <pt x="472" y="604" on="0"/>
        <pt x="463" y="688" on="0"/>
        <pt x="463" y="698" on="1"/>
        <pt x="463" y="719" on="0"/>
        <pt x="481" y="719" on="1"/>
        <pt x="502" y="719" on="0"/>
        <pt x="564" y="653" on="0"/>
        <pt x="564" y="613" on="1"/>
        <pt x="567" y="504" on="0"/>
        <pt x="523" y="297" on="0"/>
        <pt x="445" y="140" on="0"/>
        <pt x="338" y="32" on="0"/>
        <pt x="279" y="17" on="1"/>
        <pt x="274" y="7" on="0"/>
        <pt x="261" y="-2" on="1"/>
        <pt x="196" y="-53" on="0"/>
      </contour>
    </TTGlyph>
    <TTGlyph name="Uring" xMin="80" yMin="11" xMax="564" yMax="967">
      <contour>
        <pt x="201" y="719" on="0"/>
        <pt x="249" y="666" on="0"/>
        <pt x="249" y="595" on="0"/>
        <pt x="168" y="279" on="0"/>
        <pt x="168" y="166" on="0"/>
        <pt x="210" y="96" on="0"/>
        <pt x="276" y="96" on="0"/>
        <pt x="356" y="172" on="0"/>
        <pt x="425" y="295" on="0"/>
        <pt x="472" y="472" on="0"/>
        <pt x="472" y="562" on="1"/>
        <pt x="472" y="604" on="0"/>
        <pt x="463" y="688" on="0"/>
        <pt x="463" y="698" on="1"/>
        <pt x="463" y="719" on="0"/>
        <pt x="481" y="719" on="1"/>
        <pt x="502" y="719" on="0"/>
        <pt x="564" y="653" on="0"/>
        <pt x="564" y="613" on="1"/>
        <pt x="568" y="455" on="0"/>
        <pt x="477" y="175" on="0"/>
        <pt x="322" y="11" on="0"/>
        <pt x="236" y="11" on="1"/>
        <pt x="173" y="11" on="0"/>
        <pt x="80" y="133" on="0"/>
        <pt x="80" y="291" on="0"/>
        <pt x="164" y="630" on="0"/>
        <pt x="164" y="689" on="1"/>
        <pt x="164" y="706" on="0"/>
        <pt x="172" y="719" on="0"/>
      </contour>
      <contour>
        <pt x="412" y="885" on="0"/>
        <pt x="396" y="911" on="0"/>
        <pt x="372" y="911" on="0"/>
        <pt x="351" y="885" on="0"/>
        <pt x="348" y="850" on="0"/>
        <pt x="363" y="825" on="0"/>
        <pt x="389" y="825" on="0"/>
        <pt x="408" y="850" on="0"/>
      </contour>
      <contour>
        <pt x="297" y="910" on="0"/>
        <pt x="354" y="967" on="0"/>
        <pt x="427" y="967" on="0"/>
        <pt x="473" y="910" on="0"/>
        <pt x="463" y="829" on="0"/>
        <pt x="406" y="772" on="0"/>
        <pt x="333" y="772" on="0"/>
        <pt x="287" y="829" on="0"/>
      </contour>
    </TTGlyph>
    <TTGlyph name="V" xMin="69" yMin="13" xMax="593" yMax="718">
      <contour>
        <pt x="545" y="718" on="1"/>
        <pt x="561" y="718" on="0"/>
        <pt x="593" y="695" on="0"/>
        <pt x="593" y="662" on="0"/>
        <pt x="556" y="590" on="0"/>
        <pt x="466" y="431" on="0"/>
        <pt x="402" y="303" on="0"/>
        <pt x="345" y="180" on="0"/>
        <pt x="312" y="107" on="0"/>
        <pt x="296" y="74" on="1"/>
        <pt x="264" y="13" on="0"/>
        <pt x="243" y="13" on="1"/>
        <pt x="231" y="13" on="0"/>
        <pt x="197" y="52" on="0"/>
        <pt x="187" y="77" on="1"/>
        <pt x="161" y="140" on="0"/>
        <pt x="69" y="631" on="0"/>
        <pt x="69" y="687" on="1"/>
        <pt x="69" y="718" on="0"/>
        <pt x="86" y="718" on="1"/>
        <pt x="107" y="718" on="0"/>
        <pt x="151" y="675" on="0"/>
        <pt x="164" y="642" on="1"/>
        <pt x="170" y="624" on="0"/>
        <pt x="217" y="261" on="0"/>
        <pt x="247" y="147" on="1"/>
        <pt x="311" y="328" on="0"/>
        <pt x="513" y="718" on="0"/>
      </contour>
    </TTGlyph>
    <TTGlyph name="W" xMin="72" yMin="19" xMax="735" yMax="719">
      <contour>
        <pt x="498" y="719" on="1"/>
        <pt x="615" y="719" on="0"/>
        <pt x="735" y="533" on="0"/>
        <pt x="735" y="251" on="0"/>
        <pt x="596" y="20" on="0"/>
        <pt x="505" y="20" on="1"/>
        <pt x="441" y="20" on="0"/>
        <pt x="381" y="164" on="0"/>
        <pt x="372" y="297" on="1"/>
        <pt x="330" y="238" on="0"/>
        <pt x="276" y="163" on="1"/>
        <pt x="172" y="19" on="0"/>
        <pt x="130" y="19" on="1"/>
        <pt x="114" y="19" on="0"/>
        <pt x="71" y="72" on="0"/>
        <pt x="72" y="102" on="1"/>
        <pt x="75" y="167" on="0"/>
        <pt x="125" y="558" on="0"/>
        <pt x="126" y="681" on="1"/>
        <pt x="127" y="718" on="0"/>
        <pt x="170" y="718" on="0"/>
        <pt x="230" y="665" on="0"/>
        <pt x="227" y="620" on="0"/>
        <pt x="164" y="250" on="0"/>
        <pt x="155" y="135" on="1"/>
        <pt x="215" y="237" on="0"/>
        <pt x="369" y="413" on="0"/>
        <pt x="401" y="413" on="1"/>
        <pt x="435" y="413" on="0"/>
        <pt x="448" y="263" on="1"/>
        <pt x="453" y="207" on="0"/>
        <pt x="482" y="113" on="0"/>
        <pt x="507" y="113" on="1"/>
        <pt x="563" y="113" on="0"/>
        <pt x="646" y="294" on="0"/>
        <pt x="646" y="404" on="1"/>
        <pt x="646" y="525" on="0"/>
        <pt x="592" y="591" on="1"/>
        <pt x="564" y="626" on="0"/>
        <pt x="494" y="627" on="0"/>
        <pt x="450" y="669" on="0"/>
        <pt x="450" y="690" on="1"/>
        <pt x="450" y="719" on="0"/>
      </contour>
    </TTGlyph>
    <TTGlyph name="X" xMin="25" yMin="19" xMax="627" yMax="719">
      <contour>
        <pt x="574" y="715" on="1"/>
        <pt x="586" y="715" on="0"/>
        <pt x="627" y="673" on="0"/>
        <pt x="626" y="650" on="0"/>
        <pt x="614" y="639" on="0"/>
        <pt x="586" y="621" on="0"/>
        <pt x="576" y="612" on="1"/>
        <pt x="540" y="576" on="0"/>
        <pt x="358" y="343" on="1"/>
        <pt x="385" y="299" on="0"/>
        <pt x="488" y="143" on="0"/>
        <pt x="533" y="66" on="0"/>
        <pt x="532" y="36" on="0"/>
        <pt x="516" y="19" on="0"/>
        <pt x="506" y="19" on="1"/>
        <pt x="481" y="19" on="0"/>
        <pt x="367" y="162" on="0"/>
        <pt x="302" y="270" on="1"/>
        <pt x="284" y="246" on="0"/>
        <pt x="227" y="172" on="0"/>
        <pt x="199" y="135" on="0"/>
        <pt x="157" y="82" on="0"/>
        <pt x="133" y="57" on="0"/>
        <pt x="119" y="44" on="1"/>
        <pt x="95" y="20" on="0"/>
        <pt x="59" y="20" on="0"/>
        <pt x="24" y="46" on="0"/>
        <pt x="25" y="58" on="1"/>
        <pt x="25" y="68" on="0"/>
        <pt x="36" y="78" on="1"/>
        <pt x="108" y="151" on="0"/>
        <pt x="257" y="347" on="1"/>
        <pt x="118" y="596" on="0"/>
        <pt x="122" y="692" on="1"/>
        <pt x="124" y="719" on="0"/>
        <pt x="136" y="719" on="1"/>
        <pt x="166" y="719" on="0"/>
        <pt x="223" y="691" on="0"/>
        <pt x="222" y="671" on="1"/>
        <pt x="219" y="585" on="0"/>
        <pt x="312" y="421" on="1"/>
        <pt x="338" y="456" on="1"/>
        <pt x="450" y="612" on="0"/>
        <pt x="546" y="715" on="0"/>
      </contour>
    </TTGlyph>
    <TTGlyph name="Y" xMin="92" yMin="9" xMax="607" yMax="716">
      <contour>
        <pt x="327" y="373" on="1"/>
        <pt x="345" y="373" on="0"/>
        <pt x="440" y="544" on="0"/>
        <pt x="539" y="716" on="0"/>
        <pt x="581" y="716" on="0"/>
        <pt x="607" y="686" on="0"/>
        <pt x="607" y="644" on="0"/>
        <pt x="531" y="518" on="0"/>
        <pt x="403" y="311" on="0"/>
        <pt x="275" y="69" on="0"/>
        <pt x="227" y="9" on="0"/>
        <pt x="212" y="9" on="1"/>
        <pt x="190" y="9" on="0"/>
        <pt x="190" y="45" on="1"/>
        <pt x="190" y="73" on="0"/>
        <pt x="218" y="130" on="1"/>
        <pt x="227" y="147" on="0"/>
        <pt x="237" y="170" on="0"/>
        <pt x="259" y="212" on="0"/>
        <pt x="271" y="235" on="0"/>
        <pt x="296" y="284" on="0"/>
        <pt x="302" y="295" on="1"/>
        <pt x="217" y="321" on="0"/>
        <pt x="102" y="516" on="0"/>
        <pt x="92" y="639" on="1"/>
        <pt x="87" y="716" on="0"/>
        <pt x="132" y="716" on="1"/>
        <pt x="148" y="716" on="0"/>
        <pt x="167" y="654" on="0"/>
        <pt x="195" y="538" on="0"/>
        <pt x="241" y="441" on="0"/>
        <pt x="305" y="373" on="0"/>
      </contour>
    </TTGlyph>
    <TTGlyph name="Yacute" xMin="92" yMin="9" xMax="607" yMax="962">
      <contour>
        <pt x="540" y="938" on="0"/>
        <pt x="540" y="893" on="0"/>
        <pt x="526" y="884" on="1"/>
        <pt x="408" y="801" on="0"/>
        <pt x="396" y="794" on="0"/>
        <pt x="386" y="788" on="0"/>
        <pt x="383" y="787" on="1"/>
        <pt x="371" y="783" on="0"/>
        <pt x="365" y="784" on="0"/>
        <pt x="361" y="784" on="1"/>
        <pt x="355" y="785" on="0"/>
        <pt x="338" y="807" on="0"/>
        <pt x="349" y="841" on="0"/>
        <pt x="365" y="857" on="1"/>
        <pt x="474" y="962" on="1"/>
        <pt x="501" y="986" on="0"/>
        <pt x="525" y="957" on="1"/>
      </contour>
      <contour>
        <pt x="327" y="373" on="1"/>
        <pt x="345" y="373" on="0"/>
        <pt x="440" y="544" on="0"/>
        <pt x="539" y="716" on="0"/>
        <pt x="581" y="716" on="0"/>
        <pt x="607" y="686" on="0"/>
        <pt x="607" y="644" on="0"/>
        <pt x="531" y="518" on="0"/>
        <pt x="403" y="311" on="0"/>
        <pt x="275" y="69" on="0"/>
        <pt x="227" y="9" on="0"/>
        <pt x="212" y="9" on="1"/>
        <pt x="190" y="9" on="0"/>
        <pt x="190" y="45" on="1"/>
        <pt x="190" y="73" on="0"/>
        <pt x="218" y="130" on="1"/>
        <pt x="227" y="147" on="0"/>
        <pt x="237" y="170" on="0"/>
        <pt x="259" y="212" on="0"/>
        <pt x="271" y="235" on="0"/>
        <pt x="296" y="284" on="0"/>
        <pt x="302" y="295" on="1"/>
        <pt x="217" y="321" on="0"/>
        <pt x="102" y="516" on="0"/>
        <pt x="92" y="639" on="1"/>
        <pt x="87" y="716" on="0"/>
        <pt x="132" y="716" on="1"/>
        <pt x="148" y="716" on="0"/>
        <pt x="167" y="654" on="0"/>
        <pt x="195" y="538" on="0"/>
        <pt x="241" y="441" on="0"/>
        <pt x="305" y="373" on="0"/>
      </contour>
    </TTGlyph>
    <TTGlyph name="Ydieresis" xMin="92" yMin="9" xMax="607" yMax="925">
      <contour>
        <pt x="456" y="925" on="0"/>
        <pt x="498" y="847" on="0"/>
        <pt x="498" y="816" on="0"/>
        <pt x="480" y="799" on="0"/>
        <pt x="471" y="799" on="1"/>
        <pt x="449" y="799" on="0"/>
        <pt x="395" y="852" on="0"/>
        <pt x="395" y="890" on="0"/>
        <pt x="425" y="925" on="0"/>
      </contour>
      <contour>
        <pt x="305" y="925" on="0"/>
        <pt x="347" y="847" on="0"/>
        <pt x="347" y="817" on="0"/>
        <pt x="330" y="799" on="0"/>
        <pt x="321" y="799" on="1"/>
        <pt x="298" y="799" on="0"/>
        <pt x="245" y="852" on="0"/>
        <pt x="245" y="890" on="0"/>
        <pt x="274" y="925" on="0"/>
      </contour>
      <contour>
        <pt x="327" y="373" on="1"/>
        <pt x="345" y="373" on="0"/>
        <pt x="440" y="544" on="0"/>
        <pt x="539" y="716" on="0"/>
        <pt x="581" y="716" on="0"/>
        <pt x="607" y="686" on="0"/>
        <pt x="607" y="644" on="0"/>
        <pt x="531" y="518" on="0"/>
        <pt x="403" y="311" on="0"/>
        <pt x="275" y="69" on="0"/>
        <pt x="227" y="9" on="0"/>
        <pt x="212" y="9" on="1"/>
        <pt x="190" y="9" on="0"/>
        <pt x="190" y="45" on="1"/>
        <pt x="190" y="73" on="0"/>
        <pt x="218" y="130" on="1"/>
        <pt x="227" y="147" on="0"/>
        <pt x="237" y="170" on="0"/>
        <pt x="259" y="212" on="0"/>
        <pt x="271" y="235" on="0"/>
        <pt x="296" y="284" on="0"/>
        <pt x="302" y="295" on="1"/>
        <pt x="217" y="321" on="0"/>
        <pt x="102" y="516" on="0"/>
        <pt x="92" y="639" on="1"/>
        <pt x="87" y="716" on="0"/>
        <pt x="132" y="716" on="1"/>
        <pt x="148" y="716" on="0"/>
        <pt x="167" y="654" on="0"/>
        <pt x="195" y="538" on="0"/>
        <pt x="241" y="441" on="0"/>
        <pt x="305" y="373" on="0"/>
      </contour>
    </TTGlyph>
    <TTGlyph name="Z" xMin="59" yMin="21" xMax="562" yMax="710">
      <contour>
        <pt x="157" y="130" on="1"/>
        <pt x="157" y="121" on="0"/>
        <pt x="171" y="107" on="0"/>
        <pt x="183" y="107" on="1"/>
        <pt x="236" y="107" on="0"/>
        <pt x="469" y="140" on="0"/>
        <pt x="537" y="140" on="0"/>
        <pt x="537" y="116" on="1"/>
        <pt x="537" y="84" on="0"/>
        <pt x="287" y="21" on="0"/>
        <pt x="160" y="21" on="1"/>
        <pt x="122" y="21" on="0"/>
        <pt x="59" y="90" on="0"/>
        <pt x="59" y="164" on="0"/>
        <pt x="191" y="301" on="0"/>
        <pt x="349" y="425" on="0"/>
        <pt x="479" y="550" on="0"/>
        <pt x="479" y="579" on="1"/>
        <pt x="478" y="598" on="0"/>
        <pt x="376" y="625" on="0"/>
        <pt x="286" y="622" on="0"/>
        <pt x="202" y="608" on="0"/>
        <pt x="166" y="608" on="0"/>
        <pt x="124" y="654" on="0"/>
        <pt x="124" y="673" on="1"/>
        <pt x="122" y="691" on="0"/>
        <pt x="190" y="704" on="1"/>
        <pt x="225" y="710" on="0"/>
        <pt x="271" y="710" on="1"/>
        <pt x="377" y="710" on="0"/>
        <pt x="467" y="680" on="1"/>
        <pt x="506" y="667" on="0"/>
        <pt x="561" y="599" on="0"/>
        <pt x="562" y="571" on="1"/>
        <pt x="563" y="528" on="0"/>
        <pt x="436" y="386" on="0"/>
        <pt x="284" y="262" on="0"/>
        <pt x="157" y="148" on="0"/>
      </contour>
    </TTGlyph>
    <TTGlyph name="Zacute" xMin="59" yMin="21" xMax="574" yMax="962">
      <contour>
        <pt x="157" y="130" on="1"/>
        <pt x="157" y="121" on="0"/>
        <pt x="171" y="107" on="0"/>
        <pt x="183" y="107" on="1"/>
        <pt x="236" y="107" on="0"/>
        <pt x="469" y="140" on="0"/>
        <pt x="537" y="140" on="0"/>
        <pt x="537" y="116" on="1"/>
        <pt x="537" y="84" on="0"/>
        <pt x="287" y="21" on="0"/>
        <pt x="160" y="21" on="1"/>
        <pt x="122" y="21" on="0"/>
        <pt x="59" y="90" on="0"/>
        <pt x="59" y="164" on="0"/>
        <pt x="191" y="301" on="0"/>
        <pt x="349" y="425" on="0"/>
        <pt x="479" y="550" on="0"/>
        <pt x="479" y="579" on="1"/>
        <pt x="478" y="598" on="0"/>
        <pt x="376" y="625" on="0"/>
        <pt x="286" y="622" on="0"/>
        <pt x="202" y="608" on="0"/>
        <pt x="166" y="608" on="0"/>
        <pt x="124" y="654" on="0"/>
        <pt x="124" y="673" on="1"/>
        <pt x="122" y="691" on="0"/>
        <pt x="190" y="704" on="1"/>
        <pt x="225" y="710" on="0"/>
        <pt x="271" y="710" on="1"/>
        <pt x="377" y="710" on="0"/>
        <pt x="467" y="680" on="1"/>
        <pt x="506" y="667" on="0"/>
        <pt x="561" y="599" on="0"/>
        <pt x="562" y="571" on="1"/>
        <pt x="563" y="528" on="0"/>
        <pt x="436" y="386" on="0"/>
        <pt x="284" y="262" on="0"/>
        <pt x="157" y="148" on="0"/>
      </contour>
      <contour>
        <pt x="574" y="938" on="0"/>
        <pt x="574" y="893" on="0"/>
        <pt x="560" y="884" on="1"/>
        <pt x="442" y="801" on="0"/>
        <pt x="430" y="794" on="0"/>
        <pt x="420" y="788" on="0"/>
        <pt x="417" y="787" on="1"/>
        <pt x="405" y="783" on="0"/>
        <pt x="399" y="784" on="0"/>
        <pt x="395" y="784" on="1"/>
        <pt x="389" y="785" on="0"/>
        <pt x="372" y="807" on="0"/>
        <pt x="383" y="841" on="0"/>
        <pt x="399" y="857" on="1"/>
        <pt x="508" y="962" on="1"/>
        <pt x="535" y="986" on="0"/>
        <pt x="559" y="957" on="1"/>
      </contour>
    </TTGlyph>
    <TTGlyph name="Zcaron" xMin="59" yMin="21" xMax="569" yMax="977">
      <contour>
        <pt x="157" y="130" on="1"/>
        <pt x="157" y="121" on="0"/>
        <pt x="171" y="107" on="0"/>
        <pt x="183" y="107" on="1"/>
        <pt x="236" y="107" on="0"/>
        <pt x="469" y="140" on="0"/>
        <pt x="537" y="140" on="0"/>
        <pt x="537" y="116" on="1"/>
        <pt x="537" y="84" on="0"/>
        <pt x="287" y="21" on="0"/>
        <pt x="160" y="21" on="1"/>
        <pt x="122" y="21" on="0"/>
        <pt x="59" y="90" on="0"/>
        <pt x="59" y="164" on="0"/>
        <pt x="191" y="301" on="0"/>
        <pt x="349" y="425" on="0"/>
        <pt x="479" y="550" on="0"/>
        <pt x="479" y="579" on="1"/>
        <pt x="478" y="598" on="0"/>
        <pt x="376" y="625" on="0"/>
        <pt x="286" y="622" on="0"/>
        <pt x="202" y="608" on="0"/>
        <pt x="166" y="608" on="0"/>
        <pt x="124" y="654" on="0"/>
        <pt x="124" y="673" on="1"/>
        <pt x="122" y="691" on="0"/>
        <pt x="190" y="704" on="1"/>
        <pt x="225" y="710" on="0"/>
        <pt x="271" y="710" on="1"/>
        <pt x="377" y="710" on="0"/>
        <pt x="467" y="680" on="1"/>
        <pt x="506" y="667" on="0"/>
        <pt x="561" y="599" on="0"/>
        <pt x="562" y="571" on="1"/>
        <pt x="563" y="528" on="0"/>
        <pt x="436" y="386" on="0"/>
        <pt x="284" y="262" on="0"/>
        <pt x="157" y="148" on="0"/>
      </contour>
      <contour>
        <pt x="540" y="943" on="1"/>
        <pt x="569" y="943" on="0"/>
        <pt x="569" y="917" on="1"/>
        <pt x="569" y="903" on="0"/>
        <pt x="546" y="880" on="0"/>
        <pt x="488" y="844" on="0"/>
        <pt x="464" y="826" on="0"/>
        <pt x="424" y="791" on="0"/>
        <pt x="400" y="774" on="0"/>
        <pt x="390" y="774" on="1"/>
        <pt x="370" y="774" on="0"/>
        <pt x="240" y="903" on="0"/>
        <pt x="240" y="940" on="1"/>
        <pt x="240" y="956" on="0"/>
        <pt x="258" y="977" on="0"/>
        <pt x="286" y="977" on="0"/>
        <pt x="315" y="943" on="0"/>
        <pt x="365" y="878" on="0"/>
        <pt x="397" y="853" on="1"/>
        <pt x="447" y="899" on="0"/>
        <pt x="524" y="943" on="0"/>
      </contour>
    </TTGlyph>
    <TTGlyph name="Zdotaccent" xMin="59" yMin="21" xMax="562" yMax="919">
      <contour>
        <pt x="404" y="788" on="0"/>
        <pt x="347" y="842" on="0"/>
        <pt x="347" y="881" on="0"/>
        <pt x="378" y="919" on="0"/>
        <pt x="411" y="919" on="0"/>
        <pt x="453" y="834" on="0"/>
        <pt x="453" y="812" on="1"/>
        <pt x="453" y="805" on="0"/>
        <pt x="434" y="788" on="0"/>
        <pt x="425" y="788" on="1"/>
      </contour>
      <contour>
        <pt x="157" y="130" on="1"/>
        <pt x="157" y="121" on="0"/>
        <pt x="171" y="107" on="0"/>
        <pt x="183" y="107" on="1"/>
        <pt x="236" y="107" on="0"/>
        <pt x="469" y="140" on="0"/>
        <pt x="537" y="140" on="0"/>
        <pt x="537" y="116" on="1"/>
        <pt x="537" y="84" on="0"/>
        <pt x="287" y="21" on="0"/>
        <pt x="160" y="21" on="1"/>
        <pt x="122" y="21" on="0"/>
        <pt x="59" y="90" on="0"/>
        <pt x="59" y="164" on="0"/>
        <pt x="191" y="301" on="0"/>
        <pt x="349" y="425" on="0"/>
        <pt x="479" y="550" on="0"/>
        <pt x="479" y="579" on="1"/>
        <pt x="478" y="598" on="0"/>
        <pt x="376" y="625" on="0"/>
        <pt x="286" y="622" on="0"/>
        <pt x="202" y="608" on="0"/>
        <pt x="166" y="608" on="0"/>
        <pt x="124" y="654" on="0"/>
        <pt x="124" y="673" on="1"/>
        <pt x="122" y="691" on="0"/>
        <pt x="190" y="704" on="1"/>
        <pt x="225" y="710" on="0"/>
        <pt x="271" y="710" on="1"/>
        <pt x="377" y="710" on="0"/>
        <pt x="467" y="680" on="1"/>
        <pt x="506" y="667" on="0"/>
        <pt x="561" y="599" on="0"/>
        <pt x="562" y="571" on="1"/>
        <pt x="563" y="528" on="0"/>
        <pt x="436" y="386" on="0"/>
        <pt x="284" y="262" on="0"/>
        <pt x="157" y="148" on="0"/>
      </contour>
    </TTGlyph>
    <TTGlyph name="a" xMin="7" yMin="15" xMax="418" yMax="511">
      <contour>
        <pt x="342" y="511" on="0"/>
        <pt x="418" y="420" on="0"/>
        <pt x="418" y="347" on="0"/>
        <pt x="393" y="309" on="1"/>
        <pt x="405" y="294" on="0"/>
        <pt x="405" y="283" on="1"/>
        <pt x="405" y="255" on="0"/>
        <pt x="380" y="119" on="0"/>
        <pt x="375" y="77" on="0"/>
        <pt x="371" y="52" on="0"/>
        <pt x="368" y="40" on="1"/>
        <pt x="364" y="15" on="0"/>
        <pt x="350" y="15" on="1"/>
        <pt x="332" y="15" on="0"/>
        <pt x="309" y="78" on="0"/>
        <pt x="307" y="128" on="1"/>
        <pt x="218" y="15" on="0"/>
        <pt x="142" y="15" on="1"/>
        <pt x="96" y="15" on="0"/>
        <pt x="7" y="94" on="0"/>
        <pt x="7" y="136" on="1"/>
        <pt x="7" y="196" on="0"/>
        <pt x="95" y="373" on="0"/>
        <pt x="235" y="511" on="0"/>
        <pt x="297" y="511" on="1"/>
      </contour>
      <contour>
        <pt x="343" y="335" on="1"/>
        <pt x="343" y="428" on="0"/>
        <pt x="306" y="428" on="1"/>
        <pt x="267" y="428" on="0"/>
        <pt x="163" y="317" on="0"/>
        <pt x="91" y="177" on="0"/>
        <pt x="91" y="136" on="1"/>
        <pt x="91" y="119" on="0"/>
        <pt x="119" y="98" on="0"/>
        <pt x="138" y="98" on="1"/>
        <pt x="185" y="98" on="0"/>
        <pt x="303" y="225" on="0"/>
        <pt x="326" y="316" on="1"/>
        <pt x="329" y="331" on="0"/>
        <pt x="343" y="334" on="1"/>
      </contour>
    </TTGlyph>
    <TTGlyph name="aacute" xMin="29" yMin="15" xMax="568" yMax="741">
      <contour>
        <pt x="568" y="717" on="0"/>
        <pt x="568" y="672" on="0"/>
        <pt x="554" y="663" on="1"/>
        <pt x="420" y="569" on="0"/>
        <pt x="414" y="567" on="1"/>
        <pt x="399" y="562" on="0"/>
        <pt x="393" y="563" on="0"/>
        <pt x="389" y="564" on="1"/>
        <pt x="383" y="564" on="0"/>
        <pt x="366" y="586" on="0"/>
        <pt x="377" y="620" on="0"/>
        <pt x="393" y="636" on="1"/>
        <pt x="502" y="741" on="1"/>
        <pt x="529" y="765" on="0"/>
        <pt x="553" y="736" on="1"/>
      </contour>
      <contour>
        <pt x="319" y="511" on="1"/>
        <pt x="364" y="511" on="0"/>
        <pt x="440" y="420" on="0"/>
        <pt x="440" y="347" on="0"/>
        <pt x="415" y="309" on="1"/>
        <pt x="427" y="294" on="0"/>
        <pt x="427" y="283" on="1"/>
        <pt x="427" y="255" on="0"/>
        <pt x="402" y="119" on="0"/>
        <pt x="397" y="77" on="0"/>
        <pt x="393" y="52" on="0"/>
        <pt x="390" y="40" on="1"/>
        <pt x="386" y="15" on="0"/>
        <pt x="372" y="15" on="1"/>
        <pt x="354" y="15" on="0"/>
        <pt x="331" y="78" on="0"/>
        <pt x="329" y="128" on="1"/>
        <pt x="240" y="15" on="0"/>
        <pt x="164" y="15" on="1"/>
        <pt x="118" y="15" on="0"/>
        <pt x="29" y="94" on="0"/>
        <pt x="29" y="136" on="1"/>
        <pt x="29" y="196" on="0"/>
        <pt x="117" y="373" on="0"/>
        <pt x="257" y="511" on="0"/>
      </contour>
      <contour>
        <pt x="365" y="335" on="1"/>
        <pt x="365" y="428" on="0"/>
        <pt x="328" y="428" on="1"/>
        <pt x="289" y="428" on="0"/>
        <pt x="185" y="317" on="0"/>
        <pt x="113" y="177" on="0"/>
        <pt x="113" y="136" on="1"/>
        <pt x="113" y="119" on="0"/>
        <pt x="141" y="98" on="0"/>
        <pt x="160" y="98" on="1"/>
        <pt x="207" y="98" on="0"/>
        <pt x="325" y="225" on="0"/>
        <pt x="348" y="316" on="1"/>
        <pt x="351" y="331" on="0"/>
        <pt x="365" y="334" on="1"/>
      </contour>
    </TTGlyph>
    <TTGlyph name="abreve" xMin="29" yMin="15" xMax="568" yMax="731">
      <contour>
        <pt x="545" y="696" on="1"/>
        <pt x="568" y="696" on="0"/>
        <pt x="568" y="673" on="1"/>
        <pt x="568" y="640" on="0"/>
        <pt x="467" y="567" on="0"/>
        <pt x="366" y="567" on="0"/>
        <pt x="284" y="639" on="0"/>
        <pt x="284" y="676" on="1"/>
        <pt x="284" y="701" on="0"/>
        <pt x="313" y="731" on="0"/>
        <pt x="338" y="731" on="0"/>
        <pt x="354" y="701" on="0"/>
        <pt x="368" y="665" on="0"/>
        <pt x="402" y="635" on="0"/>
        <pt x="455" y="635" on="0"/>
        <pt x="499" y="666" on="0"/>
        <pt x="532" y="696" on="0"/>
      </contour>
      <contour>
        <pt x="319" y="511" on="1"/>
        <pt x="364" y="511" on="0"/>
        <pt x="440" y="420" on="0"/>
        <pt x="440" y="347" on="0"/>
        <pt x="415" y="309" on="1"/>
        <pt x="427" y="294" on="0"/>
        <pt x="427" y="283" on="1"/>
        <pt x="427" y="255" on="0"/>
        <pt x="402" y="119" on="0"/>
        <pt x="397" y="77" on="0"/>
        <pt x="393" y="52" on="0"/>
        <pt x="390" y="40" on="1"/>
        <pt x="386" y="15" on="0"/>
        <pt x="372" y="15" on="1"/>
        <pt x="354" y="15" on="0"/>
        <pt x="331" y="78" on="0"/>
        <pt x="329" y="128" on="1"/>
        <pt x="240" y="15" on="0"/>
        <pt x="164" y="15" on="1"/>
        <pt x="118" y="15" on="0"/>
        <pt x="29" y="94" on="0"/>
        <pt x="29" y="136" on="1"/>
        <pt x="29" y="196" on="0"/>
        <pt x="117" y="373" on="0"/>
        <pt x="257" y="511" on="0"/>
      </contour>
      <contour>
        <pt x="365" y="335" on="1"/>
        <pt x="365" y="428" on="0"/>
        <pt x="328" y="428" on="1"/>
        <pt x="289" y="428" on="0"/>
        <pt x="185" y="317" on="0"/>
        <pt x="113" y="177" on="0"/>
        <pt x="113" y="136" on="1"/>
        <pt x="113" y="119" on="0"/>
        <pt x="141" y="98" on="0"/>
        <pt x="160" y="98" on="1"/>
        <pt x="207" y="98" on="0"/>
        <pt x="325" y="225" on="0"/>
        <pt x="348" y="316" on="1"/>
        <pt x="351" y="331" on="0"/>
        <pt x="365" y="334" on="1"/>
      </contour>
    </TTGlyph>
    <TTGlyph name="acircumflex" xMin="29" yMin="15" xMax="548" yMax="740">
      <contour>
        <pt x="541" y="605" on="0"/>
        <pt x="548" y="587" on="0"/>
        <pt x="548" y="572" on="0"/>
        <pt x="533" y="560" on="0"/>
        <pt x="507" y="560" on="0"/>
        <pt x="461" y="598" on="0"/>
        <pt x="435" y="630" on="0"/>
        <pt x="409" y="663" on="1"/>
        <pt x="381" y="649" on="0"/>
        <pt x="320" y="601" on="0"/>
        <pt x="280" y="573" on="0"/>
        <pt x="253" y="573" on="0"/>
        <pt x="234" y="591" on="0"/>
        <pt x="234" y="609" on="1"/>
        <pt x="234" y="645" on="0"/>
        <pt x="303" y="684" on="1"/>
        <pt x="314" y="690" on="0"/>
        <pt x="346" y="710" on="0"/>
        <pt x="366" y="722" on="0"/>
        <pt x="378" y="728" on="1"/>
        <pt x="401" y="740" on="0"/>
        <pt x="420" y="740" on="0"/>
        <pt x="437" y="730" on="0"/>
        <pt x="447" y="718" on="0"/>
        <pt x="470" y="689" on="0"/>
        <pt x="482" y="675" on="0"/>
        <pt x="511" y="643" on="0"/>
        <pt x="523" y="628" on="0"/>
      </contour>
      <contour>
        <pt x="319" y="511" on="1"/>
        <pt x="364" y="511" on="0"/>
        <pt x="440" y="420" on="0"/>
        <pt x="440" y="347" on="0"/>
        <pt x="415" y="309" on="1"/>
        <pt x="427" y="294" on="0"/>
        <pt x="427" y="283" on="1"/>
        <pt x="427" y="255" on="0"/>
        <pt x="402" y="119" on="0"/>
        <pt x="397" y="77" on="0"/>
        <pt x="393" y="52" on="0"/>
        <pt x="390" y="40" on="1"/>
        <pt x="386" y="15" on="0"/>
        <pt x="372" y="15" on="1"/>
        <pt x="354" y="15" on="0"/>
        <pt x="331" y="78" on="0"/>
        <pt x="329" y="128" on="1"/>
        <pt x="240" y="15" on="0"/>
        <pt x="164" y="15" on="1"/>
        <pt x="118" y="15" on="0"/>
        <pt x="29" y="94" on="0"/>
        <pt x="29" y="136" on="1"/>
        <pt x="29" y="196" on="0"/>
        <pt x="117" y="373" on="0"/>
        <pt x="257" y="511" on="0"/>
      </contour>
      <contour>
        <pt x="365" y="335" on="1"/>
        <pt x="365" y="428" on="0"/>
        <pt x="328" y="428" on="1"/>
        <pt x="289" y="428" on="0"/>
        <pt x="185" y="317" on="0"/>
        <pt x="113" y="177" on="0"/>
        <pt x="113" y="136" on="1"/>
        <pt x="113" y="119" on="0"/>
        <pt x="141" y="98" on="0"/>
        <pt x="160" y="98" on="1"/>
        <pt x="207" y="98" on="0"/>
        <pt x="325" y="225" on="0"/>
        <pt x="348" y="316" on="1"/>
        <pt x="351" y="331" on="0"/>
        <pt x="365" y="334" on="1"/>
      </contour>
    </TTGlyph>
    <TTGlyph name="acute" xMin="2" yMin="658" xMax="199" yMax="837">
      <contour>
        <pt x="199" y="813" on="0"/>
        <pt x="199" y="768" on="0"/>
        <pt x="185" y="759" on="1"/>
        <pt x="51" y="665" on="0"/>
        <pt x="45" y="663" on="1"/>
        <pt x="30" y="658" on="0"/>
        <pt x="24" y="659" on="0"/>
        <pt x="20" y="660" on="1"/>
        <pt x="14" y="660" on="0"/>
        <pt x="-3" y="682" on="0"/>
        <pt x="8" y="716" on="0"/>
        <pt x="24" y="732" on="1"/>
        <pt x="133" y="837" on="1"/>
        <pt x="160" y="861" on="0"/>
        <pt x="184" y="832" on="1"/>
      </contour>
    </TTGlyph>
    <TTGlyph name="adieresis" xMin="29" yMin="15" xMax="526" yMax="704">
      <contour>
        <pt x="423" y="669" on="0"/>
        <pt x="453" y="704" on="0"/>
        <pt x="484" y="704" on="0"/>
        <pt x="526" y="626" on="0"/>
        <pt x="526" y="596" on="0"/>
        <pt x="508" y="578" on="0"/>
        <pt x="499" y="578" on="1"/>
        <pt x="477" y="578" on="0"/>
        <pt x="423" y="631" on="0"/>
      </contour>
      <contour>
        <pt x="319" y="511" on="1"/>
        <pt x="364" y="511" on="0"/>
        <pt x="440" y="420" on="0"/>
        <pt x="440" y="347" on="0"/>
        <pt x="415" y="309" on="1"/>
        <pt x="427" y="294" on="0"/>
        <pt x="427" y="283" on="1"/>
        <pt x="427" y="255" on="0"/>
        <pt x="402" y="119" on="0"/>
        <pt x="397" y="77" on="0"/>
        <pt x="393" y="52" on="0"/>
        <pt x="390" y="40" on="1"/>
        <pt x="386" y="15" on="0"/>
        <pt x="372" y="15" on="1"/>
        <pt x="354" y="15" on="0"/>
        <pt x="331" y="78" on="0"/>
        <pt x="329" y="128" on="1"/>
        <pt x="240" y="15" on="0"/>
        <pt x="164" y="15" on="1"/>
        <pt x="118" y="15" on="0"/>
        <pt x="29" y="94" on="0"/>
        <pt x="29" y="136" on="1"/>
        <pt x="29" y="196" on="0"/>
        <pt x="117" y="373" on="0"/>
        <pt x="257" y="511" on="0"/>
      </contour>
      <contour>
        <pt x="365" y="335" on="1"/>
        <pt x="365" y="428" on="0"/>
        <pt x="328" y="428" on="1"/>
        <pt x="289" y="428" on="0"/>
        <pt x="185" y="317" on="0"/>
        <pt x="113" y="177" on="0"/>
        <pt x="113" y="136" on="1"/>
        <pt x="113" y="119" on="0"/>
        <pt x="141" y="98" on="0"/>
        <pt x="160" y="98" on="1"/>
        <pt x="207" y="98" on="0"/>
        <pt x="325" y="225" on="0"/>
        <pt x="348" y="316" on="1"/>
        <pt x="351" y="331" on="0"/>
        <pt x="365" y="334" on="1"/>
      </contour>
      <contour>
        <pt x="349" y="578" on="1"/>
        <pt x="326" y="578" on="0"/>
        <pt x="273" y="631" on="0"/>
        <pt x="273" y="669" on="0"/>
        <pt x="302" y="704" on="0"/>
        <pt x="333" y="704" on="0"/>
        <pt x="375" y="626" on="0"/>
        <pt x="375" y="596" on="0"/>
        <pt x="358" y="578" on="0"/>
      </contour>
    </TTGlyph>
    <TTGlyph name="ae" xMin="29" yMin="15" xMax="732" yMax="511">
      <contour>
        <pt x="368" y="345" on="1"/>
        <pt x="365" y="428" on="0"/>
        <pt x="280" y="428" on="0"/>
        <pt x="177" y="316" on="0"/>
        <pt x="111" y="178" on="0"/>
        <pt x="111" y="136" on="1"/>
        <pt x="111" y="119" on="0"/>
        <pt x="137" y="98" on="0"/>
        <pt x="153" y="98" on="1"/>
        <pt x="197" y="96" on="0"/>
        <pt x="298" y="196" on="0"/>
        <pt x="341" y="283" on="1"/>
        <pt x="351" y="317" on="0"/>
      </contour>
      <contour>
        <pt x="437" y="298" on="1"/>
        <pt x="479" y="289" on="0"/>
        <pt x="579" y="289" on="0"/>
        <pt x="655" y="322" on="0"/>
        <pt x="655" y="376" on="0"/>
        <pt x="605" y="432" on="0"/>
        <pt x="581" y="432" on="1"/>
        <pt x="544" y="432" on="0"/>
        <pt x="465" y="355" on="0"/>
      </contour>
      <contour>
        <pt x="314" y="511" on="1"/>
        <pt x="349" y="511" on="0"/>
        <pt x="411" y="463" on="0"/>
        <pt x="427" y="428" on="1"/>
        <pt x="501" y="511" on="0"/>
        <pt x="575" y="511" on="1"/>
        <pt x="635" y="511" on="0"/>
        <pt x="732" y="399" on="0"/>
        <pt x="732" y="292" on="0"/>
        <pt x="617" y="225" on="0"/>
        <pt x="481" y="225" on="0"/>
        <pt x="413" y="241" on="1"/>
        <pt x="399" y="199" on="0"/>
        <pt x="399" y="128" on="0"/>
        <pt x="442" y="90" on="0"/>
        <pt x="541" y="90" on="0"/>
        <pt x="646" y="125" on="0"/>
        <pt x="651" y="125" on="1"/>
        <pt x="677" y="125" on="0"/>
        <pt x="677" y="105" on="1"/>
        <pt x="677" y="78" on="0"/>
        <pt x="555" y="15" on="0"/>
        <pt x="431" y="15" on="0"/>
        <pt x="338" y="85" on="0"/>
        <pt x="327" y="142" on="1"/>
        <pt x="281" y="80" on="0"/>
        <pt x="201" y="15" on="0"/>
        <pt x="114" y="15" on="0"/>
        <pt x="29" y="94" on="0"/>
        <pt x="29" y="138" on="1"/>
        <pt x="29" y="199" on="0"/>
        <pt x="110" y="373" on="0"/>
        <pt x="248" y="511" on="0"/>
      </contour>
    </TTGlyph>
    <TTGlyph name="agrave" xMin="29" yMin="15" xMax="448" yMax="737">
      <contour>
        <pt x="262" y="675" on="0"/>
        <pt x="262" y="716" on="0"/>
        <pt x="279" y="732" on="1"/>
        <pt x="307" y="763" on="0"/>
        <pt x="333" y="737" on="1"/>
        <pt x="434" y="630" on="1"/>
        <pt x="469" y="595" on="0"/>
        <pt x="448" y="572" on="1"/>
        <pt x="430" y="551" on="0"/>
        <pt x="402" y="574" on="1"/>
        <pt x="392" y="582" on="0"/>
        <pt x="276" y="666" on="1"/>
      </contour>
      <contour>
        <pt x="319" y="511" on="1"/>
        <pt x="364" y="511" on="0"/>
        <pt x="440" y="420" on="0"/>
        <pt x="440" y="347" on="0"/>
        <pt x="415" y="309" on="1"/>
        <pt x="427" y="294" on="0"/>
        <pt x="427" y="283" on="1"/>
        <pt x="427" y="255" on="0"/>
        <pt x="402" y="119" on="0"/>
        <pt x="397" y="77" on="0"/>
        <pt x="393" y="52" on="0"/>
        <pt x="390" y="40" on="1"/>
        <pt x="386" y="15" on="0"/>
        <pt x="372" y="15" on="1"/>
        <pt x="354" y="15" on="0"/>
        <pt x="331" y="78" on="0"/>
        <pt x="329" y="128" on="1"/>
        <pt x="240" y="15" on="0"/>
        <pt x="164" y="15" on="1"/>
        <pt x="118" y="15" on="0"/>
        <pt x="29" y="94" on="0"/>
        <pt x="29" y="136" on="1"/>
        <pt x="29" y="196" on="0"/>
        <pt x="117" y="373" on="0"/>
        <pt x="257" y="511" on="0"/>
      </contour>
      <contour>
        <pt x="365" y="335" on="1"/>
        <pt x="365" y="428" on="0"/>
        <pt x="328" y="428" on="1"/>
        <pt x="289" y="428" on="0"/>
        <pt x="185" y="317" on="0"/>
        <pt x="113" y="177" on="0"/>
        <pt x="113" y="136" on="1"/>
        <pt x="113" y="119" on="0"/>
        <pt x="141" y="98" on="0"/>
        <pt x="160" y="98" on="1"/>
        <pt x="207" y="98" on="0"/>
        <pt x="325" y="225" on="0"/>
        <pt x="348" y="316" on="1"/>
        <pt x="351" y="331" on="0"/>
        <pt x="365" y="334" on="1"/>
      </contour>
    </TTGlyph>
    <TTGlyph name="amacron" xMin="29" yMin="15" xMax="563" yMax="654">
      <contour>
        <pt x="271" y="578" on="1"/>
        <pt x="252" y="578" on="0"/>
        <pt x="217" y="612" on="0"/>
        <pt x="218" y="646" on="0"/>
        <pt x="362" y="656" on="0"/>
        <pt x="500" y="654" on="1"/>
        <pt x="563" y="653" on="0"/>
        <pt x="563" y="631" on="1"/>
        <pt x="562" y="617" on="0"/>
        <pt x="503" y="604" on="0"/>
        <pt x="274" y="578" on="0"/>
      </contour>
      <contour>
        <pt x="319" y="511" on="1"/>
        <pt x="364" y="511" on="0"/>
        <pt x="440" y="420" on="0"/>
        <pt x="440" y="347" on="0"/>
        <pt x="415" y="309" on="1"/>
        <pt x="427" y="294" on="0"/>
        <pt x="427" y="283" on="1"/>
        <pt x="427" y="255" on="0"/>
        <pt x="402" y="119" on="0"/>
        <pt x="397" y="77" on="0"/>
        <pt x="393" y="52" on="0"/>
        <pt x="390" y="40" on="1"/>
        <pt x="386" y="15" on="0"/>
        <pt x="372" y="15" on="1"/>
        <pt x="354" y="15" on="0"/>
        <pt x="331" y="78" on="0"/>
        <pt x="329" y="128" on="1"/>
        <pt x="240" y="15" on="0"/>
        <pt x="164" y="15" on="1"/>
        <pt x="118" y="15" on="0"/>
        <pt x="29" y="94" on="0"/>
        <pt x="29" y="136" on="1"/>
        <pt x="29" y="196" on="0"/>
        <pt x="117" y="373" on="0"/>
        <pt x="257" y="511" on="0"/>
      </contour>
      <contour>
        <pt x="365" y="335" on="1"/>
        <pt x="365" y="428" on="0"/>
        <pt x="328" y="428" on="1"/>
        <pt x="289" y="428" on="0"/>
        <pt x="185" y="317" on="0"/>
        <pt x="113" y="177" on="0"/>
        <pt x="113" y="136" on="1"/>
        <pt x="113" y="119" on="0"/>
        <pt x="141" y="98" on="0"/>
        <pt x="160" y="98" on="1"/>
        <pt x="207" y="98" on="0"/>
        <pt x="325" y="225" on="0"/>
        <pt x="348" y="316" on="1"/>
        <pt x="351" y="331" on="0"/>
        <pt x="365" y="334" on="1"/>
      </contour>
    </TTGlyph>
    <TTGlyph name="ampersand" xMin="15" yMin="9" xMax="654" yMax="681">
      <contour>
        <pt x="569" y="91" on="1"/>
        <pt x="618" y="91" on="0"/>
        <pt x="654" y="81" on="0"/>
        <pt x="654" y="67" on="1"/>
        <pt x="652" y="20" on="0"/>
        <pt x="462" y="20" on="0"/>
        <pt x="367" y="107" on="1"/>
        <pt x="207" y="9" on="0"/>
        <pt x="130" y="9" on="1"/>
        <pt x="91" y="9" on="0"/>
        <pt x="15" y="84" on="0"/>
        <pt x="15" y="152" on="0"/>
        <pt x="103" y="239" on="0"/>
        <pt x="206" y="322" on="0"/>
        <pt x="214" y="329" on="1"/>
        <pt x="135" y="526" on="0"/>
        <pt x="235" y="626" on="1"/>
        <pt x="289" y="681" on="0"/>
        <pt x="373" y="681" on="1"/>
        <pt x="437" y="681" on="0"/>
        <pt x="493" y="603" on="0"/>
        <pt x="491" y="504" on="0"/>
        <pt x="393" y="383" on="0"/>
        <pt x="310" y="310" on="1"/>
        <pt x="335" y="253" on="0"/>
        <pt x="372" y="209" on="1"/>
        <pt x="415" y="238" on="0"/>
        <pt x="480" y="284" on="1"/>
        <pt x="608" y="376" on="0"/>
        <pt x="620" y="376" on="1"/>
        <pt x="651" y="376" on="0"/>
        <pt x="651" y="343" on="1"/>
        <pt x="651" y="324" on="0"/>
        <pt x="520" y="209" on="0"/>
        <pt x="430" y="148" on="1"/>
        <pt x="498" y="91" on="0"/>
      </contour>
      <contour>
        <pt x="353" y="605" on="1"/>
        <pt x="315" y="605" on="0"/>
        <pt x="292" y="572" on="1"/>
        <pt x="246" y="504" on="0"/>
        <pt x="281" y="386" on="1"/>
        <pt x="402" y="492" on="0"/>
        <pt x="403" y="549" on="1"/>
        <pt x="403" y="573" on="0"/>
        <pt x="378" y="605" on="0"/>
      </contour>
      <contour>
        <pt x="104" y="111" on="1"/>
        <pt x="104" y="88" on="0"/>
        <pt x="130" y="88" on="1"/>
        <pt x="181" y="88" on="0"/>
        <pt x="309" y="168" on="1"/>
        <pt x="272" y="214" on="0"/>
        <pt x="248" y="258" on="1"/>
        <pt x="131" y="161" on="0"/>
        <pt x="114" y="135" on="1"/>
        <pt x="104" y="121" on="0"/>
      </contour>
    </TTGlyph>
    <TTGlyph name="aogonek" xMin="29" yMin="-203" xMax="441" yMax="511">
      <contour>
        <pt x="164" y="15" on="1"/>
        <pt x="118" y="15" on="0"/>
        <pt x="29" y="94" on="0"/>
        <pt x="29" y="136" on="1"/>
        <pt x="29" y="196" on="0"/>
        <pt x="117" y="373" on="0"/>
        <pt x="257" y="511" on="0"/>
        <pt x="319" y="511" on="1"/>
        <pt x="364" y="511" on="0"/>
        <pt x="440" y="420" on="0"/>
        <pt x="440" y="347" on="0"/>
        <pt x="415" y="309" on="1"/>
        <pt x="427" y="294" on="0"/>
        <pt x="427" y="283" on="1"/>
        <pt x="427" y="255" on="0"/>
        <pt x="402" y="119" on="0"/>
        <pt x="400" y="96" on="1"/>
        <pt x="394" y="48" on="0"/>
        <pt x="388" y="32" on="1"/>
        <pt x="401" y="32" on="0"/>
        <pt x="421" y="13" on="0"/>
        <pt x="409" y="-24" on="0"/>
        <pt x="388" y="-41" on="1"/>
        <pt x="323" y="-92" on="0"/>
        <pt x="323" y="-118" on="1"/>
        <pt x="323" y="-136" on="0"/>
        <pt x="357" y="-136" on="1"/>
        <pt x="368" y="-136" on="0"/>
        <pt x="400" y="-126" on="0"/>
        <pt x="405" y="-126" on="1"/>
        <pt x="433" y="-121" on="0"/>
        <pt x="441" y="-149" on="1"/>
        <pt x="444" y="-161" on="0"/>
        <pt x="422" y="-185" on="0"/>
        <pt x="360" y="-203" on="0"/>
        <pt x="294" y="-203" on="0"/>
        <pt x="242" y="-165" on="0"/>
        <pt x="242" y="-100" on="0"/>
        <pt x="311" y="-10" on="0"/>
        <pt x="354" y="23" on="1"/>
        <pt x="355" y="24" on="1"/>
        <pt x="334" y="50" on="0"/>
        <pt x="329" y="128" on="1"/>
        <pt x="240" y="15" on="0"/>
      </contour>
      <contour>
        <pt x="365" y="335" on="1"/>
        <pt x="365" y="428" on="0"/>
        <pt x="328" y="428" on="1"/>
        <pt x="289" y="428" on="0"/>
        <pt x="185" y="317" on="0"/>
        <pt x="113" y="177" on="0"/>
        <pt x="113" y="136" on="1"/>
        <pt x="113" y="119" on="0"/>
        <pt x="141" y="98" on="0"/>
        <pt x="160" y="98" on="1"/>
        <pt x="207" y="98" on="0"/>
        <pt x="325" y="225" on="0"/>
        <pt x="348" y="316" on="1"/>
        <pt x="351" y="331" on="0"/>
        <pt x="365" y="334" on="1"/>
      </contour>
    </TTGlyph>
    <TTGlyph name="approxequal" xMin="53" yMin="127" xMax="563" yMax="555">
      <contour>
        <pt x="265" y="555" on="1"/>
        <pt x="292" y="555" on="0"/>
        <pt x="339" y="521" on="0"/>
        <pt x="366" y="479" on="0"/>
        <pt x="405" y="442" on="0"/>
        <pt x="425" y="439" on="1"/>
        <pt x="445" y="442" on="0"/>
        <pt x="479" y="474" on="0"/>
        <pt x="488" y="492" on="1"/>
        <pt x="511" y="537" on="0"/>
        <pt x="563" y="537" on="0"/>
        <pt x="563" y="502" on="1"/>
        <pt x="562" y="454" on="0"/>
        <pt x="478" y="357" on="0"/>
        <pt x="428" y="357" on="1"/>
        <pt x="354" y="357" on="0"/>
        <pt x="274" y="485" on="1"/>
        <pt x="246" y="473" on="0"/>
        <pt x="202" y="430" on="0"/>
        <pt x="192" y="412" on="1"/>
        <pt x="165" y="366" on="0"/>
        <pt x="141" y="366" on="1"/>
        <pt x="125" y="366" on="0"/>
        <pt x="105" y="383" on="0"/>
        <pt x="106" y="398" on="1"/>
        <pt x="108" y="447" on="0"/>
        <pt x="213" y="555" on="0"/>
      </contour>
      <contour>
        <pt x="212" y="325" on="1"/>
        <pt x="239" y="325" on="0"/>
        <pt x="286" y="291" on="0"/>
        <pt x="313" y="249" on="0"/>
        <pt x="352" y="212" on="0"/>
        <pt x="372" y="209" on="1"/>
        <pt x="392" y="212" on="0"/>
        <pt x="426" y="244" on="0"/>
        <pt x="435" y="262" on="1"/>
        <pt x="458" y="307" on="0"/>
        <pt x="510" y="307" on="0"/>
        <pt x="510" y="272" on="1"/>
        <pt x="509" y="224" on="0"/>
        <pt x="425" y="127" on="0"/>
        <pt x="375" y="127" on="1"/>
        <pt x="301" y="127" on="0"/>
        <pt x="221" y="255" on="1"/>
        <pt x="193" y="243" on="0"/>
        <pt x="149" y="200" on="0"/>
        <pt x="138" y="182" on="1"/>
        <pt x="112" y="136" on="0"/>
        <pt x="88" y="136" on="1"/>
        <pt x="72" y="136" on="0"/>
        <pt x="52" y="153" on="0"/>
        <pt x="53" y="168" on="1"/>
        <pt x="55" y="217" on="0"/>
        <pt x="160" y="325" on="0"/>
      </contour>
    </TTGlyph>
</ttFont>
